<?xml version="1.0" encoding="UTF-8"?>
<svg width="23px" height="20px" viewBox="0 0 23 20" version="1.1" xmlns="http://www.w3.org/2000/svg" xmlns:xlink="http://www.w3.org/1999/xlink">
    <!-- Generator: Sketch 48.1 (47250) - http://www.bohemiancoding.com/sketch -->
    <title>adobe-reader-symbol copy 2</title>
    <desc>Created with Sketch.</desc>
    <defs></defs>
    <g id="project_files" stroke="none" stroke-width="1" fill="none" fill-rule="evenodd" transform="translate(-301.000000, -482.000000)">
        <g id="adobe-reader-symbol-copy-2" transform="translate(301.000000, 482.000000)" fill="#D80027" fill-rule="nonzero">
            <path d="M21.9447059,15.0341176 C21.1570588,13.6117647 17.7076471,12.7058824 14.6617647,12.5341176 C14.3864706,12.2394118 14.1070588,11.9294118 13.8205882,11.6035294 C11.2029412,8.61058824 10.1429412,4.26117647 9.74705882,1.95705882 C9.7,1.46882353 9.64823529,1.06294118 9.60470588,0.760588235 C9.56941176,0.52 9.49529412,0.0182352941 8.97352941,0.0182352941 C8.80647059,0.0182352941 8.64529412,0.09 8.53058824,0.217647059 C8.34470588,0.43 8.37235294,0.658235294 8.40529412,0.921764706 C8.44235294,1.22411765 8.49823529,1.62882353 8.57764706,2.09058824 C8.80058824,4.43 8.90588235,8.88411765 7.10529412,12.4223529 C6.91764706,12.7911765 6.73058824,13.1452941 6.54470588,13.4829412 C3.17529412,14.4629412 0.456470588,16.2105882 0.0582352941,17.66 C-0.0858823529,18.1847059 0.0394117647,18.6876471 0.411764706,19.0770588 C0.845294118,19.53 1.35705882,19.7594118 1.93294118,19.7594118 C3.52705882,19.7594118 5.34411765,17.9841176 7.33352941,14.4847059 C8.21941176,14.2517647 9.09882353,14.0894118 9.94882353,14.0035294 C10.28,13.97 10.8158824,13.9 11.1452941,13.8494118 C12.0529412,13.7094118 13.08,13.6529412 14.1352941,13.6876471 C16.5776471,16.2264706 18.5747059,17.5135294 20.0711765,17.5135294 C20.8747059,17.5129412 21.54,17.1211765 21.9435294,16.4105882 C22.1917647,15.9705882 22.1929412,15.4811765 21.9447059,15.0341176 Z M1.93235294,18.5829412 C1.68294118,18.5829412 1.47,18.4817647 1.26117647,18.2635294 C1.17588235,18.1747059 1.15705882,18.0982353 1.19235294,17.9723529 C1.39764706,17.2258824 3.12235294,15.9464706 5.64294118,15.0176471 C4.21882353,17.2647059 2.85588235,18.5829412 1.93235294,18.5829412 Z M10.9647059,12.6882353 C10.6517647,12.7364706 10.1435294,12.8023529 9.82941176,12.8352941 C9.25823529,12.8917647 8.67117647,12.9817647 8.07882353,13.1029412 C8.10352941,13.0547059 8.12823529,13.0058824 8.15294118,12.9570588 C9.03588235,11.2223529 9.58294118,9.14235294 9.78529412,6.75823529 C10.5952941,9.02529412 11.6517647,10.9111765 12.9347059,12.3782353 C12.9723529,12.4217647 13.0117647,12.4658824 13.0494118,12.5105882 C12.3088235,12.5282353 11.61,12.5888235 10.9647059,12.6882353 Z M20.9176471,15.8329412 C20.7223529,16.1788235 20.4447059,16.3394118 20.0464706,16.3394118 L20.0458824,16.3394118 C19.1105882,16.3394118 17.6723529,15.4541176 15.9505882,13.8305882 C18.6152941,14.1652941 20.5664706,14.9717647 20.9164706,15.6041176 C20.9670588,15.6958824 20.9670588,15.7447059 20.9176471,15.8329412 Z" id="Shape"></path>
        </g>
    </g>
</svg>