<?xml version="1.0" encoding="UTF-8"?>
<svg width="21px" height="20px" viewBox="0 0 21 20" version="1.1" xmlns="http://www.w3.org/2000/svg" xmlns:xlink="http://www.w3.org/1999/xlink">
    <!-- Generator: Sketch 48.1 (47250) - http://www.bohemiancoding.com/sketch -->
    <title> All Jobs </title>
    <desc>Created with Sketch.</desc>
    <defs></defs>
    <g id="company_dashboard" stroke="none" stroke-width="1" fill="none" fill-rule="evenodd" transform="translate(-313.000000, -200.000000)">
        <g id="Group-7" transform="translate(313.000000, 193.000000)" fill="#4A90E2" fill-rule="nonzero">
            <g id="Group-22" transform="translate(0.000000, 7.000000)">
                <path d="M20.7129338,11.8124665 L18.3457355,8.15322361 C18.2983769,8.01599857 18.1090238,7.9245283 17.9669887,7.9245283 L2.81695248,7.9245283 C2.67491733,7.9245283 2.48556426,8.01599857 2.43820565,8.15322361 L0.0710074032,11.8124665 C-0.0236691344,11.9496916 -0.0236691344,12.1326321 0.0710074032,12.2698572 C0.118366015,12.4070822 0.260401165,12.4985525 0.44975424,12.4985525 L2.34352911,12.4985525 L2.34352911,18.4448271 C2.34352911,19.2224226 2.95898763,19.8170383 3.76383992,19.8170383 L11.338858,19.8170383 L17.0201013,19.8170383 C17.8249535,19.8170383 18.4404121,19.2224226 18.4404121,18.4448271 L18.4404121,13.870803 C18.4404121,13.5963529 18.2510183,13.4134123 17.9669887,13.4134123 C17.6829591,13.4134123 17.4935653,13.5963922 17.4935653,13.870803 L17.4935653,18.4448664 C17.4935653,18.7193165 17.3041716,18.9022571 17.0201419,18.9022571 L11.8123221,18.9022571 L11.8123221,11.1263413 C11.8123221,10.8518912 11.6229283,10.6689507 11.3388987,10.6689507 C11.0548284,10.6689507 10.8654753,10.8519305 10.8654753,11.1263413 L10.8654753,18.9022178 L3.76383992,18.9022178 C3.47976962,18.9022178 3.29041654,18.7192379 3.29041654,18.4448271 L3.29041654,12.0411618 C3.29041654,11.7667117 3.10102278,11.5837712 2.81699317,11.5837712 L1.30196514,11.5837712 L3.10102278,8.83934886 L10.4866471,8.83934886 L8.82962463,11.3550759 C8.73494809,11.492301 8.59291294,11.5837712 8.45087779,11.5837712 L4.71072735,11.5837712 C4.42665705,11.5837712 4.23730398,11.7667511 4.23730398,12.0411618 C4.23730398,12.3155726 4.42669774,12.4985525 4.71072735,12.4985525 L8.45087779,12.4985525 C8.92430117,12.4985525 9.39776523,12.2698572 9.63447692,11.858182 L11.338858,9.2509847 L13.0432391,11.858182 C13.3273094,12.2698572 13.7534149,12.4985525 14.2268383,12.4985525 L20.3341869,12.4985525 C20.5235807,12.4985525 20.6655752,12.4070822 20.7602924,12.2698572 C20.8549689,12.1326321 20.8076103,11.9496916 20.7129338,11.8124665 Z M14.2268383,11.5837712 C14.0848031,11.5837712 13.8954093,11.492301 13.8480914,11.3550759 L12.1910689,8.83934886 L17.6829591,8.83934886 L19.4820167,11.5837712 L14.2268383,11.5837712 Z" id="Shape"></path>
                <path d="M7.27273685,15.4716981 L4.59690294,15.4716981 C4.32931188,15.4716981 4.1509434,15.709579 4.1509434,16.0663236 C4.1509434,16.4231194 4.32935021,16.6609491 4.59690294,16.6609491 L7.27273685,16.6609491 C7.54032791,16.6609491 7.7186964,16.4230683 7.7186964,16.0663236 C7.7186964,15.709579 7.54032791,15.4716981 7.27273685,15.4716981 Z" id="Shape"></path>
                <path d="M6.05375317,16.9811321 L4.62663562,16.9811321 C4.34120393,16.9811321 4.1509434,17.2190129 4.1509434,17.5757576 C4.1509434,17.9325022 4.34124481,18.1703831 4.62663562,18.1703831 L6.05375317,18.1703831 C6.33918486,18.1703831 6.5294454,17.9325022 6.5294454,17.5757576 C6.5294454,17.2190129 6.33918486,16.9811321 6.05375317,16.9811321 Z" id="Shape"></path>
                <path d="M15.2874197,4.13914285 C15.1908464,3.88500454 14.9493925,3.73251282 14.6596311,3.78331427 C14.4181771,3.88496086 14.2732965,4.1899443 14.3698698,4.4440826 C14.5147504,4.90155776 14.5630578,5.35898924 14.5630578,5.8164644 C14.5630578,6.12144783 14.5147504,6.42643127 14.4664845,6.73137103 C14.4181771,6.98550934 14.5630578,7.29049277 14.8528192,7.34133791 C14.9011266,7.34133791 14.9011266,7.34133791 14.9493925,7.34133791 C15.1908464,7.34133791 15.3840345,7.18884619 15.4323004,6.93470788 C15.4806078,6.57892299 15.5288736,6.17224929 15.5288736,5.8164644 C15.5288736,5.25738633 15.4323004,4.69826459 15.2874197,4.13914285 Z" id="Shape"></path>
                <path d="M11.9846187,0.513926612 C11.3197209,0.186900655 10.5598492,0 9.75247033,0 C6.85542405,0 4.52830189,2.28930215 4.52830189,5.13926612 C4.52830189,5.46629208 4.57580917,5.84009339 4.62327564,6.16711934 C4.67078292,6.40071505 4.86073042,6.5408805 5.0981852,6.5408805 C5.14569248,6.5408805 5.14569248,6.5408805 5.19315895,6.5408805 C5.43061373,6.4941453 5.62060204,6.2605496 5.57309476,5.98021869 C5.52558748,5.69988778 5.47812101,5.41955688 5.47812101,5.13926612 C5.47812101,2.80322877 7.37780008,0.934422972 9.75242952,0.934422972 C10.4173274,0.934422972 11.034718,1.07458843 11.6046421,1.35491933 C11.8420969,1.44834958 12.127059,1.35491933 12.2220327,1.12132363 C12.3170065,0.887727921 12.2220735,0.607356864 11.9846187,0.513926612 Z" id="Shape"></path>
                <path d="M14.8656536,2.02951698 C14.6826741,1.83921761 14.4082637,1.83921761 14.2252842,2.02951698 L10.8862517,5.50212285 L9.83420782,4.40799343 C9.65122829,4.21769406 9.37681796,4.21769406 9.19383842,4.40799343 C9.01085889,4.59829281 9.01085889,4.88368055 9.19383842,5.07397992 L10.5660473,6.50108214 C10.6575174,6.59621139 10.7947423,6.64379646 10.8862124,6.64379646 C10.9776825,6.64379646 11.1149073,6.59621139 11.2064167,6.50108214 L14.8656536,2.69546259 C15.0485938,2.5052041 15.0485938,2.21977548 14.8656536,2.02951698 Z" id="Shape"></path>
            </g>
        </g>
    </g>
</svg>