<?xml version="1.0" encoding="UTF-8"?>
<svg width="24px" height="19px" viewBox="0 0 24 19" version="1.1" xmlns="http://www.w3.org/2000/svg" xmlns:xlink="http://www.w3.org/1999/xlink">
    <!-- Generator: Sketch 48.1 (47250) - http://www.bohemiancoding.com/sketch -->
    <title>Group 14</title>
    <desc>Created with Sketch.</desc>
    <defs></defs>
    <g id="Icons" stroke="none" stroke-width="1" fill="none" fill-rule="evenodd">
        <g id="Group-14" transform="translate(3.000000, 2.000000)" stroke="#57E446">
            <path d="M3.49333004,7.6306351 C3.23613671,6.92502509 3.1015625,6.17200627 3.1015625,5.4 C3.1015625,1.87061603 5.90489847,-1 9.375,-1 C12.8451015,-1 15.6484375,1.87061603 15.6484375,5.4 C15.6484375,6.13775858 15.5255495,6.85827993 15.2900494,7.53679854 C15.8528263,7.76965426 16.3674055,8.05821643 16.8321897,8.40298128 C18.7096501,9.79563239 19.6736916,12.0177757 19.74967,14.97431 L19.7760286,16 L-1.07664767,16 L-0.997279109,14.9262818 C-0.786105271,12.0694681 0.211710599,9.90622734 2.01632929,8.51176404 C2.46626794,8.16408786 2.9591022,7.87039593 3.49333004,7.6306351 Z" id="Combined-Shape" stroke-width="2"></path>
            <path d="M6.74808466,11 L11.2509577,11 L11.625,11 L11.625,11.7480847 L11.2509577,11.7480847 L6.37404233,11.7480847 L6,11.7480847 L6,11 L6,10.8005108 L6,8.19948924 L6,8 L6.74808466,8 L6.74808466,8.19948924 L6.74808466,10.8005108 L6.74808466,11 Z" id="Combined-Shape" fill="#57E446" stroke-linecap="square" transform="translate(8.812500, 9.874042) rotate(-45.000000) translate(-8.812500, -9.874042) "></path>
        </g>
    </g>
</svg>