<?xml version="1.0" encoding="UTF-8"?>
<svg width="15px" height="19px" viewBox="0 0 15 19" version="1.1" xmlns="http://www.w3.org/2000/svg" xmlns:xlink="http://www.w3.org/1999/xlink">
    <!-- Generator: Sketch 48.1 (47250) - http://www.bohemiancoding.com/sketch -->
    <title>notification</title>
    <desc>Created with Sketch.</desc>
    <defs></defs>
    <g id="Icons" stroke="none" stroke-width="1" fill="none" fill-rule="evenodd">
        <g id="notification" transform="translate(1.000000, 1.000000)" fill="#728EAA" fill-rule="nonzero" stroke="#728EAA" stroke-width="0.3">
            <path d="M13.7631939,14.3234496 L12.5767397,12.2382819 C12.0297879,11.2758522 11.7404175,10.1742542 11.7404175,9.0515162 L11.7404175,7.22497951 C11.7404175,4.41343877 9.57125639,2.125 6.90625839,2.125 C4.24126039,2.125 2.07209931,4.41343877 2.07209931,7.22497951 L2.07209931,9.0515162 C2.07209931,10.1742542 1.78272892,11.2758522 1.23577713,12.2382819 L0.0493229352,14.3234496 C-0.0149024645,14.4356381 -0.0162944465,14.5762749 0.0444995559,14.6899318 C0.105973363,14.8043059 0.221281264,14.875 0.345588489,14.875 L13.4668959,14.875 C13.5912032,14.875 13.7065434,14.8043401 13.7679849,14.6899318 C13.8287789,14.5762407 13.8274193,14.4356381 13.7631939,14.3234496 Z M1.38396143,13.7397754 L2.19337001,12.316571 C2.76116363,11.3186451 3.061087,10.176044 3.061087,9.0117971 L3.061087,7.31679989 C3.061087,5.07957979 4.78564637,3.26019047 6.90625839,3.26019047 C9.02687041,3.26019047 10.7514298,5.07957979 10.7514298,7.31679989 L10.7514298,9.0117971 C10.7514298,10.176044 11.0513532,11.3186451 11.6185159,12.316571 L12.4285554,13.7397754 L1.38396143,13.7397754 Z" id="Shape"></path>
            <path d="M6.90625,0 C6.02729129,0 5.3125,0.635375 5.3125,1.41667773 L5.3125,2.83335547 C5.3125,3.02882227 5.49101106,3.1875 5.71094684,3.1875 C5.93088262,3.1875 6.10939368,3.02882227 6.10939368,2.83332227 L6.10939368,1.41667773 C6.10939368,1.02567773 6.46637844,0.708355469 6.90625,0.708355469 C7.34612156,0.708355469 7.70310632,1.02567773 7.70310632,1.41667773 L7.70310632,2.83335547 C7.70310632,3.02882227 7.88161738,3.1875 8.10155316,3.1875 C8.32148894,3.1875 8.5,3.02882227 8.5,2.83332227 L8.5,1.41667773 C8.5,0.635375 7.78520871,0 6.90625,0 Z" id="Shape"></path>
            <path d="M8.28460254,14.0088765 C8.19475155,13.819204 8.00038305,13.7570384 7.84810233,13.8662019 C7.69579175,13.9777937 7.64483237,14.2224588 7.73402622,14.4121312 C7.8168576,14.5882796 7.86211168,14.799471 7.86211168,15.0074867 C7.86211168,15.6666143 7.43325836,16.2029798 6.90625,16.2029798 C6.37924164,16.2029798 5.95038832,15.6666143 5.95038832,15.0074867 C5.95038832,14.799471 5.9956424,14.5882796 6.07847378,14.4121312 C6.16704034,14.2216369 6.11608097,13.9777563 5.96439767,13.8662019 C5.81083251,13.757001 5.6170913,13.8191667 5.52789746,14.0088765 C5.38705721,14.3101407 5.3125,14.6552272 5.3125,15.0075241 C5.31252987,16.1065558 6.02685725,17 6.90562272,17 C7.78438818,17 8.49871556,16.1065558 8.5,15.0075241 C8.5,14.6552272 8.42544279,14.3101407 8.28460254,14.0088765 Z" id="Shape"></path>
        </g>
    </g>
</svg>