<?xml version="1.0" encoding="UTF-8"?>
<svg width="13px" height="14px" viewBox="0 0 13 14" version="1.1" xmlns="http://www.w3.org/2000/svg" xmlns:xlink="http://www.w3.org/1999/xlink">
    <!-- Generator: Sketch 48.1 (47250) - http://www.bohemiancoding.com/sketch -->
    <title>stop</title>
    <desc>Created with Sketch.</desc>
    <defs></defs>
    <g id="Icons" stroke="none" stroke-width="1" fill="none" fill-rule="evenodd">
        <g id="stop" transform="translate(0.800000, 1.000000)" fill="#728EAA" fill-rule="nonzero" stroke="#728EAA" stroke-width="0.3">
            <path d="M5.95618182,0 C2.672,0 0,2.67181818 0,5.95618182 C0,9.24054545 2.67181818,11.9123636 5.95618182,11.9123636 C9.24054545,11.9123636 11.9123636,9.24054545 11.9123636,5.95618182 C11.9123636,2.67181818 9.24036364,0 5.95618182,0 Z M1.09090909,5.95618182 C1.09090909,3.27345455 3.27345455,1.09090909 5.95618182,1.09090909 C7.16490909,1.09090909 8.27145455,1.53509091 9.12327273,2.26763636 L2.26763636,9.12327273 C1.53509091,8.27145455 1.09090909,7.16490909 1.09090909,5.95618182 Z M5.95618182,10.8214545 C4.87472727,10.8214545 3.87490909,10.4663636 3.06618182,9.86727273 L9.86709091,3.06636364 C10.4661818,3.87509091 10.8212727,4.87490909 10.8212727,5.95636364 C10.8214545,8.63890909 8.63890909,10.8214545 5.95618182,10.8214545 Z" id="Shape"></path>
        </g>
    </g>
</svg>