<?xml version="1.0" encoding="UTF-8"?>
<svg width="18px" height="16px" viewBox="0 0 18 16" version="1.1" xmlns="http://www.w3.org/2000/svg" xmlns:xlink="http://www.w3.org/1999/xlink">
    <!-- Generator: Sketch 48.1 (47250) - http://www.bohemiancoding.com/sketch -->
    <title>calendar</title>
    <desc>Created with Sketch.</desc>
    <defs></defs>
    <g id="company_dashboard" stroke="none" stroke-width="1" fill="none" fill-rule="evenodd" transform="translate(-1240.000000, -119.000000)">
        <path d="M1247.6507,121.891566 L1250.08424,121.891566 C1250.51007,121.891566 1250.85533,121.546313 1250.85533,121.120482 C1250.85533,120.694651 1250.51007,120.349398 1250.08424,120.349398 L1247.6507,120.349398 C1247.22487,120.349398 1246.87961,120.694651 1246.87961,121.120482 C1246.87961,121.546313 1247.22487,121.891566 1247.6507,121.891566 L1247.6507,121.891566 Z M1241.54217,133.457831 L1256.19277,133.457831 L1256.19277,126.518072 L1241.54217,126.518072 L1241.54217,133.457831 Z M1257.73494,121.191807 L1257.73494,134.228916 C1257.73494,134.654747 1257.38969,135 1256.96386,135 L1240.77108,135 C1240.34525,135 1240,134.654747 1240,134.228916 L1240,121.191807 C1240,120.765976 1240.34525,120.349398 1240.77108,120.349398 L1242.5733,120.349398 C1242.99913,120.349398 1243.34439,120.694651 1243.34439,121.120482 C1243.34439,121.546313 1242.99913,121.891566 1242.5733,121.891566 L1241.54217,121.891566 L1241.54217,125.168675 L1256.19277,125.168675 L1256.19277,121.891566 L1255.16145,121.891566 C1254.73561,121.891566 1254.39036,121.546313 1254.39036,121.120482 C1254.39036,120.694651 1254.73561,120.349398 1255.16145,120.349398 L1256.96386,120.349398 C1257.38969,120.349398 1257.73494,120.765976 1257.73494,121.191807 L1257.73494,121.191807 Z M1252.53012,123.396337 C1253.06236,123.396337 1253.49398,122.964723 1253.49398,122.432482 L1253.49398,119.963855 C1253.49398,119.431614 1253.06236,119 1252.53012,119 C1251.99769,119 1251.56627,119.431614 1251.56627,119.963855 L1251.56627,122.432482 C1251.56627,122.964723 1251.99769,123.396337 1252.53012,123.396337 L1252.53012,123.396337 Z M1244.24096,122.432482 L1244.24096,119.963855 C1244.24096,119.431614 1244.67239,119 1245.20482,119 C1245.73706,119 1246.16867,119.431614 1246.16867,119.963855 L1246.16867,122.432482 C1246.16867,122.964723 1245.73706,123.396337 1245.20482,123.396337 C1244.67239,123.396337 1244.24096,122.964723 1244.24096,122.432482 L1244.24096,122.432482 Z" id="calendar" fill="#ffffff"></path>
    </g>
</svg>