<?xml version="1.0" encoding="UTF-8"?>
<svg width="88px" height="100px" viewBox="0 0 88 100" version="1.1" xmlns="http://www.w3.org/2000/svg" xmlns:xlink="http://www.w3.org/1999/xlink">
    <!-- Generator: Sketch 45.1 (43504) - http://www.bohemiancoding.com/sketch -->
    <title>startup (1)</title>
    <desc>Created with Sketch.</desc>
    <defs></defs>
    <g id="Page-4" stroke="none" stroke-width="1" fill="none" fill-rule="evenodd">
        <g id="cloudathon" transform="translate(-676.000000, -1950.000000)" fill-rule="nonzero">
            <g id="Group-16" transform="translate(598.000000, 1950.000000)">
                <g id="startup-(1)" transform="translate(78.000000, 0.000000)">
                    <rect id="Rectangle-path" fill="#E64C3D" x="2.45918367" y="69.1020408" width="82.877551" height="13.5714286"></rect>
                    <path d="M43.6428571,89.5714286 C42.622449,89.5714286 41.7857143,90.4081633 41.7857143,91.4285714 L41.7857143,96.2040816 L25.8061224,96.2040816 C24.7857143,96.2040816 23.9489796,97.0408163 23.9489796,98.0612245 C23.9489796,99.0816327 24.7857143,99.9183673 25.8061224,99.9183673 L61.4795918,99.9183673 C62.5,99.9183673 63.3367347,99.0816327 63.3367347,98.0612245 C63.3367347,97.0408163 62.5,96.2040816 61.4795918,96.2040816 L45.5,96.2040816 L45.5,91.4285714 C45.5,90.3877551 44.6632653,89.5714286 43.6428571,89.5714286 Z" id="Shape" fill="#2C2F33"></path>
                    <path d="M4.54081633,84.5102041 L82.7244898,84.5102041 C85.1938776,84.5102041 87.1938776,82.5102041 87.1938776,80.0408163 L87.1938776,26.2244898 C87.1938776,23.755102 85.1938776,21.755102 82.7244898,21.755102 L60.8469388,21.755102 C59.8265306,21.755102 58.9897959,22.5918367 58.9897959,23.6122449 C58.9897959,24.6326531 59.8265306,25.4693878 60.8469388,25.4693878 L82.7244898,25.4693878 C83.1530612,25.4693878 83.5,25.8163265 83.5,26.244898 L83.5,80.0816327 C83.5,80.5102041 83.1530612,80.8571429 82.7244898,80.8571429 L4.54081633,80.8571429 C4.1122449,80.8571429 3.76530612,80.5102041 3.76530612,80.0816327 L3.76530612,71.122449 L77.5204082,71.122449 C78.5408163,71.122449 79.377551,70.2857143 79.377551,69.2653061 C79.377551,68.244898 78.5408163,67.4081633 77.5204082,67.4081633 L68.1938776,67.4081633 C67.4183673,62.0408163 62.7857143,57.8979592 57.2142857,57.8979592 C56.1938776,57.8979592 55.3571429,58.7346939 55.3571429,59.755102 C55.3571429,60.7755102 56.1938776,61.6122449 57.2142857,61.6122449 C60.744898,61.6122449 63.7040816,64.1020408 64.4387755,67.4081633 L55.9897959,67.4081633 C55.2755102,61.7142857 50.744898,57.1836735 45.0510204,56.4489796 L45.0510204,43.5714286 C45.0510204,42.5510204 44.2142857,41.7142857 43.1938776,41.7142857 C42.1734694,41.7142857 41.3367347,42.5510204 41.3367347,43.5714286 L41.3367347,56.5306122 C35.8673469,57.4489796 31.5816327,61.877551 30.8673469,67.4081633 L22.377551,67.4081633 C23.1122449,64.1020408 26.0714286,61.6122449 29.6020408,61.6122449 C30.622449,61.6122449 31.4591837,60.7755102 31.4591837,59.755102 C31.4591837,58.7346939 30.622449,57.8979592 29.6020408,57.8979592 C24.0306122,57.8979592 19.3979592,62.0408163 18.622449,67.4081633 L2.82653061,67.4081633 C2.56122449,67.2653061 2.25510204,67.1632653 1.92857143,67.1632653 C0.908163265,67.1632653 0.0714285714,68 0.0714285714,69.0204082 L0.0714285714,80.0612245 C0.0918367347,82.5102041 2.09183673,84.5102041 4.54081633,84.5102041 Z M43.4591837,60.0204082 C47.8469388,60.0204082 51.5204082,63.2040816 52.2755102,67.3877551 L34.6632653,67.3877551 C35.3979592,63.2040816 39.0510204,60.0204082 43.4591837,60.0204082 Z" id="Shape" fill="#2C2F33"></path>
                    <path d="M1.92857143,63.3673469 C2.94897959,63.3673469 3.78571429,62.5306122 3.78571429,61.5102041 L3.78571429,26.2040816 C3.78571429,25.7755102 4.13265306,25.4285714 4.56122449,25.4285714 L26.5,25.4285714 C27.5204082,25.4285714 28.3571429,24.5918367 28.3571429,23.5714286 C28.3571429,22.5510204 27.5204082,21.7142857 26.5,21.7142857 L4.54081633,21.7142857 C2.07142857,21.7142857 0.0714285714,23.7142857 0.0714285714,26.1836735 L0.0714285714,61.4897959 C0.0918367347,62.5510204 0.908163265,63.3673469 1.92857143,63.3673469 Z" id="Shape" fill="#2C2F33"></path>
                    <circle id="Oval" fill="#2C2F33" cx="43.4795918" cy="76.2040816" r="2.14285714"></circle>
                    <path d="M27.0918367,46.4693878 C27.0918367,47.4897959 27.9285714,48.3265306 28.9489796,48.3265306 L32.744898,48.3265306 L32.744898,52.6122449 C32.744898,53.6326531 33.5816327,54.4693878 34.6020408,54.4693878 C35.622449,54.4693878 36.4591837,53.6326531 36.4591837,52.6122449 L36.4591837,48.3265306 L36.7040816,48.3265306 C37.7244898,48.3265306 38.5612245,47.4897959 38.5612245,46.4693878 C38.5612245,45.4489796 37.7244898,44.6122449 36.7040816,44.6122449 L30.7857143,44.6122449 L30.7857143,42.5510204 C30.7857143,41.8571429 30.9897959,41.1836735 31.3979592,40.6122449 L34.744898,35.8163265 C35.5408163,34.6734694 35.9693878,33.3265306 35.9693878,31.9183673 L35.9693878,15.8571429 C35.9693878,14.3469388 36.5204082,12.877551 37.5,11.7346939 L43.5204082,4.69387755 L49.5612245,11.7142857 C50.5612245,12.877551 51.1122449,14.3469388 51.1122449,15.8571429 L51.1122449,32.0204082 C51.1122449,33.3061224 51.4795918,34.5714286 52.1734694,35.6734694 L55.2959184,40.5918367 C55.6428571,41.1428571 55.8265306,41.755102 55.8265306,42.4081633 L55.8265306,44.5918367 L50.2142857,44.5918367 C49.1938776,44.5918367 48.3571429,45.4285714 48.3571429,46.4489796 C48.3571429,47.4081633 49.0714286,48.1632653 49.9897959,48.2857143 L49.9897959,52.5918367 C49.9897959,53.6122449 50.8265306,54.4489796 51.8469388,54.4489796 C52.8673469,54.4489796 53.7040816,53.6122449 53.7040816,52.5918367 L53.7040816,48.3061224 L57.6632653,48.3061224 C58.6836735,48.3061224 59.5204082,47.4693878 59.5204082,46.4489796 L59.5204082,42.4081633 C59.5204082,41.0612245 59.1326531,39.755102 58.4183673,38.6122449 L55.2959184,33.6938776 C54.9693878,33.1836735 54.8061224,32.6122449 54.8061224,32.0204082 L54.8061224,15.877551 C54.8061224,13.4693878 53.9285714,11.1428571 52.3571429,9.30612245 L44.8877551,0.632653061 C44.5408163,0.224489796 44.0306122,0 43.4795918,0 C42.9489796,0 42.4183673,0.244897959 42.0714286,0.653061224 L34.6632653,9.32653061 C33.1122449,11.1428571 32.255102,13.4693878 32.255102,15.8571429 L32.255102,31.9387755 C32.255102,32.5714286 32.0714286,33.2040816 31.7040816,33.7142857 L28.3571429,38.5102041 C27.5204082,39.7142857 27.0918367,41.1020408 27.0918367,42.5714286 L27.0918367,46.4693878 L27.0918367,46.4693878 Z" id="Shape" fill="#2C2F33"></path>
                </g>
            </g>
        </g>
    </g>
</svg>