<?xml version="1.0" encoding="UTF-8"?>
<svg width="129px" height="100px" viewBox="0 0 129 100" version="1.1" xmlns="http://www.w3.org/2000/svg" xmlns:xlink="http://www.w3.org/1999/xlink">
    <!-- Generator: Sketch 45.1 (43504) - http://www.bohemiancoding.com/sketch -->
    <title>network</title>
    <desc>Created with Sketch.</desc>
    <defs></defs>
    <g id="Page-4" stroke="none" stroke-width="1" fill="none" fill-rule="evenodd">
        <g id="cloudathon" transform="translate(-343.000000, -1950.000000)" fill-rule="nonzero">
            <g id="Group-15" transform="translate(286.000000, 1950.000000)">
                <g id="network" transform="translate(57.000000, 0.000000)">
                    <path d="M22.1663317,25.7869347 C1.52763819,25.7869347 3.8160804,50.8849246 3.91030151,69.0726131 C3.9138191,69.7595477 4.27361809,70.3786432 4.8620603,70.7334171 C7.14899497,72.1120603 13.4298995,75.3354271 22.1663317,75.3354271 C30.9027638,75.3354271 37.1836683,72.1120603 39.470603,70.7334171 C40.058794,70.3786432 40.4188442,69.7595477 40.4223618,69.0726131 C40.5165829,50.8849246 42.8050251,25.7869347 22.1663317,25.7869347 Z" id="Shape" fill="#694B4B"></path>
                    <path d="M20.8366834,25.8386935 C1.6419598,26.9148241 3.81834171,51.2896985 3.91030151,69.0726131 C3.9138191,69.7595477 4.27361809,70.3788945 4.8620603,70.7334171 C7.14899497,72.1120603 13.4298995,75.3354271 22.1663317,75.3354271 L27.3821608,38.8258794" id="Shape" fill="#5A4146"></path>
                    <path d="M22.1663317,25.7869347 C10.4311558,25.7869347 9.61633166,39.9668342 9.61633166,39.9668342 C16.380402,38.8258794 20.5366834,41.6781407 27.3821608,38.8258794 L22.1663317,75.3354271 C30.9030151,75.3354271 37.1836683,72.1120603 39.470603,70.7334171 C40.058794,70.3786432 40.4188442,69.7595477 40.4223618,69.0726131 C40.5165829,50.8849246 42.8050251,25.7869347 22.1663317,25.7869347 Z" id="Shape" fill="#694B4B"></path>
                    <path d="M40.4223618,69.0726131 C40.5032663,53.4442211 42.1904523,32.7281407 29.5723618,27.2035176 C29.3522613,28.3467337 28.9535176,31.5384422 29.9896985,33.6100503 C32.5974874,38.8258794 35.2055276,38.8258794 37.8130653,42.7374372 C40.4208543,57.080402 32.830402,72.3037688 30.3092965,74.3763819 L30.3092965,74.3763819 C34.7761307,73.3140704 37.9781407,71.6329146 39.470603,70.7334171 C40.058794,70.3788945 40.4188442,69.7595477 40.4223618,69.0726131 Z" id="Shape" fill="#785550"></path>
                    <path d="M41.9256281,73.028392 L30.2907035,68.1806533 C29.3190955,67.7758794 28.6859296,66.8263819 28.6859296,65.7733668 L28.6859296,62.6223618 L15.6469849,62.6223618 L15.6469849,65.7733668 C15.6469849,66.8263819 15.0138191,67.7758794 14.0422111,68.1806533 L2.40728643,73.028392 C0.949497487,73.6359296 0,75.0603015 0,76.6394472 L0,81.8552764 C0,83.2954774 1.16758794,84.4630653 2.60778894,84.4630653 L41.7248744,84.4630653 C43.1650754,84.4630653 44.3326633,83.2954774 44.3326633,81.8552764 L44.3326633,76.6394472 C44.3329146,75.0603015 43.3834171,73.6359296 41.9256281,73.028392 Z" id="Shape" fill="#E6AF78"></path>
                    <path d="M41.9256281,73.028392 L30.6761307,68.3409548 L22.1663317,72.0138191 L13.6565327,68.341206 L2.40728643,73.0286432 C0.949497487,73.6359296 0,75.0603015 0,76.6394472 L0,81.8552764 C0,83.2954774 1.16758794,84.4630653 2.60778894,84.4630653 L41.7248744,84.4630653 C43.1650754,84.4630653 44.3326633,83.2954774 44.3326633,81.8552764 L44.3326633,76.6394472 C44.3329146,75.0603015 43.3834171,73.6359296 41.9256281,73.028392 Z" id="Shape" fill="#EFF2FA"></path>
                    <path d="M28.6859296,62.6223618 L15.6469849,62.6223618 L15.6469849,65.7733668 C15.6469849,66.8263819 15.0138191,67.7758794 14.0422111,68.1806533 L12.2251256,68.9379397 C26.1309045,72.4836683 28.6859296,62.6223618 28.6859296,62.6223618 Z" id="Shape" fill="#D29B6E"></path>
                    <g id="Group" transform="translate(0.000000, 66.080402)" fill="#E4EAF6">
                        <path d="M6.35527638,11.9922111 L1.12160804,7.82914573 C0.420351759,8.54623116 0,9.5160804 0,10.5590452 L0,15.7748744 C0,17.2150754 1.16758794,18.3826633 2.60778894,18.3826633 L7.82361809,18.3826633 L7.82361809,15.0469849 C7.82336683,13.8585427 7.28341709,12.7346734 6.35527638,11.9922111 Z" id="Shape"></path>
                        <path d="M44.3329146,15.7746231 L44.3329146,10.558794 C44.3329146,9.52386935 43.919598,8.56080402 43.2281407,7.84522613 L37.9773869,11.9919598 C37.0494975,12.7341709 36.5092965,13.8580402 36.5092965,15.0464824 L36.5092965,18.3819095 L41.7251256,18.3819095 C43.1653266,18.3824121 44.3329146,17.2148241 44.3329146,15.7746231 Z" id="Shape"></path>
                        <path d="M22.3620603,15.7746231 L21.9708543,15.7746231 C21.358794,15.7746231 20.8625628,15.278392 20.8625628,14.6663317 L20.8625628,5.93643216 L23.4703518,5.93643216 L23.4703518,14.6660804 C23.4703518,15.278392 22.9741206,15.7746231 22.3620603,15.7746231 Z" id="Shape"></path>
                        <path d="M22.1663317,5.93366834 L14.7035176,0.336683417 C14.2243719,-0.0226130653 13.5419598,0.0942211055 13.209799,0.592462312 L11.7351759,2.80427136 L16.3105528,9.20979899 C16.6582915,9.69673367 17.3437186,9.7919598 17.8110553,9.41809045 L22.1663317,5.93366834 Z" id="Shape"></path>
                        <path d="M22.1663317,5.93366834 L29.6291457,0.336683417 C30.1082915,-0.0226130653 30.7907035,0.0942211055 31.1228643,0.592462312 L32.5974874,2.80427136 L28.0221106,9.20979899 C27.6743719,9.69673367 26.9889447,9.7919598 26.521608,9.41809045 L22.1663317,5.93366834 Z" id="Shape"></path>
                    </g>
                    <path d="M28.6859296,37.5223618 C22.1663317,44.0417085 9.3718593,38.8258794 9.3718593,49.2570352 L10.181407,56.9407035 C10.3376884,58.6595477 11.3341709,60.1896985 12.8424623,61.0278894 L20.2665829,65.1522613 C21.4479899,65.8085427 22.8844221,65.8085427 24.0658291,65.1522613 L31.4899497,61.0278894 C32.9987437,60.1896985 33.9949749,58.6592965 34.151005,56.9407035 L35.0856784,47.8150754 C35.1522613,47.1663317 35.1663317,46.5138191 35.1444724,45.8630653 C34.6570352,42.5439698 29.9896985,40.1298995 28.6859296,37.5223618 Z" id="Shape" fill="#F0C087"></path>
                    <path d="M9.3718593,49.2570352 L10.181407,56.9407035 C10.3376884,58.6595477 11.3341709,60.1896985 12.8424623,61.0278894 L20.2665829,65.1522613 C21.0864322,65.6077889 22.0266332,65.7256281 22.921608,65.548995 L22.921608,65.548995 C22.921608,65.548995 19.1786432,64.4145729 16.9507538,58.3841709 C16.2683417,56.5369347 15.3208543,46.7575377 16.1359296,45.5623116 C17.7469849,43.2 26.7301508,42.9545226 29.3844221,38.5718593 C29.2532663,38.4092965 29.1321608,38.2462312 29.021608,38.0831658 C29.0128141,38.0701005 29.0020101,38.0567839 28.9929648,38.0434673 C28.8776382,37.8701005 28.7731156,37.6962312 28.6856784,37.521608 C22.1663317,44.0417085 9.3718593,38.8258794 9.3718593,49.2570352 Z" id="Shape" fill="#E6AF78"></path>
                    <path d="M31.6849246,81.8550251 L28.2947236,81.8550251 C27.070603,81.8550251 26.0781407,82.8474874 26.0781407,84.071608 L26.0781407,84.4628141 L33.9015075,84.4628141 L33.9015075,84.071608 C33.9015075,82.8472362 32.9090452,81.8550251 31.6849246,81.8550251 Z" id="Shape" fill="#E4EAF6"></path>
                    <polygon id="Shape" fill="#E6AF78" points="111.251256 66.9658291 111.251256 59.8045226 92.8359296 59.8045226 92.8359296 66.9658291 102.043467 75.1505025"></polygon>
                    <path d="M125.488191,70.3158291 L112.828643,67.3371859 C112.637437,67.2922111 112.461558,67.2158291 112.297236,67.1233668 L102.043467,73.1047739 L92.1896985,66.8341709 C91.9344221,67.0743719 91.6180905,67.2527638 91.2585427,67.3374372 L78.598995,70.3160804 C76.7502513,70.751005 75.4439698,72.4005025 75.4439698,74.2997487 L75.4439698,82.3123116 C75.4439698,83.4422111 76.3600503,84.3585427 77.490201,84.3585427 L126.597487,84.3585427 C127.727387,84.3585427 128.643719,83.4424623 128.643719,82.3123116 L128.643719,74.2997487 C128.643216,72.4002513 127.336683,70.7507538 125.488191,70.3158291 Z" id="Shape" fill="#EFF2FA"></path>
                    <path d="M92.8359296,59.8045226 L92.8359296,67.3605528 C104.435176,71.5394472 111.251256,61.080402 111.251256,61.080402 L111.251256,59.8045226 L92.8359296,59.8045226 L92.8359296,59.8045226 Z" id="Shape" fill="#D29B6E"></path>
                    <path d="M88.7437186,36.2738693 L89.6354271,55.8876884 C89.7188442,57.7201005 90.6170854,59.4190955 92.0844221,60.519598 L96.3145729,63.6922111 C97.3771357,64.489196 98.669598,64.9198492 99.9974874,64.9198492 L104.089698,64.9198492 C105.417839,64.9198492 106.710302,64.4889447 107.772613,63.6922111 L112.002764,60.519598 C113.470101,59.4190955 114.368593,57.7198492 114.451759,55.8876884 L115.343467,36.2738693 L88.7437186,36.2738693 L88.7437186,36.2738693 Z" id="Shape" fill="#F0C087"></path>
                    <path d="M98.9743719,40.3660804 C103.066583,40.3660804 109.205025,39.3432161 110.661055,36.2738693 L88.7437186,36.2738693 L89.6351759,55.8876884 C89.718593,57.7201005 90.6168342,59.4190955 92.0841709,60.519598 L96.3143216,63.6922111 C97.3768844,64.489196 98.6693467,64.9198492 99.9972362,64.9198492 L102.043467,64.9198492 C99.9972362,64.9198492 95.9050251,60.8276382 95.9050251,55.7120603 C95.9050251,53.2103015 95.9050251,46.5045226 95.9050251,43.4351759 C95.9050251,42.4123116 96.9281407,40.3660804 98.9743719,40.3660804 Z" id="Shape" fill="#E6AF78"></path>
                    <path d="M121.132412,77.7183417 L127.761809,71.7630653 C128.317337,72.4665829 128.643216,73.3515075 128.643216,74.2992462 L128.643216,82.311809 C128.643216,83.4417085 127.727136,84.3580402 126.596985,84.3580402 L119.435678,84.3580402 L119.435678,81.5238693 C119.435678,80.0721106 120.052261,78.6886935 121.132412,77.7183417 Z" id="Shape" fill="#E4EAF6"></path>
                    <polygon id="Shape" fill="#5B5D6E" points="104.601256 84.3580402 99.4856784 84.3580402 100.125377 75.1505025 103.961809 75.1505025"></polygon>
                    <path d="M104.601256,73.1042714 L99.4856784,73.1042714 L99.4856784,73.6952261 C99.4856784,75.0640704 100.595226,76.1733668 101.963819,76.1733668 L102.122613,76.1733668 C103.491457,76.1733668 104.600754,75.0638191 104.600754,73.6952261 L104.600754,73.1042714 L104.601256,73.1042714 Z" id="Shape" fill="#515262"></path>
                    <g id="Group" transform="translate(89.698492, 64.321608)" fill="#E4EAF6">
                        <path d="M2.99346734,0.366834171 L12.3447236,8.78291457 C12.3447236,8.78291457 9.7258794,10.1047739 6.49396985,12.769598 C5.82738693,13.3193467 4.81884422,13.0964824 4.46130653,12.3100503 L0.067839196,2.64472362 L1.45778894,0.560050251 C1.8040201,0.0407035176 2.5298995,-0.0505025126 2.99346734,0.366834171 Z" id="Shape"></path>
                        <path d="M21.6962312,0.366834171 L12.3449749,8.78291457 C12.3449749,8.78291457 14.9638191,10.1047739 18.1957286,12.769598 C18.8623116,13.3193467 19.8708543,13.0964824 20.228392,12.3100503 L24.6218593,2.64472362 L23.2319095,0.560050251 C22.8859296,0.0407035176 22.1600503,-0.0505025126 21.6962312,0.366834171 Z" id="Shape"></path>
                    </g>
                    <path d="M108.245729,29.4959799 L109.205025,36.2738693 C113.583166,37.1494975 114.21407,44.0201005 114.305025,45.9826633 C114.321608,46.3386935 114.435176,46.6829146 114.628392,46.9824121 L116.298995,49.5736181 C116.298995,49.5736181 115.727136,45.2894472 118.345226,42.4123116 C118.344975,42.4123116 119.243719,25.4037688 108.245729,29.4959799 Z" id="Shape" fill="#785550"></path>
                    <path d="M117.325126,49.1361809 L116.169598,53.7575377 C116.032663,54.3050251 115.540704,54.689196 114.976382,54.689196 L114.976382,54.689196 C114.35603,54.689196 113.832915,54.2273869 113.755779,53.611809 L113.165075,48.8851759 C113.007035,47.6211055 113.992714,46.5047739 115.266332,46.5047739 L115.270603,46.5047739 C116.648492,46.5045226 117.659296,47.7994975 117.325126,49.1361809 Z" id="Shape" fill="#F0C087"></path>
                    <path d="M89.7238693,27.6630653 L91.2371859,28.6967337 C84.3954774,33.7482412 85.6741206,42.4123116 85.6741206,42.4123116 C87.7203518,44.4585427 87.7203518,49.5736181 87.7203518,49.5736181 L89.7665829,47.5273869 C89.7665829,47.5273869 88.9768844,41.6165829 92.8359296,39.3429648 C96.4165829,37.2329146 99.5497487,38.3201005 102.746734,38.3201005 C111.314824,38.3201005 113.712814,35.0909548 113.297236,31.158794 C113.082161,29.1238693 109.971106,24.8856784 102.043719,25.0203518 C98.8439698,25.0746231 92.8359296,26.0434673 89.7238693,27.6630653 Z" id="Shape" fill="#694B4B"></path>
                    <path d="M89.1271357,37.4248744 C89.1271357,37.4248744 88.040201,33.1407035 91.2371859,28.6967337 C84.3954774,33.7482412 85.6741206,42.4123116 85.6741206,42.4123116 C87.7203518,44.4585427 87.7203518,49.5736181 87.7203518,49.5736181 L89.7665829,47.5273869 C89.7665829,47.5273869 88.9768844,41.6165829 92.8356784,39.3429648 C96.4163317,37.2329146 99.5494975,38.3201005 102.746482,38.3201005 C104.13995,38.3201005 105.354271,38.2266332 106.43593,38.0668342 C99.8374372,38.288191 95.9477387,33.290201 89.1271357,37.4248744 Z" id="Shape" fill="#5A4146"></path>
                    <path d="M86.7615578,49.1361809 L87.9170854,53.7575377 C88.0540201,54.3050251 88.5459799,54.689196 89.1105528,54.689196 L89.1105528,54.689196 C89.7309045,54.689196 90.2540201,54.2273869 90.3311558,53.611809 L90.9218593,48.8851759 C91.0798995,47.6211055 90.0942211,46.5047739 88.8203518,46.5047739 L88.8160804,46.5047739 C87.4386935,46.5045226 86.4273869,47.7994975 86.7615578,49.1361809 Z" id="Shape" fill="#E6AF78"></path>
                    <path d="M114.320352,82.3120603 L109.204774,82.3120603 C108.074874,82.3120603 107.158543,83.2281407 107.158543,84.3582915 L107.158543,84.3582915 L116.36608,84.3582915 L116.36608,84.3582915 C116.366332,83.2281407 115.450251,82.3120603 114.320352,82.3120603 Z" id="Shape" fill="#E4EAF6"></path>
                    <path d="M64.3605528,0.125628141 C29.2746231,0.125628141 33.1650754,42.7924623 33.3253769,73.7113065 C33.331407,74.8788945 33.9429648,75.9319095 34.9432161,76.5346734 C38.8311558,78.878392 49.5085427,84.3580402 64.3605528,84.3580402 C79.2125628,84.3580402 89.8899497,78.878392 93.7778894,76.5346734 C94.7778894,75.9316583 95.3896985,74.8788945 95.3957286,73.7113065 C95.5560302,42.7922111 99.4464824,0.125628141 64.3605528,0.125628141 Z" id="Shape" fill="#694B4B"></path>
                    <path d="M62.0997487,0.213316583 C29.4688442,2.04271357 33.168593,43.4801508 33.3253769,73.7110553 C33.331407,74.8786432 33.9429648,75.9316583 34.9432161,76.5344221 C38.8311558,78.8781407 49.5085427,84.3577889 64.3605528,84.3577889 L73.2271357,22.2917085" id="Shape" fill="#5A4146"></path>
                    <path d="M64.3605528,0.125628141 C44.410804,0.125628141 43.0253769,24.2316583 43.0253769,24.2316583 C54.5241206,22.2922111 61.5896985,27.1409548 73.2271357,22.2922111 L64.3605528,84.3582915 C79.2125628,84.3582915 89.8899497,78.8786432 93.7778894,76.5349246 C94.7778894,75.9319095 95.3896985,74.8791457 95.3957286,73.7115578 C95.5560302,42.7922111 99.4464824,0.125628141 64.3605528,0.125628141 Z" id="Shape" fill="#694B4B"></path>
                    <path d="M95.3957286,73.7115578 C95.5334171,47.1432161 98.4012563,11.9261307 76.951005,2.53417085 C76.5768844,4.47788945 75.8994975,9.90376884 77.6603015,13.4256281 C82.0937186,22.2922111 86.5268844,22.2922111 90.9600503,28.9422111 C95.3932161,53.3253769 82.489196,79.2052764 78.2035176,82.7281407 L78.2035176,82.7281407 C85.7969849,80.9221106 91.2404523,78.0643216 93.7776382,76.5349246 C94.7778894,75.9319095 95.3896985,74.8791457 95.3957286,73.7115578 Z" id="Shape" fill="#785550"></path>
                    <path d="M97.9512563,80.4364322 L78.1718593,72.1949749 C76.5198492,71.5067839 75.4437186,69.8924623 75.4437186,68.1025126 L75.4437186,62.7457286 L53.2773869,62.7457286 L53.2773869,68.1025126 C53.2773869,69.8922111 52.2012563,71.5065327 50.5492462,72.1949749 L30.7698492,80.4364322 C28.2919598,81.4688442 26.6776382,83.890201 26.6776382,86.5748744 L26.6776382,95.4414573 C26.6776382,97.8896985 28.6625628,99.8748744 31.110804,99.8748744 L97.6100503,99.8748744 C100.058291,99.8748744 102.043216,97.8899497 102.043216,95.4414573 L102.043216,86.5748744 C102.043467,83.8899497 100.429146,81.4688442 97.9512563,80.4364322 Z" id="Shape" fill="#E6AF78"></path>
                    <path d="M97.9512563,80.4364322 L78.8271357,72.4680905 L64.3605528,78.7115578 L49.8939698,72.4680905 L30.7698492,80.4364322 C28.2919598,81.4688442 26.6776382,83.890201 26.6776382,86.5748744 L26.6776382,95.4414573 C26.6776382,97.8896985 28.6625628,99.8748744 31.110804,99.8748744 L97.6100503,99.8748744 C100.058291,99.8748744 102.043216,97.8899497 102.043216,95.4414573 L102.043216,86.5748744 C102.043467,83.8899497 100.429146,81.4688442 97.9512563,80.4364322 Z" id="Shape" fill="#B4E1FA"></path>
                    <path d="M75.4437186,62.7457286 L53.2773869,62.7457286 L53.2773869,68.1025126 C53.2773869,69.8922111 52.2012563,71.5065327 50.5492462,72.1949749 L47.4600503,73.4824121 C71.1,79.509799 75.4437186,62.7457286 75.4437186,62.7457286 Z" id="Shape" fill="#D29B6E"></path>
                    <g id="Group" transform="translate(26.633166, 68.592965)" fill="#A0D2F0">
                        <path d="M10.8487437,20.4183417 L1.95150754,13.341206 C0.759547739,14.5603015 0.0449748744,16.208794 0.0449748744,17.9816583 L0.0449748744,26.8482412 C0.0449748744,29.2964824 2.0298995,31.281407 4.4781407,31.281407 L13.3447236,31.281407 L13.3447236,25.6110553 C13.3442211,23.5909548 12.4261307,21.680402 10.8487437,20.4183417 Z" id="Shape"></path>
                        <path d="M75.4103015,26.8482412 L75.4103015,17.9816583 C75.4103015,16.2223618 74.7075377,14.5851759 73.5321608,13.3688442 L64.6060302,20.4183417 C63.0286432,21.680402 62.1103015,23.5909548 62.1103015,25.6110553 L62.1103015,31.281407 L70.9768844,31.281407 C73.4253769,31.2816583 75.4103015,29.2967337 75.4103015,26.8482412 Z" id="Shape"></path>
                        <path d="M37.7273869,26.8482412 L37.7273869,26.8482412 C36.5032663,26.8482412 35.510804,25.8557789 35.510804,24.6316583 L35.510804,10.1236181 L39.9439698,10.1236181 L39.9439698,24.6319095 C39.9439698,25.8560302 38.9515075,26.8482412 37.7273869,26.8482412 Z" id="Shape"></path>
                        <path d="M37.7273869,10.118593 L25.0404523,0.603266332 C24.2261307,-0.00753768844 23.0655779,0.19120603 22.501005,1.03819095 L19.9942211,4.79849246 L27.7723618,15.6876884 C28.3635678,16.5155779 29.5288945,16.6771357 30.3231156,16.0417085 L37.7273869,10.118593 Z" id="Shape"></path>
                        <path d="M37.7273869,10.118593 L50.4143216,0.603266332 C51.2286432,-0.00753768844 52.389196,0.19120603 52.9537688,1.03819095 L55.4605528,4.79849246 L47.6824121,15.6876884 C47.091206,16.5155779 45.9258794,16.6771357 45.1316583,16.0417085 L37.7273869,10.118593 Z" id="Shape"></path>
                    </g>
                    <path d="M75.4437186,20.0753769 C64.3605528,31.1585427 42.609799,22.2919598 42.609799,40.0251256 L43.9864322,53.0876884 C44.2517588,56.0095477 45.9459799,58.6110553 48.5105528,60.0356784 L61.131407,67.0472362 C63.1399497,68.1630653 65.5819095,68.1630653 67.5904523,67.0472362 L80.2113065,60.0356784 C82.7758794,58.6105528 84.4698492,56.0092965 84.7354271,53.0876884 L86.3243719,37.5738693 C86.4374372,36.4713568 86.4615578,35.3620603 86.4241206,34.2552764 C85.5942211,28.6128141 77.6603015,24.5085427 75.4437186,20.0753769 Z" id="Shape" fill="#F0C087"></path>
                    <path d="M42.609799,40.0251256 L43.9864322,53.0876884 C44.2517588,56.0095477 45.9459799,58.6110553 48.5105528,60.0356784 L61.131407,67.0472362 C62.5251256,67.8213568 64.1233668,68.0221106 65.6447236,67.7218593 L65.6447236,67.7218593 C65.6447236,67.7218593 59.281407,65.7937186 55.4944724,55.5417085 C54.3344221,52.401005 52.7236181,35.7766332 54.1090452,33.7447236 C56.8474874,29.728392 72.1193467,29.3113065 76.6319095,21.860804 C76.408794,21.5841709 76.2030151,21.3072864 76.0150754,21.0296482 C75.9997487,21.0072864 75.9816583,20.9846734 75.9665829,20.9623116 C75.770603,20.6678392 75.5927136,20.3723618 75.4442211,20.0753769 C64.3605528,31.1585427 42.609799,22.2919598 42.609799,40.0251256 Z" id="Shape" fill="#E6AF78"></path>
                    <path d="M82.0937186,95.441206 L73.2271357,95.441206 C72.0030151,95.441206 71.0105528,96.4336683 71.0105528,97.6577889 L71.0105528,99.8743719 L84.3103015,99.8743719 L84.3103015,97.6577889 C84.3103015,96.4336683 83.3178392,95.441206 82.0937186,95.441206 Z" id="Shape" fill="#A0D2F0"></path>
                </g>
            </g>
        </g>
    </g>
</svg>