<?xml version="1.0" encoding="UTF-8"?>
<svg width="30px" height="29px" viewBox="0 0 30 29" version="1.1" xmlns="http://www.w3.org/2000/svg" xmlns:xlink="http://www.w3.org/1999/xlink">
    <!-- Generator: Sketch 48.1 (47250) - http://www.bohemiancoding.com/sketch -->
    <title>Group Copy</title>
    <desc>Created with Sketch.</desc>
    <defs></defs>
    <g id="Icons" stroke="none" stroke-width="1" fill="none" fill-rule="evenodd">
        <g id="Group-Copy" fill="#F3F5F7" fill-rule="nonzero">
            <g id="Group">
                <path d="M2.4,27.608 L2.4,1.90595614 L15.6,8.10367044 L15.6,27.608 L2.4,27.608 Z M1.2,27.608 L1.2,0.206900958 L16.8,7.53147246 L16.8,11.1937583 L28.8,16.8280443 L28.8,27.608 L30,27.608 L30,28.594 L0,28.594 L0,27.608 L1.2,27.608 Z M27.6,27.608 L27.6,17.4002417 L16.8,12.3293847 L16.8,27.608 L27.6,27.608 Z M3.6,6.902 L6,6.902 L6,7.888 L3.6,7.888 L3.6,6.902 Z M3.6,9.86 L6,9.86 L6,10.846 L3.6,10.846 L3.6,9.86 Z M3.6,12.818 L6,12.818 L6,13.804 L3.6,13.804 L3.6,12.818 Z M7.2,9.86 L10.8,9.86 L10.8,10.846 L7.2,10.846 L7.2,9.86 Z M7.2,12.818 L10.8,12.818 L10.8,13.804 L7.2,13.804 L7.2,12.818 Z M12,9.86 L14.4,9.86 L14.4,10.846 L12,10.846 L12,9.86 Z M12,12.818 L14.4,12.818 L14.4,13.804 L12,13.804 L12,12.818 Z M3.6,15.776 L6,15.776 L6,16.762 L3.6,16.762 L3.6,15.776 Z M7.2,15.776 L10.8,15.776 L10.8,16.762 L7.2,16.762 L7.2,15.776 Z M12,15.776 L14.4,15.776 L14.4,16.762 L12,16.762 L12,15.776 Z M3.6,18.734 L6,18.734 L6,19.72 L3.6,19.72 L3.6,18.734 Z M7.2,18.734 L10.8,18.734 L10.8,19.72 L7.2,19.72 L7.2,18.734 Z M12,18.734 L14.4,18.734 L14.4,19.72 L12,19.72 L12,18.734 Z M3.6,21.692 L6,21.692 L6,22.678 L3.6,22.678 L3.6,21.692 Z M7.2,21.692 L10.8,21.692 L10.8,22.678 L7.2,22.678 L7.2,21.692 Z M12,21.692 L14.4,21.692 L14.4,22.678 L12,22.678 L12,21.692 Z M3.6,24.65 L6,24.65 L6,25.636 L3.6,25.636 L3.6,24.65 Z M7.2,24.65 L10.8,24.65 L10.8,25.636 L7.2,25.636 L7.2,24.65 Z M12,24.65 L14.4,24.65 L14.4,25.636 L12,25.636 L12,24.65 Z M18,24.65 L21.6,24.65 L21.6,25.636 L18,25.636 L18,24.65 Z M22.8,24.65 L26.4,24.65 L26.4,25.636 L22.8,25.636 L22.8,24.65 Z M18,21.692 L21.6,21.692 L21.6,22.678 L18,22.678 L18,21.692 Z M22.8,21.692 L26.4,21.692 L26.4,22.678 L22.8,22.678 L22.8,21.692 Z M18,18.734 L21.6,18.734 L21.6,19.72 L18,19.72 L18,18.734 Z M22.8,18.734 L26.4,18.734 L26.4,19.72 L22.8,19.72 L22.8,18.734 Z M18,15.776 L21.6,15.776 L21.6,16.762 L18,16.762 L18,15.776 Z" id="Shape"></path>
            </g>
        </g>
    </g>
</svg>