<?xml version="1.0" encoding="UTF-8"?>
<svg width="26px" height="20px" viewBox="0 0 26 20" version="1.1" xmlns="http://www.w3.org/2000/svg" xmlns:xlink="http://www.w3.org/1999/xlink">
    <!-- Generator: Sketch 48.1 (47250) - http://www.bohemiancoding.com/sketch -->
    <title>personal-card</title>
    <desc>Created with Sketch.</desc>
    <defs></defs>
    <g id="Icons" stroke="none" stroke-width="1" fill="none" fill-rule="evenodd">
        <g id="personal-card" fill="#0093FF" fill-rule="nonzero">
            <path d="M23.5409642,3.09395867 L17.7029059,3.09395867 L17.7029059,3.04224058 C17.7029059,2.1849496 17.0148062,1.49007702 16.1660086,1.49007702 L15.0732745,1.49007702 C15.0410612,0.661656283 14.3660558,0 13.5379141,0 L12.4620859,0 C11.6339442,0 10.9590618,0.661656283 10.9267255,1.49007702 L9.83399144,1.49007702 C8.98519377,1.49007702 8.29709408,2.1849496 8.29709408,3.04224058 L8.29709408,3.09395867 L2.45903577,3.09395867 C1.10312345,3.09395867 0,4.20803959 0,5.57742037 L0,17.5165383 C0,18.8859812 1.10312345,20 2.45903577,20 L23.5409642,20 C24.8968151,20 26,18.8859812 26,17.5165383 L26,5.57742037 C26,4.20803959 24.8967536,3.09395867 23.5409642,3.09395867 Z M13,1.50963428 C13.51775,1.50963428 13.9375074,1.9334991 13.9375074,2.45645405 C13.9375074,2.979409 13.51775,3.40327382 13,3.40327382 C12.48225,3.40327382 12.0624926,2.979409 12.0624926,2.45645405 C12.0624926,1.9334991 12.48225,1.50963428 13,1.50963428 Z M24.1557232,17.5164762 C24.1557232,17.8588835 23.8799423,18.1373416 23.5409642,18.1373416 L2.45903577,18.1373416 C2.12005769,18.1373416 1.84427683,17.8588835 1.84427683,17.5164762 L1.84427683,5.57742037 C1.84427683,5.23507517 2.12005769,4.95655494 2.45903577,4.95655494 L8.33109025,4.95655494 L8.33109025,4.96059057 C8.33109025,5.81788155 9.01918994,6.51275413 9.86798761,6.51275413 L16.1320739,6.51275413 C16.9808715,6.51275413 17.6689712,5.81788155 17.6689712,4.96059057 L17.6689712,4.95655494 L23.5410257,4.95655494 C23.8800653,4.95655494 24.1557846,5.23507517 24.1557846,5.57742037 L24.1557232,17.5164762 Z" id="Shape"></path>
            <path d="M22.0340195,8 L13.2993138,8 C12.949966,8 12.6666667,8.29846667 12.6666667,8.66666667 C12.6666667,9.03486667 12.949966,9.33333333 13.2993138,9.33333333 L22.0340195,9.33333333 C22.383304,9.33333333 22.6666667,9.03486667 22.6666667,8.66666667 C22.6666667,8.29846667 22.3834306,8 22.0340195,8 Z" id="Shape"></path>
            <path d="M22.0340195,11.3333333 L13.2993138,11.3333333 C12.949966,11.3333333 12.6666667,11.6318 12.6666667,12 C12.6666667,12.3681333 12.949966,12.6666667 13.2993138,12.6666667 L22.0340195,12.6666667 C22.383304,12.6666667 22.6666667,12.3681333 22.6666667,12 C22.6666667,11.6317333 22.3834306,11.3333333 22.0340195,11.3333333 Z" id="Shape"></path>
            <path d="M22.0340195,14.6666667 L13.2993138,14.6666667 C12.949966,14.6666667 12.6666667,14.9651333 12.6666667,15.3333333 C12.6666667,15.7014667 12.949966,16 13.2993138,16 L22.0340195,16 C22.383304,16 22.6666667,15.7014667 22.6666667,15.3333333 C22.6666667,14.9650667 22.3834306,14.6666667 22.0340195,14.6666667 Z" id="Shape"></path>
            <path d="M9.52413511,12.919085 L8.42541409,12.4301739 L7.89763706,12 L7.07946988,12.7864723 L7.45600596,15.2190381 C7.45732165,15.227879 7.45500354,15.2370226 7.4494902,15.2443496 L7.02872209,15.8007781 C7.02208102,15.809619 7.01143025,15.8148266 7.00002766,15.8148266 C6.98862507,15.8148266 6.9779743,15.809619 6.97127058,15.8007781 L6.55056512,15.2443496 C6.54505178,15.2370226 6.54273367,15.2279395 6.54404935,15.2190381 L6.92058543,12.7863512 L6.10254356,12 L5.57476653,12.4301739 L4.47598286,12.919085 C4.31340197,12.9834537 4.12168809,13.1141893 4.07244393,13.2518885 C4.07244393,13.2518885 2.87811658,16 3.52587142,16 L10.4741212,16 C11.1218761,16 9.92761138,13.2518885 9.92761138,13.2518885 C9.85694038,13.0883328 9.686716,12.9836353 9.52413511,12.919085 Z" id="Shape"></path>
            <path d="M7.33333525,12 C8.46758188,12 9.3138562,10.9714228 9.33314289,9.24658173 C9.34547372,8.04960124 8.75985416,7.33333333 7.33333525,7.33333333 C5.90681635,7.33333333 5.32107032,8.04960124 5.33352762,9.24658173 C5.35275107,10.9714228 6.19915187,12 7.33333525,12 Z" id="Shape"></path>
        </g>
    </g>
</svg>