<?xml version="1.0" encoding="UTF-8"?>
<svg width="15px" height="17px" viewBox="0 0 15 17" version="1.1" xmlns="http://www.w3.org/2000/svg" xmlns:xlink="http://www.w3.org/1999/xlink">
    <!-- Generator: Sketch 48.1 (47250) - http://www.bohemiancoding.com/sketch -->
    <title>contacts-book-outline copy 2</title>
    <desc>Created with Sketch.</desc>
    <defs></defs>
    <g id="tracking" stroke="none" stroke-width="1" fill="none" fill-rule="evenodd" transform="translate(-34.000000, -349.000000)">
        <g id="contacts-book-outline-copy-2" transform="translate(34.000000, 349.000000)" fill="#d4af3f" fill-rule="nonzero">
            <path d="M0.540657373,9 L2.45932181,9 C2.75738799,9 3,8.79830357 3,8.50011462 C3,8.20221745 2.75757534,8 2.45932181,8 L0.540365948,8 C0.242403847,8 0,8.20209241 0,8.50011462 C-1.47907507e-16,8.79830357 0.242612008,9 0.540657373,9 Z M0.540657373,8.39999583 L2.45903038,8.39999583 C2.53694516,8.39999583 2.60045518,8.4223996 2.60045518,8.50009378 C2.60045518,8.57778797 2.53713251,8.59998333 2.45932181,8.59998333 L0.540657373,8.59998333 C0.462846675,8.59998333 0.399524004,8.57780881 0.399524004,8.50009378 C0.399524004,8.42237876 0.463054837,8.39999583 0.540657373,8.39999583 Z" id="Shape"></path>
            <path d="M3,11.5000834 C3,11.2022132 2.75757702,11 2.45932556,11 L0.540278934,11 C0.242422981,11 0,11.2022966 0,11.5000834 C0,11.7983911 0.242610325,12 0.540674438,12 L2.45932556,12 C2.75738968,12 3,11.7983911 3,11.5000834 Z M0.399542048,11.5000834 C0.399542048,11.42237 0.46307244,11.3999875 0.540674438,11.3999875 L2.45893006,11.3999875 C2.53694838,11.3999875 2.60045795,11.42237 2.60045795,11.5000834 C2.60045795,11.5777968 2.53713572,11.6000125 2.45932556,11.6000125 L0.540674438,11.6000125 C0.46286428,11.6000125 0.399542048,11.577901 0.399542048,11.5000834 Z" id="Shape"></path>
            <path d="M0.540674438,6 L2.45932556,6 C2.45953372,6 2.45974188,6 2.45992923,6 C2.7576811,6 3,5.7973908 3,5.5 C3,5.2024008 2.7576811,5 2.45932556,5 L0.540174854,5 C0.242318901,5 0,5.2024008 0,5.5 C2.08159867e-05,5.7973908 0.242339717,6 0.540674438,6 Z M0.540674438,5.3999875 L2.45882598,5.3999875 C2.53692756,5.3999875 2.60045795,5.4222866 2.60045795,5.49997916 C2.60045795,5.57748416 2.53692756,5.59997082 2.45893006,5.59997082 L0.541278102,5.59997082 C0.46317652,5.59997082 0.399542048,5.57756752 0.399542048,5.49997916 C0.399542048,5.4223908 0.46317652,5.3999875 0.540674438,5.3999875 Z" id="Shape"></path>
            <path d="M12.5040439,0 L3.48790823,0 C2.25556395,0 1,1.25020437 1,2.51490451 L1,3.85480304 C1,3.98708633 1.15038077,4.07041832 1.27929247,4.07041832 L2.99266071,4.07041832 C3.42478964,4.07041832 3.77643994,4.46489798 3.77643994,4.90832894 C3.77631837,5.35141061 3.42457082,5.74646411 2.99253914,5.74646411 L1.27929247,5.74646411 C1.15050234,5.74646411 1,5.80991119 1,5.94219449 L1,7.58101534 C1,7.71329863 1.15038077,7.7816608 1.27929247,7.7816608 L2.99266071,7.7816608 C3.42478964,7.7816608 3.77643994,8.17626521 3.77643994,8.61972112 C3.77643994,9.06267804 3.42469239,9.45773154 2.99266071,9.45773154 L1.27929247,9.45773154 C1.15050234,9.45773154 1,9.53579915 1,9.66805749 L1,11.0586039 C1,11.1909121 1.15038077,11.253486 1.27929247,11.253486 L2.99266071,11.253486 C3.42478964,11.253486 3.77643994,11.6480904 3.77643994,12.0915463 C3.77643994,12.5345032 3.42469239,12.9295567 2.99266071,12.9295567 L1.27929247,12.9295567 C1.15050234,12.9295567 1,13.0133628 1,13.145671 L1,14.4852951 C1,15.7498954 2.25556395,17 3.48790823,17 L12.5040439,17 C13.7367286,17 15,15.7498954 15,14.4852951 L15,2.51490451 C15.0000243,1.25020437 13.7368501,0 12.5040439,0 Z M14.5333455,14.4852951 C14.5333455,15.4892709 13.4827468,16.5210906 12.5040439,16.5210906 L3.48790823,16.5210906 C2.5094242,16.5210906 1.46665451,15.4892958 1.46665451,14.4852951 L1.46665451,13.4084163 L2.99278228,13.4084163 C3.68205382,13.4084163 4.24297288,12.7983712 4.24297288,12.0915463 C4.24297288,11.3841226 3.68205382,10.7746265 2.99253914,10.7746265 L1.46665451,10.7746265 L1.46665451,9.93661603 L2.99278228,9.93661603 C3.68217539,9.93661603 4.24297288,9.32642129 4.24297288,8.61974607 C4.24297288,7.91232236 3.68205382,7.30282621 2.99253914,7.30282621 L1.46665451,7.30282621 L1.46665451,6.2253486 L2.99278228,6.2253486 C3.68217539,6.2253486 4.24297288,5.61515386 4.24297288,4.90832894 C4.24297288,4.20090523 3.68205382,3.59155878 2.99253914,3.59155878 L1.46665451,3.59155878 L1.46665451,2.51492946 C1.46665451,1.51085385 2.5094242,0.478884484 3.48790823,0.478884484 L12.5040439,0.478884484 C13.4827468,0.478884484 14.5333455,1.51085385 14.5333455,2.51492946 L14.5333455,14.4852951 Z" id="Shape"></path>
            <path d="M11.3386556,10.6761498 C11.1971902,10.4391492 10.9327774,10.2918558 10.6486003,10.2918558 C10.5097767,10.2918558 10.3727227,10.327377 10.252517,10.3944886 C10.0341129,10.5163408 9.87123817,10.5822708 9.63673351,10.5822708 C9.58038161,10.5822708 9.52011673,10.5782195 9.45793274,10.5702616 C9.12403339,10.5271201 8.66753564,10.0958263 8.29465603,9.47180674 C7.9272845,8.85608267 7.75648415,8.22545562 7.87968072,7.93757272 C8.01972554,7.60826054 8.20747383,7.48363507 8.43841444,7.35495831 C8.81812307,7.1434471 8.94919545,6.67224322 8.73034271,6.30429907 L8.17472442,5.37409343 C8.0356267,5.13989016 7.78556981,5 7.50570448,5 C7.36411441,5 7.2231225,5.03691981 7.09813144,5.1068046 L6.74987619,5.30097725 C6.27942131,5.56387718 6.13446657,6.03274192 6.04798223,6.49965335 C5.86357368,7.47914971 6.21290064,8.74563672 7.05817916,10.1625038 C7.89149443,11.5577641 8.87609499,12.5087085 9.83103666,12.8405768 C10.1406606,12.9479602 10.4065189,13 10.6434412,13 C10.8729362,13 11.078754,12.9498894 11.2553864,12.8512115 L11.60257,12.6570147 C11.9820543,12.4452623 12.1127777,11.9742273 11.8939001,11.6065966 L11.3386556,10.6761498 Z M11.3635292,12.2561779 L11.0161463,12.4504711 C10.782813,12.5809806 10.4570387,12.5658124 9.99266518,12.4047735 C9.15660833,12.1143103 8.23802997,11.2125843 7.47263107,9.93092908 C6.68477616,8.61054542 6.35493934,7.45262339 6.51888573,6.58188494 C6.61072862,6.08639742 6.74252378,5.83958209 6.98899169,5.70200696 L7.33724694,5.50771373 C7.38986032,5.47831775 7.44823103,5.46281191 7.50587895,5.46281191 C7.61387222,5.46281191 7.7065625,5.51441766 7.76037221,5.60513767 L8.31611511,6.53546388 C8.40329731,6.6819615 8.35103285,6.86964726 8.19964787,6.95388038 C7.92192596,7.10869762 7.63420975,7.29857783 7.43758872,7.76097979 C7.25031398,8.19859169 7.41570593,8.92468937 7.88055304,9.70333327 C8.33834682,10.4700162 8.90450772,10.9656484 9.39507582,11.0290463 C9.47832011,11.039681 9.55967023,11.045155 9.63678336,11.045155 C10.0124045,11.045155 10.2650036,10.9218076 10.4915079,10.7954459 C10.5390867,10.7689196 10.5935195,10.754716 10.6485255,10.754716 C10.7622512,10.754716 10.8680014,10.8134115 10.9243034,10.9075558 L11.4795728,11.837665 C11.5668298,11.984042 11.5148145,12.1717519 11.3635292,12.2561779 Z" id="Shape"></path>
        </g>
    </g>
</svg>