<?xml version="1.0" encoding="UTF-8"?>
<svg width="30px" height="24px" viewBox="0 0 30 24" version="1.1" xmlns="http://www.w3.org/2000/svg" xmlns:xlink="http://www.w3.org/1999/xlink">
    <!-- Generator: Sketch 48.1 (47250) - http://www.bohemiancoding.com/sketch -->
    <title>019-online-shop-1 copy 2</title>
    <desc>Created with Sketch.</desc>
    <defs></defs>
    <g id="Icons" stroke="none" stroke-width="1" fill="none" fill-rule="evenodd">
        <g id="019-online-shop-1-copy-2" fill="#7E7E7E" fill-rule="nonzero">
            <ellipse id="Oval" cx="17.9532571" cy="13.1756028" rx="1" ry="1"></ellipse>
            <path d="M24.6025714,0.0549681122 L1.9948,0.0549681122 C0.8644,0.0549681122 0,0.907847704 0,2.02310842 L0,17.7678362 C0,18.8830969 0.8644,19.7359202 1.9948,19.7359202 L9.974,19.7359202 L9.974,21.7040041 C9.974,22.0976321 9.708,22.3600133 9.30908571,22.3600133 L8.64417143,22.3600133 C8.2452,22.3600133 7.97925714,22.6224508 7.97925714,23.0160224 C7.97925714,23.4095941 8.24525714,23.6720316 8.64417143,23.6720316 L15.9584571,23.6720316 C16.3574286,23.6720316 16.6233714,23.4095941 16.6233714,23.0160224 C16.6233714,22.6224508 16.3573714,22.3600133 15.9584571,22.3600133 L11.1709143,22.3600133 C11.2374286,22.1631992 11.3038857,21.9663852 11.3038857,21.7040041 L11.3038857,19.7359202 L11.9688,19.7359202 C12.3677714,19.7359202 12.6337143,19.4734827 12.6337143,19.079911 C12.6337143,18.6863393 12.3677143,18.4239018 11.9688,18.4239018 L1.9948,18.4239018 C1.59582857,18.4239018 1.32988571,18.1614643 1.32988571,17.7678926 L1.32988571,2.02310842 C1.32988571,1.62948036 1.59588571,1.36709923 1.9948,1.36709923 L24.6025714,1.36709923 C25.0015429,1.36709923 25.2674857,1.62953673 25.2674857,2.02310842 L25.2674857,5.95927628 C25.2674857,6.35290434 25.5334857,6.61528546 25.9324,6.61528546 C26.3313143,6.61528546 26.5973143,6.35284796 26.5973143,5.95927628 L26.5973143,2.02310842 C26.5974286,0.907847704 25.7329714,0.0549681122 24.6025714,0.0549681122 Z" id="Shape"></path>
            <path d="M10.6389714,14.4876212 L3.32468571,14.4876212 C2.92571429,14.4876212 2.65977143,14.7500587 2.65977143,15.1436304 C2.65977143,15.537202 2.92577143,15.7996395 3.32468571,15.7996395 L10.6389714,15.7996395 C11.0379429,15.7996395 11.3038857,15.537202 11.3038857,15.1436304 C11.3038857,14.7500587 11.0379429,14.4876212 10.6389714,14.4876212 Z" id="Shape"></path>
            <path d="M23.9376571,7.9273602 C23.1397143,7.9273602 22.3418286,8.12417423 21.6768571,8.45217883 C21.3444,8.58336939 21.2114286,8.97699745 21.3444,9.30500204 C21.4773714,9.63300663 21.8763429,9.76419719 22.2088,9.63300663 C22.7407429,9.37056913 23.3392,9.23937857 23.9376571,9.23937857 C26.1319429,9.23937857 27.9272571,11.0106485 27.9272571,13.1755464 C27.9272571,13.9628026 27.6612571,14.7500023 27.1958286,15.4060679 C26.9963429,15.7340724 27.0628571,16.1277005 27.3288,16.3245145 C27.4617714,16.390138 27.5948,16.4557051 27.7277714,16.4557051 C27.9272571,16.4557051 28.1267429,16.3900816 28.2597143,16.1932676 C28.8581714,15.3404444 29.1906286,14.2908071 29.1906286,13.1755464 C29.2571429,10.2890722 26.8633714,7.9273602 23.9376571,7.9273602 Z" id="Shape"></path>
            <path d="M23.9376571,11.2075189 C23.5386857,11.2075189 23.2727429,11.4699564 23.2727429,11.8635281 L23.2727429,12.5195372 C23.2727429,12.9131653 23.5387429,13.1755464 23.9376571,13.1755464 C24.3365714,13.1755464 24.6025714,12.9131089 24.6025714,12.5195372 L24.6025714,11.8635281 C24.6025714,11.4699 24.3366286,11.2075189 23.9376571,11.2075189 Z" id="Shape"></path>
            <path d="M21.7433714,10.8138908 C20.7459429,9.82982066 19.4161143,9.23943495 17.9532571,9.23943495 C15.0275429,9.23943495 12.6337714,11.6011469 12.6337714,14.4876776 C12.6337714,15.9309429 13.2322286,17.2430176 14.2296,18.2270314 C14.3625714,18.3582219 14.4956,18.4238454 14.6950286,18.4238454 C14.8944571,18.4238454 15.0274857,18.3582219 15.1604571,18.2270314 C15.4264571,17.9645939 15.4264571,17.5710222 15.1604571,17.3085847 C14.3625143,16.5213286 13.9636,15.5373148 13.9636,14.4876776 C13.9636,12.3227796 15.7589143,10.5515097 17.9532,10.5515097 C19.0170857,10.5515097 20.0809714,10.9451378 20.8124,11.7323375 C21.0784,11.994775 21.4773143,11.994775 21.7433143,11.7323375 C22.0093714,11.4699 22.0093714,11.0762719 21.7433714,10.8138908 Z" id="Shape"></path>
            <path d="M21.2779429,13.1756028 C18.3522286,13.1756028 15.9584571,15.5373148 15.9584571,18.4238454 C15.9584571,21.310376 18.3522286,23.672088 21.2779429,23.672088 C24.2036571,23.672088 26.5974286,21.310376 26.5974286,18.4238454 C26.5974286,15.5373148 24.2036571,13.1756028 21.2779429,13.1756028 Z M21.2779429,22.3600133 C19.0836571,22.3600133 17.2883429,20.5887434 17.2883429,18.4238454 C17.2883429,16.2589474 19.0836571,14.4876776 21.2779429,14.4876776 C23.4722286,14.4876776 25.2675429,16.2589474 25.2675429,18.4238454 C25.2675429,20.5887434 23.4722286,22.3600133 21.2779429,22.3600133 Z" id="Shape"></path>
            <path d="M21.2779429,16.4557615 C20.8789714,16.4557615 20.6130286,16.718199 20.6130286,17.1117707 L20.6130286,19.7358638 C20.6130286,20.1294918 20.8790286,20.391873 21.2779429,20.391873 C21.6768571,20.391873 21.9428571,20.1294918 21.9428571,19.7358638 L21.9428571,17.1117707 C21.9428571,16.7181426 21.6768571,16.4557615 21.2779429,16.4557615 Z" id="Shape"></path>
        </g>
    </g>
</svg>