<?xml version="1.0" encoding="UTF-8"?>
<svg width="24px" height="19px" viewBox="0 0 24 19" version="1.1" xmlns="http://www.w3.org/2000/svg" xmlns:xlink="http://www.w3.org/1999/xlink">
    <!-- Generator: Sketch 48.1 (47250) - http://www.bohemiancoding.com/sketch -->
    <title>Group 15</title>
    <desc>Created with Sketch.</desc>
    <defs></defs>
    <g id="Icons" stroke="none" stroke-width="1" fill="none" fill-rule="evenodd">
        <g id="Group-15" transform="translate(3.000000, 2.000000)" stroke="#FB1A1A">
            <path d="M3.49333004,7.6306351 C3.23613671,6.92502509 3.1015625,6.17200627 3.1015625,5.4 C3.1015625,1.87061603 5.90489847,-1 9.375,-1 C12.8451015,-1 15.6484375,1.87061603 15.6484375,5.4 C15.6484375,6.13775858 15.5255495,6.85827993 15.2900494,7.53679854 C15.8528263,7.76965426 16.3674055,8.05821643 16.8321897,8.40298128 C18.7096501,9.79563239 19.6736916,12.0177757 19.74967,14.97431 L19.7760286,16 L-1.07664767,16 L-0.997279109,14.9262818 C-0.786105271,12.0694681 0.211710599,9.90622734 2.01632929,8.51176404 C2.46626794,8.16408786 2.9591022,7.87039593 3.49333004,7.6306351 Z" id="Combined-Shape-Copy-2" stroke-width="2"></path>
            <path d="M9.19372484,9.43127516 L11.2509577,9.43127516 L11.625,9.43127516 L11.625,10.1793598 L11.2509577,10.1793598 L9.19372484,10.1793598 L9.19372484,12.2509577 L9.19372484,12.625 L8.44564018,12.625 L8.44564018,12.2509577 L8.44564018,10.1793598 L6.37404233,10.1793598 L6,10.1793598 L6,9.43127516 L6.37404233,9.43127516 L8.44564018,9.43127516 L8.44564018,7.37404233 L8.44564018,7 L9.19372484,7 L9.19372484,7.37404233 L9.19372484,9.43127516 Z" id="Combined-Shape-Copy" fill="#00D2FF" stroke-linecap="square" transform="translate(8.812500, 9.812500) rotate(45.000000) translate(-8.812500, -9.812500) "></path>
        </g>
    </g>
</svg>