<?xml version="1.0" encoding="UTF-8"?>
<svg width="36px" height="19px" viewBox="0 0 36 19" version="1.1" xmlns="http://www.w3.org/2000/svg" xmlns:xlink="http://www.w3.org/1999/xlink">
    <!-- Generator: Sketch 48.1 (47250) - http://www.bohemiancoding.com/sketch -->
    <title>delivery-truck copy</title>
    <desc>Created with Sketch.</desc>
    <defs></defs>
    <g id="Icons" stroke="none" stroke-width="1" fill="none" fill-rule="evenodd">
        <g id="delivery-truck-copy" fill="#19C48F" fill-rule="nonzero">
            <path d="M35.7959431,9.03208452 L31.0019787,4.51785794 C30.8456266,4.33811958 30.6199371,4.23491235 30.3827048,4.23491235 L26.3907614,4.23491235 L26.3907614,0.829480345 C26.3907614,0.371350844 26.0221191,0 25.5675114,0 L12.564359,0 C12.1097513,0 11.7411089,0.371350844 11.7411089,0.829480345 L11.7411089,1.94873797 L3.82325004,1.94873797 C3.36864231,1.94873797 3,2.32008881 3,2.77821831 C3,3.23634781 3.36864231,3.60769866 3.82325004,3.60769866 L11.7411089,3.60769866 L11.7411089,13.3602819 L6.97499247,13.3602819 C6.52038474,13.3602819 6.15174243,13.7316327 6.15174243,14.1897622 C6.15174243,14.6478917 6.52038474,15.0192426 6.97499247,15.0192426 L11.7411089,15.0192426 L11.7411089,15.8622236 C11.7411089,16.3203531 12.1097513,16.691704 12.564359,16.691704 L14.2826987,16.691704 C14.6447221,18.0205479 15.8534039,19 17.2856766,19 C18.7179492,19 19.9266311,18.0205479 20.2887352,16.691704 L27.2736626,16.691704 C27.635686,18.0204666 28.8443678,18.9999187 30.2766404,18.9999187 C31.7089131,18.9999187 32.9175949,18.0204666 33.279699,16.6916226 L35.17675,16.6916226 C35.6313577,16.6916226 36,16.3202718 36,15.8621423 L36,9.57853794 C35.9999193,9.37757256 35.9273532,9.1832762 35.7959431,9.03208452 Z M17.2856766,17.3410393 C16.4763909,17.3410393 15.8180491,16.677634 15.8180491,15.8622236 C15.8180491,15.0468133 16.4763909,14.383408 17.2856766,14.383408 C18.0949623,14.383408 18.7533847,15.0468133 18.7533847,15.8622236 C18.7533847,16.677634 18.0949623,17.3410393 17.2856766,17.3410393 Z M20.2885737,15.0327433 C19.9265503,13.7038993 18.7177878,12.7244473 17.2855151,12.7244473 C15.8532425,12.7244473 14.6446414,13.7038993 14.2825373,15.0327433 L13.3874476,15.0327433 L13.3874476,1.65887936 L24.7439385,1.65887936 L24.7439385,15.0327433 L20.2885737,15.0327433 Z M30.276479,17.3410393 C29.4671933,17.3410393 28.8088516,16.677634 28.8088516,15.8622236 C28.8088516,15.0468133 29.4671933,14.383408 30.276479,14.383408 C31.0857647,14.383408 31.7441872,15.0468133 31.7441872,15.8622236 C31.7441872,16.677634 31.0858454,17.3410393 30.276479,17.3410393 Z M33.2795376,15.0327433 C32.9175142,13.7038993 31.7087517,12.7244473 30.276479,12.7244473 C28.8442064,12.7244473 27.6356052,13.7038993 27.2735011,15.0327433 L26.3905193,15.0327433 L26.3905193,5.89387304 L30.0092194,5.89387304 L34.3533385,9.89051819 L34.3533385,15.0327433 L33.2795376,15.0327433 Z" id="Shape"></path>
            <path d="M4.21060372,14 L3.78939628,14 C3.35348297,14 3,14.447691 3,15 C3,15.552309 3.35348297,16 3.78939628,16 L4.21060372,16 C4.64651703,16 5,15.552309 5,15 C5,14.447691 4.64659443,14 4.21060372,14 Z" id="Shape"></path>
            <path d="M9.21364081,7 L0.786359185,7 C0.352122992,7 0,7.44769095 0,8 C0,8.55230905 0.352122992,9 0.786359185,9 L9.21364081,9 C9.64787701,9 10,8.55230905 10,8 C10,7.44769095 9.64787701,7 9.21364081,7 Z" id="Shape"></path>
        </g>
    </g>
</svg>