<?xml version="1.0" encoding="UTF-8"?>
<svg width="68px" height="89px" viewBox="0 0 68 89" version="1.1" xmlns="http://www.w3.org/2000/svg" xmlns:xlink="http://www.w3.org/1999/xlink">
    <!-- Generator: Sketch 48.1 (47250) - http://www.bohemiancoding.com/sketch -->
    <title>document-delete</title>
    <desc>Created with Sketch.</desc>
    <defs></defs>
    <g id="dripicons-v2-by-amit-jakhu" stroke="none" stroke-width="1" fill="none" fill-rule="evenodd" transform="translate(-1405.000000, -1572.000000)">
        <path d="M1450.5044,1623.07829 L1443.9304,1629.70329 L1450.5044,1636.32929 C1451.8664,1637.70229 1451.8574,1639.91729 1450.4854,1641.27929 C1449.8024,1641.95629 1448.9114,1642.29429 1448.0204,1642.29429 C1447.1194,1642.29429 1446.2194,1641.94929 1445.5354,1641.26029 L1439.0004,1634.67329 L1432.4644,1641.26029 C1431.7804,1641.94929 1430.8794,1642.29429 1429.9804,1642.29429 C1429.0884,1642.29429 1428.1974,1641.95629 1427.5144,1641.27929 C1426.1424,1639.91729 1426.1334,1637.70229 1427.4954,1636.32929 L1434.0694,1629.70329 L1427.4954,1623.07829 C1426.1334,1621.70529 1426.1424,1619.49029 1427.5144,1618.12829 C1428.8874,1616.76729 1431.1034,1616.77629 1432.4644,1618.14729 L1439.0004,1624.73429 L1445.5354,1618.14729 C1446.8974,1616.77629 1449.1134,1616.76629 1450.4854,1618.12829 C1451.8574,1619.49029 1451.8664,1621.70529 1450.5044,1623.07829 L1450.5044,1623.07829 Z M1413.0004,1652.98829 L1413.0004,1580.98829 L1437.0004,1580.98829 L1437.0004,1604.90829 C1437.0004,1607.11729 1438.6974,1608.98829 1440.9064,1608.98829 L1465.0004,1608.98829 L1465.0004,1652.98829 L1413.0004,1652.98829 Z M1464.9914,1600.98829 L1445.0004,1600.98829 L1445.0004,1580.98829 L1445.1784,1580.98829 L1464.9914,1600.98829 Z M1471.8364,1596.44529 L1449.6774,1574.16729 C1448.9264,1573.41229 1447.9054,1572.98829 1446.8414,1572.98829 L1409.0004,1572.98829 C1406.7914,1572.98829 1405.0004,1574.77929 1405.0004,1576.98829 L1405.0004,1656.98829 C1405.0004,1659.19729 1406.7914,1660.98829 1409.0004,1660.98829 L1469.0004,1660.98829 C1471.2094,1660.98829 1473.0004,1659.19729 1473.0004,1656.98829 L1473.0004,1599.26629 C1473.0004,1598.20929 1472.5814,1597.19529 1471.8364,1596.44529 L1471.8364,1596.44529 Z" id="document-delete" fill="#000000"></path>
    </g>
</svg>