<svg width="18" height="16" viewBox="0 0 18 16" version="1.1" xmlns="http://www.w3.org/2000/svg" xmlns:xlink="http://www.w3.org/1999/xlink">
<title>download</title>
<desc>Created using Figma</desc>
<g id="Canvas" transform="translate(179 22)">
<g id="download">
<g id="Vector">
<use xlink:href="#path0_fill" transform="translate(-179 -22)" fill="#0093FF"/>
<mask id="mask0_outline_ins">
<use xlink:href="#path0_fill" fill="white" transform="translate(-179 -22)"/>
</mask>
<g mask="url(#mask0_outline_ins)">
<use xlink:href="#path1_stroke_2x" transform="translate(-179 -22)" fill="#0093FF"/>
</g>
</g>
</g>
</g>
<defs>
<path id="path0_fill" d="M 12.5917 12.1658C 12.7414 12.0109 12.7414 11.7614 12.5917 11.6121C 12.4368 11.4572 12.1874 11.4572 12.0381 11.6121L 9.23073 14.4142L 9.23073 5.15524C 9.23073 4.93929 9.05909 4.76207 8.84314 4.76207C 8.62719 4.76207 8.44996 4.93929 8.44996 5.15524L 8.44996 14.4139L 5.64819 11.6118C 5.4933 11.4569 5.24944 11.4569 5.09454 11.6118C 4.94487 11.7614 4.94487 12.0105 5.09454 12.1654L 8.56649 15.6374C 8.71615 15.787 8.96524 15.787 9.12014 15.6374L 12.5917 12.1658ZM 7.65803 9.3804C 7.8684 9.3804 8.04562 9.55204 8.04562 9.76799C 8.04562 9.98394 7.8684 10.1612 7.65803 10.1612L 3.92024 10.1612C 2.84049 10.1612 1.86052 9.72369 1.15162 9.00955C 0.437482 8.30065 0 7.32067 0 6.24092C 0 5.16117 0.437482 4.18085 1.15162 3.4723C 1.86052 2.76339 2.84049 2.32033 3.92024 2.32033C 4.1805 2.32033 4.44076 2.34789 4.69543 2.40336C 4.83952 2.43092 4.97767 2.46441 5.11059 2.50872C 5.52574 1.79423 6.11847 1.19627 6.82179 0.758791C 7.59698 0.277002 8.51067 -1.39737e-08 9.49064 -1.39737e-08C 10.8306 -1.39737e-08 12.0545 0.526095 12.9626 1.37873C 13.7821 2.14834 14.3413 3.17855 14.513 4.34133C 14.596 4.33017 14.6846 4.33017 14.7676 4.33017C 15.5704 4.33017 16.3016 4.65671 16.8274 5.1828C 17.359 5.7089 17.68 6.43978 17.68 7.24288C 17.68 8.05121 17.3587 8.77685 16.8274 9.30818C 16.3013 9.83428 15.5704 10.1608 14.7676 10.1608L 10.0279 10.1608C 9.81195 10.1608 9.64031 9.98359 9.64031 9.76764C 9.64031 9.55169 9.81195 9.38005 10.0279 9.38005L 14.768 9.38005C 15.3548 9.38005 15.892 9.14177 16.2741 8.75418C 16.6616 8.36658 16.8999 7.83491 16.8999 7.24253C 16.8999 6.65573 16.6616 6.11847 16.2741 5.73646C 15.892 5.34886 15.3548 5.11059 14.768 5.11059C 14.6794 5.11059 14.5908 5.11617 14.5133 5.12733C 14.4303 5.13291 14.3473 5.14931 14.275 5.16606C 14.2475 5.17164 14.2196 5.17722 14.192 5.1828C 13.9761 5.19397 13.7932 5.0279 13.7769 4.81195C 13.7106 3.6879 13.2064 2.67443 12.4313 1.94913C 11.6617 1.22383 10.6262 0.78077 9.49099 0.78077C 8.66033 0.78077 7.88514 1.01905 7.23171 1.42304C 6.55072 1.83819 6.0023 2.44209 5.64261 3.1618C 5.54842 3.34461 5.33247 3.42764 5.13885 3.35019C 4.95046 3.26716 4.75125 3.20611 4.54646 3.1618C 4.34726 3.12308 4.14213 3.10075 3.92059 3.10075C 3.05121 3.10075 2.27044 3.4552 1.70004 4.02002C 1.13522 4.59042 0.78077 5.37677 0.78077 6.24057C 0.78077 7.10996 1.13522 7.89073 1.70004 8.46113C 2.27044 9.02595 3.05121 9.3804 3.92059 9.3804L 7.65803 9.3804L 7.65803 9.3804Z"/>
<path id="path1_stroke_2x" d="M 12.5917 12.1658L 14.006 13.58L 14.0181 13.5678L 14.03 13.5555L 12.5917 12.1658ZM 12.5917 11.6121L 11.1775 13.0263L 11.1792 13.028L 12.5917 11.6121ZM 12.0381 11.6121L 13.451 13.0276L 13.4646 13.014L 13.478 13.0001L 12.0381 11.6121ZM 9.23073 14.4142L 7.23073 14.4142L 7.23073 19.2363L 10.6436 15.8298L 9.23073 14.4142ZM 8.44996 14.4139L 7.03566 15.828L 10.45 19.2427L 10.45 14.4139L 8.44996 14.4139ZM 5.64819 11.6118L 7.0625 10.1976L 7.06241 10.1976L 5.64819 11.6118ZM 5.09454 11.6118L 3.68033 10.1976L 5.09454 11.6118ZM 5.09454 12.1654L 3.65624 13.5551L 3.66818 13.5675L 3.68033 13.5796L 5.09454 12.1654ZM 8.56649 15.6374L 9.9807 14.2232L 9.9807 14.2232L 8.56649 15.6374ZM 9.12014 15.6374L 10.5099 17.0757L 10.5222 17.0637L 10.5344 17.0516L 9.12014 15.6374ZM 1.15162 9.00955L 2.57102 7.60055L 2.56584 7.59533L 2.56062 7.59015L 1.15162 9.00955ZM 1.15162 3.4723L 2.56028 4.89206L 2.56583 4.88651L 1.15162 3.4723ZM 4.69543 2.40336L 4.26979 4.35754L 4.29467 4.36296L 4.31968 4.36775L 4.69543 2.40336ZM 5.11059 2.50872L 4.47813 4.40609L 6.02217 4.92077L 6.83986 3.51352L 5.11059 2.50872ZM 6.82179 0.758791L 5.76606 -0.939863L 5.76543 -0.939474L 6.82179 0.758791ZM 12.9626 1.37873L 14.3317 -0.0791617L 14.3316 -0.0793119L 12.9626 1.37873ZM 14.513 4.34133L 12.5344 4.63339L 12.8227 6.58659L 14.7795 6.32349L 14.513 4.34133ZM 16.8274 5.1828L 15.4127 6.59657L 15.4206 6.60446L 16.8274 5.1828ZM 16.8274 9.30818L 18.2416 10.7224L 16.8274 9.30818ZM 16.2741 8.75418L 14.8598 7.33996L 14.8547 7.34509L 14.8496 7.35026L 16.2741 8.75418ZM 16.2741 5.73646L 14.8496 7.14038L 14.8598 7.15071L 14.8701 7.16089L 16.2741 5.73646ZM 14.5133 5.12733L 14.6475 7.12283L 14.7234 7.11773L 14.7987 7.10687L 14.5133 5.12733ZM 14.275 5.16606L 14.672 7.12626L 14.6995 7.12069L 14.7268 7.11436L 14.275 5.16606ZM 14.192 5.1828L 14.2953 7.18014L 14.4435 7.17247L 14.589 7.143L 14.192 5.1828ZM 13.7769 4.81195L 11.7803 4.92969L 11.7813 4.94654L 11.7826 4.96338L 13.7769 4.81195ZM 12.4313 1.94913L 11.0596 3.40463L 11.0648 3.40956L 12.4313 1.94913ZM 7.23171 1.42304L 8.27279 3.13076L 8.28345 3.12417L 7.23171 1.42304ZM 5.64261 3.1618L 7.42048 4.07788L 7.42613 4.06691L 7.43164 4.05588L 5.64261 3.1618ZM 5.13885 3.35019L 4.33223 5.18032L 4.36392 5.19429L 4.39606 5.20715L 5.13885 3.35019ZM 4.54646 3.1618L 4.96939 1.20703L 4.94879 1.20257L 4.92811 1.19855L 4.54646 3.1618ZM 1.70004 4.02002L 0.292797 2.59887L 0.28581 2.60579L 0.27889 2.61278L 1.70004 4.02002ZM 1.70004 8.46113L 0.27889 9.86837L 0.28581 9.87536L 0.292797 9.88228L 1.70004 8.46113ZM 14.03 13.5555C 14.9146 12.64 14.9513 11.141 14.0043 10.1963L 11.1792 13.028C 10.5315 12.3818 10.5682 11.3817 11.1534 10.7761L 14.03 13.5555ZM 14.006 10.1979C 13.0847 9.2766 11.5482 9.23858 10.5982 10.2241L 13.478 13.0001C 12.8266 13.6759 11.789 13.6378 11.1775 13.0263L 14.006 10.1979ZM 10.6252 10.1966L 7.81784 12.9987L 10.6436 15.8298L 13.451 13.0276L 10.6252 10.1966ZM 11.2307 14.4142L 11.2307 5.15524L 7.23073 5.15524L 7.23073 14.4142L 11.2307 14.4142ZM 11.2307 5.15524C 11.2307 3.87218 10.2007 2.76207 8.84314 2.76207L 8.84314 6.76207C 7.91743 6.76207 7.23073 6.00641 7.23073 5.15524L 11.2307 5.15524ZM 8.84314 2.76207C 7.52262 2.76207 6.44996 3.83473 6.44996 5.15524L 10.45 5.15524C 10.45 6.04386 9.73176 6.76207 8.84314 6.76207L 8.84314 2.76207ZM 6.44996 5.15524L 6.44996 14.4139L 10.45 14.4139L 10.45 5.15524L 6.44996 5.15524ZM 9.86427 12.9998L 7.0625 10.1976L 4.23389 13.0259L 7.03566 15.828L 9.86427 12.9998ZM 7.06241 10.1976C 6.12646 9.26161 4.61627 9.26161 3.68033 10.1976L 6.50875 13.026C 5.8826 13.6521 4.86013 13.6521 4.23398 13.026L 7.06241 10.1976ZM 3.68033 10.1976C 2.73647 11.1414 2.77078 12.6387 3.65624 13.5551L 6.53284 10.7757C 7.11897 11.3823 7.15328 12.3815 6.50875 13.026L 3.68033 10.1976ZM 3.68033 13.5796L 7.15227 17.0516L 9.9807 14.2232L 6.50875 10.7512L 3.68033 13.5796ZM 7.15227 17.0516C 8.09613 17.9954 9.59344 17.9611 10.5099 17.0757L 7.73043 14.1991C 8.33705 13.6129 9.33617 13.5786 9.9807 14.2232L 7.15227 17.0516ZM 10.5344 17.0516L 14.006 13.58L 11.1775 10.7516L 7.70593 14.2232L 10.5344 17.0516ZM 7.65803 11.3804C 6.7826 11.3804 6.04562 10.6753 6.04562 9.76799L 10.0456 9.76799C 10.0456 8.42879 8.95419 7.3804 7.65803 7.3804L 7.65803 11.3804ZM 6.04562 9.76799C 6.04562 8.89796 6.74533 8.16117 7.65803 8.16117L 7.65803 12.1612C 8.99146 12.1612 10.0456 11.0699 10.0456 9.76799L 6.04562 9.76799ZM 7.65803 8.16117L 3.92024 8.16117L 3.92024 12.1612L 7.65803 12.1612L 7.65803 8.16117ZM 3.92024 8.16117C 3.39187 8.16117 2.9176 7.94968 2.57102 7.60055L -0.267787 10.4186C 0.803445 11.4977 2.28912 12.1612 3.92024 12.1612L 3.92024 8.16117ZM 2.56062 7.59015C 2.21149 7.24357 2 6.7693 2 6.24092L -2 6.24092C -2 7.87205 -1.33652 9.35772 -0.257386 10.429L 2.56062 7.59015ZM 2 6.24092C 2 5.71227 2.21168 5.23792 2.56027 4.89205L -0.257036 2.05254C -1.33671 3.12378 -2 4.61007 -2 6.24092L 2 6.24092ZM 2.56583 4.88651C 2.91947 4.53287 3.3983 4.32033 3.92024 4.32033L 3.92024 0.32033C 2.28269 0.32033 0.801569 0.993918 -0.262596 2.05808L 2.56583 4.88651ZM 3.92024 4.32033C 4.03962 4.32033 4.15711 4.333 4.26979 4.35754L 5.12107 0.449177C 4.72441 0.362781 4.32138 0.32033 3.92024 0.32033L 3.92024 4.32033ZM 4.31968 4.36775C 4.40354 4.38379 4.45158 4.39724 4.47813 4.40609L 5.74304 0.611353C 5.50375 0.53159 5.27549 0.478055 5.07119 0.438976L 4.31968 4.36775ZM 6.83986 3.51352C 7.08312 3.09485 7.43925 2.73007 7.87815 2.45706L 5.76543 -0.939474C 4.7977 -0.33752 3.96836 0.493615 3.38132 1.50392L 6.83986 3.51352ZM 7.87753 2.45744C 8.34387 2.16761 8.89318 2 9.49064 2L 9.49064 -2C 8.12815 -2 6.85009 -1.6136 5.76606 -0.939863L 7.87753 2.45744ZM 9.49064 2C 10.2981 2 11.0385 2.31561 11.5936 2.83677L 14.3316 -0.0793119C 13.0704 -1.26342 11.3632 -2 9.49064 -2L 9.49064 2ZM 11.5934 2.83662C 12.0933 3.30602 12.4304 3.92904 12.5344 4.63339L 16.4915 4.04927C 16.2522 2.42805 15.4709 0.990652 14.3317 -0.0791617L 11.5934 2.83662ZM 14.7795 6.32349C 14.7541 6.3269 14.7348 6.3286 14.7233 6.32946C 14.7173 6.3299 14.7127 6.33016 14.7098 6.3303C 14.7069 6.33045 14.7054 6.3305 14.7053 6.3305C 14.7053 6.33051 14.7064 6.33047 14.7091 6.33042C 14.7118 6.33037 14.7156 6.33032 14.7209 6.33027C 14.7262 6.33023 14.7325 6.3302 14.7404 6.33018C 14.7485 6.33017 14.7569 6.33017 14.7676 6.33017L 14.7676 2.33017C 14.7107 2.33017 14.4854 2.32704 14.2465 2.35917L 14.7795 6.32349ZM 14.7676 6.33017C 15.02 6.33017 15.2479 6.43163 15.4127 6.59655L 18.242 3.76906C 17.3554 2.88178 16.1208 2.33017 14.7676 2.33017L 14.7676 6.33017ZM 15.4206 6.60446C 15.5783 6.76043 15.68 6.98169 15.68 7.24288L 19.68 7.24288C 19.68 5.89787 19.1398 4.65737 18.2341 3.76115L 15.4206 6.60446ZM 15.68 7.24288C 15.68 7.50512 15.5806 7.7265 15.4132 7.89397L 18.2416 10.7224C 19.1368 9.82721 19.68 8.59729 19.68 7.24288L 15.68 7.24288ZM 15.4132 7.89397C 15.2475 8.0596 15.0196 8.16082 14.7676 8.16082L 14.7676 12.1608C 16.1211 12.1608 17.355 11.609 18.2416 10.7224L 15.4132 7.89397ZM 14.7676 8.16082L 10.0279 8.16082L 10.0279 12.1608L 14.7676 12.1608L 14.7676 8.16082ZM 10.0279 8.16082C 10.9536 8.16082 11.6403 8.91648 11.6403 9.76764L 7.64031 9.76764C 7.64031 11.0507 8.67029 12.1608 10.0279 12.1608L 10.0279 8.16082ZM 11.6403 9.76764C 11.6403 10.6563 10.9165 11.38 10.0279 11.38L 10.0279 7.38005C 8.70738 7.38005 7.64031 8.44712 7.64031 9.76764L 11.6403 9.76764ZM 10.0279 11.38L 14.768 11.38L 14.768 7.38005L 10.0279 7.38005L 10.0279 11.38ZM 14.768 11.38C 15.9011 11.38 16.9483 10.9192 17.6985 10.1581L 14.8496 7.35026C 14.8358 7.3643 14.8085 7.38005 14.768 7.38005L 14.768 11.38ZM 17.6883 10.1684C 18.4357 9.42097 18.8999 8.38652 18.8999 7.24253L 14.8999 7.24253C 14.8999 7.26792 14.8953 7.28426 14.8903 7.29612C 14.8847 7.30933 14.8752 7.32457 14.8598 7.33996L 17.6883 10.1684ZM 18.8999 7.24253C 18.8999 6.1094 18.4391 5.06221 17.678 4.31202L 14.8701 7.16089C 14.8842 7.17473 14.8999 7.20206 14.8999 7.24253L 18.8999 7.24253ZM 17.6985 4.33254C 16.9483 3.57139 15.9011 3.11059 14.768 3.11059L 14.768 7.11059C 14.8085 7.11059 14.8358 7.12634 14.8496 7.14038L 17.6985 4.33254ZM 14.768 3.11059C 14.6024 3.11059 14.4167 3.12059 14.228 3.14779L 14.7987 7.10687C 14.7882 7.10838 14.7805 7.10925 14.7757 7.10974C 14.7707 7.11024 14.7676 7.11047 14.7663 7.11056C 14.764 7.1107 14.765 7.11059 14.768 7.11059L 14.768 3.11059ZM 14.3792 3.13184C 14.1377 3.14807 13.9334 3.19221 13.8233 3.21775L 14.7268 7.11436C 14.7397 7.11137 14.7384 7.11197 14.7283 7.11371C 14.7186 7.11537 14.6902 7.11996 14.6475 7.12283L 14.3792 3.13184ZM 13.878 3.20586C 13.8657 3.20836 13.853 3.21091 13.8389 3.21374C 13.8253 3.21649 13.8102 3.21952 13.795 3.2226L 14.589 7.143C 14.6014 7.1405 14.614 7.13795 14.6281 7.13512C 14.6418 7.13237 14.6568 7.12933 14.672 7.12626L 13.878 3.20586ZM 14.0887 3.18547C 14.994 3.13867 15.7081 3.83108 15.7711 4.66053L 11.7826 4.96338C 11.8784 6.22473 12.9581 7.24926 14.2953 7.18014L 14.0887 3.18547ZM 15.7734 4.69422C 15.6758 3.04001 14.9336 1.55149 13.7977 0.488706L 11.0648 3.40956C 11.4793 3.79737 11.7453 4.33578 11.7803 4.92969L 15.7734 4.69422ZM 13.803 0.493643C 12.6774 -0.567097 11.1566 -1.21923 9.49099 -1.21923L 9.49099 2.78077C 10.0958 2.78077 10.6459 3.01476 11.0596 3.40462L 13.803 0.493643ZM 9.49099 -1.21923C 8.27354 -1.21923 7.13619 -0.869283 6.17997 -0.278092L 8.28345 3.12417C 8.6341 2.90738 9.04712 2.78077 9.49099 2.78077L 9.49099 -1.21923ZM 6.19065 -0.284649C 5.18005 0.331446 4.37655 1.22129 3.85358 2.26772L 7.43164 4.05588C 7.62805 3.66288 7.92139 3.34494 8.27277 3.13073L 6.19065 -0.284649ZM 3.86475 2.24573C 4.23714 1.523 5.10684 1.18332 5.88163 1.49324L 4.39606 5.20715C 5.5581 5.67196 6.85969 5.16622 7.42048 4.07788L 3.86475 2.24573ZM 5.94546 1.52006C 5.61298 1.37353 5.2818 1.27462 4.96939 1.20703L 4.12354 5.11658C 4.2207 5.1376 4.28793 5.1608 4.33223 5.18032L 5.94546 1.52006ZM 4.92811 1.19855C 4.6139 1.13747 4.28072 1.10075 3.92059 1.10075L 3.92059 5.10075C 4.00353 5.10075 4.08062 5.10868 4.16482 5.12505L 4.92811 1.19855ZM 3.92059 1.10075C 2.49258 1.10075 1.21462 1.68607 0.292797 2.59887L 3.10728 5.44117C 3.32626 5.22433 3.60984 5.10075 3.92059 5.10075L 3.92059 1.10075ZM 0.27889 2.61278C -0.635301 3.536 -1.21923 4.82002 -1.21923 6.24057L 2.78077 6.24057C 2.78077 5.93353 2.90574 5.64484 3.12119 5.42726L 0.27889 2.61278ZM -1.21923 6.24057C -1.21923 7.66859 -0.63391 8.94655 0.27889 9.86837L 3.12119 7.05388C 2.90435 6.8349 2.78077 6.55133 2.78077 6.24057L -1.21923 6.24057ZM 0.292797 9.88228C 1.21462 10.7951 2.49258 11.3804 3.92059 11.3804L 3.92059 7.3804C 3.60984 7.3804 3.32626 7.25682 3.10728 7.03998L 0.292797 9.88228ZM 3.92059 11.3804L 7.65803 11.3804L 7.65803 7.3804L 3.92059 7.3804L 3.92059 11.3804Z"/>
</defs>
</svg>
