<?xml version="1.0" encoding="UTF-8"?>
<svg width="13px" height="14px" viewBox="0 0 13 14" version="1.1" xmlns="http://www.w3.org/2000/svg" xmlns:xlink="http://www.w3.org/1999/xlink">
    <!-- Generator: Sketch 48.1 (47250) - http://www.bohemiancoding.com/sketch -->
    <title>edit</title>
    <desc>Created with Sketch.</desc>
    <defs></defs>
    <g id="Icons" stroke="none" stroke-width="1" fill="none" fill-rule="evenodd">
        <g id="edit" transform="translate(0.400000, 1.000000)" fill="#0093ff" fill-rule="nonzero" stroke="#000000" stroke-width="0.3">
            <path d="M0.0126849894,9 L0,11.4683544 C0,11.6075949 0.0507399577,11.7468354 0.152219873,11.8481013 C0.253699789,11.9493671 0.380549683,12 0.520084567,12 L2.98097252,11.9873418 C3.1205074,11.9873418 3.24735729,11.9367089 3.34883721,11.835443 L11.8477801,3.35443038 C12.05074,3.15189873 12.05074,2.82278481 11.8477801,2.60759494 L9.41226216,0.151898734 C9.20930233,-0.0506329114 8.8794926,-0.0506329114 8.66384778,0.151898734 L6.9640592,1.86075949 L0.164904863,8.63291139 C0.0761099366,8.73417722 0.0126849894,8.86075949 0.0126849894,9 Z M9.04439746,1.26582278 L10.756871,2.97468354 L9.79281184,3.93670886 L8.08033827,2.2278481 L9.04439746,1.26582278 Z M1.06553911,9.2278481 L7.33192389,2.97468354 L9.04439746,4.6835443 L2.77801268,10.9240506 L1.05285412,10.9367089 L1.06553911,9.2278481 Z" id="Shape"></path>
        </g>
    </g>
</svg>