<?xml version="1.0" encoding="UTF-8"?>
<svg width="22px" height="13px" viewBox="0 0 22 13" version="1.1" xmlns="http://www.w3.org/2000/svg" xmlns:xlink="http://www.w3.org/1999/xlink">
    <!-- Generator: Sketch 48.1 (47250) - http://www.bohemiancoding.com/sketch -->
    <title>eye</title>
    <desc>Created with Sketch.</desc>
    <defs></defs>
    <g id="Icons" stroke="none" stroke-width="1" fill="none" fill-rule="evenodd">
        <g id="eye" transform="translate(1.000000, 1.000000)" fill="#728EAA" fill-rule="nonzero" stroke="#728EAA" stroke-width="0.3">
            <path d="M19.6756849,4.58630564 C18.5532283,3.18980934 17.0992887,2.03468559 15.471131,1.24590379 C13.8091062,0.440709562 12.0211054,0.0229319072 10.1545892,0.00102340743 C10.1031832,-0.00034113581 9.89677775,-0.00034113581 9.8453717,0.00102340743 C7.97889461,0.0229698112 6.19085472,0.440709562 4.52882997,1.24590379 C2.90067226,2.03468559 1.44681075,3.18977144 0.324315139,4.58630564 C-0.108105046,5.12427681 -0.108105046,5.87572319 0.324315139,6.41369436 C1.44677169,7.81019066 2.90067226,8.96531441 4.52882997,9.75409621 C6.19085472,10.5592904 7.97885555,10.9770681 9.8453717,10.9989766 C9.89677775,11.0003411 10.1031832,11.0003411 10.1545892,10.9989766 C12.0210663,10.9770302 13.8091062,10.5592904 15.471131,9.75409621 C17.0992887,8.96531441 18.5531892,7.81022856 19.6756849,6.41369436 C20.108105,5.87564738 20.108105,5.12427681 19.6756849,4.58630564 Z M4.89230511,9.04775557 C3.37199855,8.31120545 2.01426948,7.23245821 0.965875133,5.92814439 C0.763258737,5.67604503 0.763258737,5.32395497 0.965875133,5.07185561 C2.01423041,3.76754179 3.37195948,2.68879455 4.89230511,1.95224443 C5.3241003,1.74309028 5.76503607,1.56221249 6.21413588,1.40908042 C5.05874977,2.41687141 4.33082293,3.87738752 4.33082293,5.49998105 C4.33082293,7.12265038 5.05878883,8.58328021 6.21429213,9.5910333 C5.76519232,9.43790122 5.32413936,9.25694763 4.89230511,9.04775557 Z M10.0000195,10.2115593 C7.32260811,10.2115593 5.1444135,8.09795766 5.1444135,5.49994314 C5.1444135,2.90192862 7.32260811,0.788364857 10.0000195,0.788364857 C12.6774309,0.788364857 14.8556256,2.90196653 14.8556256,5.49998105 C14.8556256,8.09799557 12.6774309,10.2115593 10.0000195,10.2115593 Z M19.0341639,5.92810649 C17.9858086,7.23242031 16.6280796,8.31116755 15.107734,9.04771766 C14.6764466,9.2566444 14.2357842,9.4367262 13.7872313,9.58970666 C14.9418362,8.58195357 15.6692161,7.1218923 15.6692161,5.49994314 C15.6692161,3.87712219 14.941094,2.41641656 13.7855126,1.40862557 C14.2347296,1.56179555 14.6758606,1.74290076 15.107773,1.95216862 C16.6280796,2.68871874 17.9858086,3.76746598 19.034203,5.0717798 C19.2367803,5.32391707 19.2367803,5.67600713 19.0341639,5.92810649 Z" id="Shape"></path>
            <path d="M10,3 C8.89718959,3 8,3.89718959 8,5 C8,6.10281041 8.89718959,7 10,7 C11.1028104,7 12,6.10281041 12,5 C12.0000376,3.89718959 11.102848,3 10,3 Z M10,6.21695648 C9.32899709,6.21695648 8.78304352,5.67107811 8.78304352,5 C8.78304352,4.32895949 9.32892189,3.78308112 10,3.78308112 C10.6710029,3.78308112 11.2169189,4.32895949 11.2169189,5 C11.2169565,5.67107811 10.6710029,6.21695648 10,6.21695648 Z" id="Shape"></path>
        </g>
    </g>
</svg>