<?xml version="1.0" encoding="UTF-8"?>
<svg width="43px" height="53px" viewBox="0 0 43 53" version="1.1" xmlns="http://www.w3.org/2000/svg" xmlns:xlink="http://www.w3.org/1999/xlink">
    <!-- Generator: Sketch 48.1 (47250) - http://www.bohemiancoding.com/sketch -->
    <title>flask (1)</title>
    <desc>Created with Sketch.</desc>
    <defs></defs>
    <g id="Desktop-HD" stroke="none" stroke-width="1" fill="none" fill-rule="evenodd" transform="translate(-131.000000, -2403.000000)">
        <g id="flask-(1)" transform="translate(131.000000, 2403.000000)" fill="#2D2D2D" fill-rule="nonzero">
            <path d="M41.8879959,41.2419707 C41.8707266,41.2128828 41.8524293,41.1845195 41.8333097,41.1566738 L35.6051567,32.1030937 C35.5894293,32.0787676 35.5730852,32.054959 35.5559187,32.0314609 L29.2093476,22.8057344 L29.2093476,9.05037109 C31.0042242,8.40950586 32.2931514,6.6826582 32.2931514,4.65820312 C32.2931514,2.08966992 30.2180598,0 27.6674457,0 L15.3322304,0 C12.7816163,0 10.7065247,2.08966992 10.7065247,4.65820312 C10.7065247,6.68255469 11.9954519,8.40950586 13.7903285,9.05037109 L13.7903285,22.8057344 L1.16636636,41.1565703 C1.14714398,41.184416 1.12894954,41.2128828 1.11168024,41.2418672 C-1.97232918,46.418166 1.72453485,53 7.72263608,53 L35.27704,53 C41.2712351,53 44.9740611,46.421582 41.8879959,41.2419707 Z M16.1397758,24.84375 L18.4160342,24.84375 C19.2675753,24.84375 19.9579361,24.1485391 19.9579361,23.2910156 C19.9579361,22.4334922 19.2675753,21.7382813 18.4160342,21.7382813 L16.8741323,21.7382813 L16.8741323,18.6328125 L18.4160342,18.6328125 C19.2675753,18.6328125 19.9579361,17.9376016 19.9579361,17.0800781 C19.9579361,16.2225547 19.2675753,15.5273438 18.4160342,15.5273438 L16.8741323,15.5273438 L16.8741323,12.421875 L18.4160342,12.421875 C19.2675753,12.421875 19.9579361,11.7266641 19.9579361,10.8691406 C19.9579361,10.0116172 19.2675753,9.31640625 18.4160342,9.31640625 L16.8741323,9.31640625 L16.8741323,7.76367188 C16.8741323,6.90614844 16.1837714,6.2109375 15.3322304,6.2109375 C14.4820257,6.2109375 13.7903285,5.51438086 13.7903285,4.65820313 C13.7903285,3.80202539 14.4820257,3.10546875 15.3322304,3.10546875 L27.6674457,3.10546875 C28.5176504,3.10546875 29.2093476,3.80202539 29.2093476,4.65820313 C29.2093476,5.51438086 28.5176504,6.2109375 27.6674457,6.2109375 C26.8159047,6.2109375 26.1255438,6.90614844 26.1255438,7.76367188 L26.1255438,23.2910156 C26.1255438,23.6069453 26.2213473,23.9155254 26.4000023,24.1752461 L29.9785511,29.3773203 C27.6455507,28.8492871 25.1617523,29.1311602 22.9903432,30.2244922 L19.2708646,32.0972969 C16.9095961,33.2861738 14.0785614,33.1086445 11.8821735,31.6340645 C11.7879119,31.5707129 11.6921084,31.5095352 11.5957909,31.4492891 L16.1397758,24.84375 Z M35.2769372,49.8945313 L7.72263608,49.8945313 C4.13997559,49.8945313 1.9249821,45.9808125 3.73209114,42.8803125 L9.8366864,34.006332 C9.95006759,34.0739277 10.0620097,34.1442148 10.1715875,34.2178145 C13.2745109,36.3009629 17.2888011,36.5672051 20.6500445,34.8748281 L24.3695231,33.0020234 C26.4346437,31.962209 28.9004533,31.962209 30.9655739,33.0020234 L33.2707173,34.1626406 L39.2677906,42.8803125 C41.0738717,45.9795703 38.8611396,49.8945313 35.2769372,49.8945313 Z" id="Shape"></path>
            <circle id="Oval" cx="27.5" cy="38.5" r="1.5"></circle>
            <circle id="Oval" cx="21.5" cy="45.5" r="1.5"></circle>
            <circle id="Oval" cx="15.5" cy="42.5" r="1.5"></circle>
        </g>
    </g>
</svg>