<?xml version="1.0" encoding="UTF-8"?>
<svg width="92px" height="93px" viewBox="0 0 92 93" version="1.1" xmlns="http://www.w3.org/2000/svg" xmlns:xlink="http://www.w3.org/1999/xlink">
    <!-- Generator: Sketch 48.1 (47250) - http://www.bohemiancoding.com/sketch -->
    <title>gear</title>
    <desc>Created with Sketch.</desc>
    <defs></defs>
    <g id="dripicons-v2-by-amit-jakhu" stroke="none" stroke-width="1" fill="none" fill-rule="evenodd" transform="translate(-2059.000000, -2458.000000)">
        <path d="M2101.3692,2543.80589 C2102.2792,2543.86489 2103.3482,2543.91089 2104.4542,2543.91089 L2104.9992,2543.91089 C2106.1142,2543.91089 2107.1852,2543.86489 2108.0942,2543.80589 L2109.0292,2537.21189 C2109.2352,2535.76189 2110.3142,2534.58789 2111.7422,2534.25989 C2114.8452,2533.54889 2117.8032,2532.35089 2120.5332,2530.70189 C2121.3382,2530.21589 2122.3032,2530.07189 2123.2152,2530.29689 C2123.7382,2530.42689 2124.2172,2530.67189 2124.6242,2531.00989 L2129.8832,2535.00189 C2130.5672,2534.40089 2131.3552,2533.67789 2132.1372,2532.89589 L2132.5222,2532.51089 C2133.3082,2531.72489 2134.0342,2530.93389 2134.6372,2530.24689 L2130.6512,2524.93689 C2129.7722,2523.76489 2129.7052,2522.17189 2130.4842,2520.93089 C2132.1402,2518.29389 2133.3662,2515.43689 2134.1302,2512.43489 C2134.3892,2510.93389 2135.5852,2509.74289 2137.1292,2509.53189 L2143.8182,2508.61589 C2143.8762,2507.70689 2143.9232,2506.63889 2143.9232,2505.53389 L2143.9232,2504.98889 C2143.9232,2503.87689 2143.8762,2502.80389 2143.8172,2501.89089 L2137.2452,2500.95489 C2135.7952,2500.74889 2134.6232,2499.67089 2134.2952,2498.24489 C2133.5902,2495.17689 2132.4092,2492.25189 2130.7852,2489.54989 C2130.6342,2489.31689 2130.5092,2489.06489 2130.4152,2488.79689 C2130.0202,2487.67489 2130.2122,2486.42989 2130.9322,2485.48289 L2135.0142,2480.10489 C2134.4122,2479.41989 2133.6902,2478.63289 2132.9082,2477.85089 L2132.5232,2477.46589 C2131.7352,2476.67689 2130.9442,2475.95289 2130.2602,2475.35089 L2124.9362,2479.35189 C2123.6782,2480.29789 2121.9642,2480.29189 2120.7212,2479.37989 C2118.0752,2477.75389 2115.2112,2476.55389 2112.2042,2475.81589 C2110.7952,2475.46889 2109.7402,2474.29689 2109.5432,2472.85889 L2108.6282,2466.16989 C2107.7182,2466.11089 2106.6512,2466.06489 2105.5452,2466.06489 L2105.0012,2466.06489 C2103.8902,2466.06489 2102.8172,2466.11189 2101.9052,2466.17089 L2100.9702,2472.76389 C2100.7492,2474.32389 2099.5302,2475.52989 2098.0062,2475.76489 C2094.9952,2476.48189 2092.1222,2477.65889 2089.4652,2479.26689 C2088.6462,2479.76289 2087.6622,2479.90489 2086.7372,2479.66189 C2086.2192,2479.52689 2085.7462,2479.27789 2085.3462,2478.93889 L2080.1172,2474.97289 C2079.4332,2475.57489 2078.6452,2476.29689 2077.8632,2477.07989 L2077.4782,2477.46489 C2076.6892,2478.25289 2075.9642,2479.04289 2075.3632,2479.72789 L2079.3642,2485.05189 C2080.2322,2486.20589 2080.3112,2487.77089 2079.5652,2489.00589 C2079.5022,2489.11089 2079.4342,2489.21089 2079.3622,2489.30689 C2077.7462,2491.93889 2076.5532,2494.78889 2075.8152,2497.78289 C2075.4682,2499.19089 2074.2972,2500.24489 2072.8602,2500.44189 L2066.1822,2501.35889 C2066.1232,2502.26889 2066.0772,2503.33689 2066.0772,2504.44289 L2066.0772,2504.98689 C2066.0772,2506.09789 2066.1242,2507.16989 2066.1822,2508.08289 L2072.7752,2509.01789 C2074.3372,2509.23889 2075.5642,2510.46689 2075.7832,2512.02889 C2075.7892,2512.07289 2075.7952,2512.11589 2075.7992,2512.15989 C2076.5192,2515.11189 2077.6832,2517.92789 2079.2612,2520.53589 C2079.7992,2521.42589 2079.9192,2522.50589 2079.5892,2523.49089 C2079.4442,2523.92389 2079.2192,2524.31789 2078.9312,2524.65789 L2074.9842,2529.86889 C2075.5862,2530.55389 2076.3092,2531.34189 2077.0912,2532.12489 L2077.4762,2532.50989 C2078.2652,2533.29889 2079.0552,2534.02289 2079.7392,2534.62489 L2085.0632,2530.62389 C2086.4062,2529.61389 2088.2332,2529.70389 2089.4662,2530.74189 C2092.0572,2532.30989 2094.8552,2533.46989 2097.7902,2534.19189 C2099.1972,2534.53789 2100.2512,2535.70789 2100.4492,2537.14389 L2101.3692,2543.80589 Z M2104.9992,2550.98789 L2104.4542,2550.98789 C2100.9802,2550.98789 2097.9272,2550.60189 2097.7992,2550.58589 C2096.2142,2550.38289 2094.9612,2549.14289 2094.7432,2547.55989 L2093.7562,2540.40489 C2091.5602,2539.70889 2089.4382,2538.80889 2087.4082,2537.71489 L2081.7522,2541.96489 C2080.4782,2542.92189 2078.7222,2542.90989 2077.4622,2541.93589 C2077.3602,2541.85689 2074.9292,2539.97089 2072.4722,2537.51389 L2072.0872,2537.12889 C2069.6302,2534.67289 2067.7452,2532.24189 2067.6652,2532.13889 C2066.6882,2530.87489 2066.6792,2529.11289 2067.6442,2527.83789 L2072.0122,2522.07189 C2070.9522,2520.02789 2070.0882,2517.89289 2069.4272,2515.69089 L2062.4152,2514.69689 C2060.8382,2514.47289 2059.6052,2513.22289 2059.4022,2511.64289 C2059.3862,2511.51489 2059.0002,2508.46089 2059.0002,2504.98689 L2059.0002,2504.44289 C2059.0002,2500.96789 2059.3862,2497.91489 2059.4022,2497.78689 C2059.6062,2496.20089 2060.8472,2494.94789 2062.4312,2494.73089 L2069.6042,2493.74589 C2070.2992,2491.55589 2071.1972,2489.43989 2072.2882,2487.41489 L2068.0232,2481.74089 C2067.0652,2480.46689 2067.0772,2478.71089 2068.0522,2477.44989 C2068.1312,2477.34789 2070.0172,2474.91689 2072.4732,2472.45989 L2072.8582,2472.07489 C2075.3152,2469.61889 2077.7462,2467.73289 2077.8492,2467.65389 C2079.1132,2466.67589 2080.8772,2466.66689 2082.1512,2467.63389 L2087.9312,2472.01689 C2089.9692,2470.95989 2092.0972,2470.09789 2094.2942,2469.43789 L2095.2912,2462.40389 C2095.5152,2460.82589 2096.7652,2459.59289 2098.3452,2459.38989 C2098.4732,2459.37389 2101.5262,2458.98789 2105.0012,2458.98789 L2105.5452,2458.98789 C2109.0202,2458.98789 2112.0732,2459.37389 2112.2012,2459.38989 C2113.7872,2459.59389 2115.0402,2460.83589 2115.2572,2462.41989 L2116.2412,2469.60289 C2118.4272,2470.29689 2120.5432,2471.19189 2122.5672,2472.28089 L2128.2472,2468.01089 C2129.5212,2467.05289 2131.2762,2467.06489 2132.5372,2468.03989 C2132.6402,2468.11889 2135.0712,2470.00489 2137.5282,2472.46189 L2137.9132,2472.84689 C2140.3702,2475.30389 2142.2552,2477.73589 2142.3342,2477.83789 C2143.3122,2479.10289 2143.3202,2480.86689 2142.3532,2482.14089 L2137.9732,2487.90989 C2139.0342,2489.94989 2139.8992,2492.07989 2140.5612,2494.27889 L2147.5862,2495.27989 C2149.1632,2495.50389 2150.3952,2496.75389 2150.5972,2498.33289 C2150.6142,2498.46189 2151.0002,2501.51489 2151.0002,2504.98889 L2151.0002,2505.53389 C2151.0002,2509.00789 2150.6142,2512.06089 2150.5972,2512.18889 C2150.3942,2513.77489 2149.1522,2515.02789 2147.5672,2515.24589 L2140.4052,2516.22589 C2139.7102,2518.41689 2138.8122,2520.53689 2137.7192,2522.56389 L2141.9772,2528.23689 C2142.9342,2529.50989 2142.9212,2531.26589 2141.9472,2532.52589 C2141.8682,2532.62789 2139.9832,2535.05889 2137.5262,2537.51589 L2137.1412,2537.90089 C2134.6842,2540.35689 2132.2532,2542.24389 2132.1502,2542.32289 C2130.8862,2543.30089 2129.1212,2543.30889 2127.8472,2542.34089 L2122.0642,2537.95189 C2120.0272,2539.00689 2117.9022,2539.86789 2115.7072,2540.52689 L2114.7082,2547.57289 C2114.4842,2549.14989 2113.2342,2550.38289 2111.6542,2550.58589 C2111.5262,2550.60189 2108.4732,2550.98789 2104.9992,2550.98789 L2104.9992,2550.98789 Z M2105.0012,2492.80189 C2098.2722,2492.80189 2092.7982,2498.27589 2092.7982,2505.00489 C2092.7982,2511.73289 2098.2722,2517.20589 2105.0012,2517.20589 C2111.7282,2517.20589 2117.2012,2511.73289 2117.2012,2505.00489 C2117.2012,2498.27589 2111.7282,2492.80189 2105.0012,2492.80189 L2105.0012,2492.80189 Z M2105.0012,2524.28289 C2094.3702,2524.28289 2085.7212,2515.63489 2085.7212,2505.00489 C2085.7212,2494.37389 2094.3702,2485.72489 2105.0012,2485.72489 C2115.6302,2485.72489 2124.2782,2494.37389 2124.2782,2505.00489 C2124.2782,2515.63489 2115.6302,2524.28289 2105.0012,2524.28289 L2105.0012,2524.28289 Z" id="gear" fill="#000000"></path>
    </g>
</svg>