<?xml version="1.0" encoding="UTF-8"?>
<svg width="1440px" height="463px" viewBox="0 0 1440 463" version="1.1" xmlns="http://www.w3.org/2000/svg" xmlns:xlink="http://www.w3.org/1999/xlink">
    <!-- Generator: Sketch 45.1 (43504) - http://www.bohemiancoding.com/sketch -->
    <title>Main Illustration</title>
    <desc>Created with Sketch.</desc>
    <defs>
        <path d="M0,5.06809184 C5.70473625,-0.441053454 10.5448174,-1.4587625 14.5202433,2.0149647 C18.4956693,5.48869191 23.425595,6.50640095 29.3100205,5.06809184 L29.3100205,19.7231021 C24.3979842,21.7187659 19.5360383,20.9045987 14.7241827,17.2806004 C9.91232709,13.6566021 5.0042662,14.4707693 0,19.7231021 L0,5.06809184 Z" id="path-1"></path>
        <circle id="path-3" cx="6.10400992" cy="6.10400992" r="6.10400992"></circle>
    </defs>
    <g id="Page-1" stroke="none" stroke-width="1" fill="none" fill-rule="evenodd">
        <g id="Desktop-HD" transform="translate(0.000000, -337.000000)">
            <g id="Main-Illustration">
                <rect id="Rectangle-17" x="0" y="0" width="1440" height="799.904754"></rect>
                <polygon id="Rectangle-5" fill="#4488F8" points="101.286082 667.337121 202.572165 799.912449 0 799.912449"></polygon>
                <polygon id="Rectangle-5" fill="#2C77F2" points="101.286082 667.337121 202.572165 799.912449 16.744186 799.912449"></polygon>
                <polygon id="Rectangle-5" fill="#5191FA" points="241.027745 624.844271 374.774282 799.907719 107.281209 799.907719"></polygon>
                <polygon id="Rectangle-5" fill="#2C77F2" points="241.027745 624.844271 374.774282 799.907719 126.481703 799.907719"></polygon>
                <polygon id="Rectangle-5" fill="#2670E9" points="273.07028 649.057028 374.774282 799.907719 126.481703 799.907719"></polygon>
                <polygon id="Rectangle-5" fill="#2C77F2" points="1202.4681 505.37329 1418.33105 799.904754 986.605151 799.904754"></polygon>
                <polygon id="Rectangle-5" fill="#2670E9" points="1202.4681 505.37329 1418.33105 799.904754 1026.98819 799.904754 1114.35338 653.268048 1140.16288 665.708875"></polygon>
                <polygon id="Rectangle-5" fill="#1F64D6" points="1202.4681 505.37329 1418.33105 799.904754 1054.56685 799.904754 1119.27814 668.04233 1152.96725 680.483157"></polygon>
                <polygon id="Rectangle-5" fill="#2C77F2" points="1275.33986 552.689466 1439.65373 799.904754 1111.02599 799.904754"></polygon>
                <polygon id="Rectangle-5" fill="#205FC7" points="1275.33986 552.689466 1404.1916 799.904754 1111.02599 799.904754"></polygon>
                <rect id="Rectangle-6" fill="#1F64D6" x="1200.65663" y="458.134063" width="4.9247606" height="94.5554036"></rect>
                <g id="Rectangle-7" transform="translate(1200.656635, 452.224350)">
                    <mask id="mask-2" fill="white">
                        <use xlink:href="#path-1"></use>
                    </mask>
                    <use id="Mask" fill="#FFC76B" xlink:href="#path-1"></use>
                    <path d="M1.96990424,6.05304396 C7.67464049,0.543898667 12.5147216,-0.473810379 16.4901476,2.99991682 C20.4655735,6.47364403 25.3954993,7.49135307 31.2799248,6.05304396 L31.2799248,20.7080542 C26.3678884,22.7037181 21.5059425,21.8895508 16.6940869,18.2655525 C11.8822313,14.6415542 6.97417044,15.4557214 1.96990424,20.7080542 L1.96990424,6.05304396 Z" fill="#F2A72C" mask="url(#mask-2)"></path>
                </g>
                <polygon id="Rectangle-5" fill="#4488F8" points="101.286082 667.337121 202.572165 799.912449 0 799.912449"></polygon>
                <g id="Oval-2" transform="translate(234.418605, 612.771546)">
                    <mask id="mask-4" fill="white">
                        <use xlink:href="#path-3"></use>
                    </mask>
                    <use id="Mask" fill="#FEC567" xlink:href="#path-3"></use>
                    <circle fill="#F2A72C" mask="url(#mask-4)" cx="9.05886628" cy="6.10400992" r="6.10400992"></circle>
                </g>
                <rect id="Rectangle-9" fill="#D8D8D8" opacity="0.322860054" transform="translate(273.413091, 606.725645) rotate(-46.000000) translate(-273.413091, -606.725645) " x="259.131285" y="603.278313" width="28.5636115" height="6.89466484"></rect>
                <rect id="Rectangle-9" fill="#D8D8D8" opacity="0.322860054" transform="translate(297.051942, 582.101842) rotate(-46.000000) translate(-297.051942, -582.101842) " x="282.770136" y="578.65451" width="28.5636115" height="6.89466484"></rect>
                <rect id="Rectangle-9" fill="#D8D8D8" opacity="0.322860054" transform="translate(321.675745, 556.493087) rotate(-43.000000) translate(-321.675745, -556.493087) " x="307.393939" y="553.045755" width="28.5636115" height="6.89466484"></rect>
                <rect id="Rectangle-9" fill="#D8D8D8" opacity="0.322860054" transform="translate(347.679847, 532.447434) rotate(-43.000000) translate(-347.679847, -532.447434) " x="333.398042" y="529.000102" width="28.5636115" height="6.89466484"></rect>
                <rect id="Rectangle-9" fill="#D8D8D8" opacity="0.322860054" transform="translate(375.258507, 508.808583) rotate(-39.000000) translate(-375.258507, -508.808583) " x="360.976701" y="505.361251" width="28.5636115" height="6.89466484"></rect>
                <rect id="Rectangle-9" fill="#D8D8D8" opacity="0.322860054" transform="translate(435.235787, 463.239947) rotate(-35.000000) translate(-435.235787, -463.239947) " x="420.953981" y="459.792614" width="28.5636115" height="6.89466484"></rect>
                <rect id="Rectangle-9" fill="#D8D8D8" opacity="0.322860054" transform="translate(467.739207, 441.571000) rotate(-32.000000) translate(-467.739207, -441.571000) " x="453.457401" y="438.123668" width="28.5636115" height="6.89466484"></rect>
                <rect id="Rectangle-9" fill="#D8D8D8" opacity="0.322860054" transform="translate(499.257674, 422.856910) rotate(-30.000000) translate(-499.257674, -422.856910) " x="484.975869" y="419.409577" width="28.5636115" height="6.89466484"></rect>
                <rect id="Rectangle-9" fill="#D8D8D8" opacity="0.322860054" transform="translate(529.791190, 406.112724) rotate(-26.000000) translate(-529.791190, -406.112724) " x="515.509384" y="402.665391" width="28.5636115" height="6.89466484"></rect>
                <rect id="Rectangle-9" fill="#D8D8D8" opacity="0.322860054" transform="translate(563.067566, 391.250978) rotate(-24.000000) translate(-563.067566, -391.250978) " x="548.78576" y="387.803646" width="28.5636115" height="6.89466484"></rect>
                <rect id="Rectangle-9" fill="#D8D8D8" opacity="0.322860054" transform="translate(595.787412, 377.945620) rotate(-20.000000) translate(-595.787412, -377.945620) " x="581.505606" y="374.498288" width="28.5636115" height="6.89466484"></rect>
                <rect id="Rectangle-9" fill="#D8D8D8" opacity="0.322860054" transform="translate(628.290832, 367.111147) rotate(-17.000000) translate(-628.290832, -367.111147) " x="614.009026" y="363.663815" width="28.5636115" height="6.89466484"></rect>
                <rect id="Rectangle-9" fill="#D8D8D8" opacity="0.322860054" transform="translate(659.809300, 358.246578) rotate(-14.000000) translate(-659.809300, -358.246578) " x="645.527494" y="354.799246" width="28.5636115" height="6.89466484"></rect>
                <rect id="Rectangle-9" fill="#D8D8D8" opacity="0.322860054" transform="translate(691.353667, 350.679630) rotate(-12.000000) translate(-691.353667, -350.679630) " x="677.071861" y="347.232298" width="28.5636115" height="6.89466484"></rect>
                <rect id="Rectangle-9" fill="#D8D8D8" opacity="0.322860054" transform="translate(721.882077, 345.296211) rotate(-7.000000) translate(-721.882077, -345.296211) " x="707.600271" y="341.848878" width="28.5636115" height="6.89466484"></rect>
                <rect id="Rectangle-9" fill="#D8D8D8" opacity="0.322860054" transform="translate(754.388457, 342.405088) rotate(-4.000000) translate(-754.388457, -342.405088) " x="740.106652" y="338.957755" width="28.5636115" height="6.89466484"></rect>
                <rect id="Rectangle-9" fill="#D8D8D8" opacity="0.322860054" transform="translate(788.140503, 341.162151) rotate(-1.000000) translate(-788.140503, -341.162151) " x="773.858697" y="337.714818" width="28.5636115" height="6.89466484"></rect>
                <rect id="Rectangle-9" fill="#D8D8D8" opacity="0.322860054" transform="translate(821.069202, 341.913564) rotate(2.000000) translate(-821.069202, -341.913564) " x="806.787397" y="338.466232" width="28.5636115" height="6.89466484"></rect>
                <rect id="Rectangle-9" fill="#D8D8D8" opacity="0.322860054" transform="translate(854.557575, 344.868421) rotate(7.000000) translate(-854.557575, -344.868421) " x="840.275769" y="341.421088" width="28.5636115" height="6.89466484"></rect>
                <rect id="Rectangle-9" fill="#D8D8D8" opacity="0.322860054" transform="translate(887.231492, 349.785872) rotate(9.000000) translate(-887.231492, -349.785872) " x="872.949686" y="346.338539" width="28.5636115" height="6.89466484"></rect>
                <rect id="Rectangle-9" fill="#D8D8D8" opacity="0.322860054" transform="translate(919.007740, 355.699432) rotate(12.000000) translate(-919.007740, -355.699432) " x="904.725934" y="352.2521" width="28.5636115" height="6.89466484"></rect>
                <rect id="Rectangle-9" fill="#D8D8D8" opacity="0.322860054" transform="translate(950.986662, 363.669465) rotate(15.000000) translate(-950.986662, -363.669465) " x="936.704856" y="360.222132" width="28.5636115" height="6.89466484"></rect>
                <rect id="Rectangle-9" fill="#D8D8D8" opacity="0.322860054" transform="translate(984.825927, 374.225444) rotate(18.000000) translate(-984.825927, -374.225444) " x="970.544122" y="370.778112" width="28.5636115" height="6.89466484"></rect>
                <rect id="Rectangle-9" fill="#D8D8D8" opacity="0.322860054" transform="translate(1016.072601, 385.967290) rotate(21.000000) translate(-1016.072601, -385.967290) " x="1001.7908" y="382.519958" width="28.5636115" height="6.89466484"></rect>
                <rect id="Rectangle-9" fill="#D8D8D8" opacity="0.322860054" transform="translate(1106.018194, 429.247471) rotate(29.000000) translate(-1106.018194, -429.247471) " x="1091.73639" y="425.800139" width="28.5636115" height="6.89466484"></rect>
                <rect id="Rectangle-9" fill="#D8D8D8" opacity="0.322860054" transform="translate(1134.296147, 445.606544) rotate(30.000000) translate(-1134.296147, -445.606544) " x="1120.01434" y="442.159212" width="28.5636115" height="6.89466484"></rect>
                <rect id="Rectangle-9" fill="#D8D8D8" opacity="0.322860054" transform="translate(1162.243502, 462.716058) rotate(33.000000) translate(-1162.243502, -462.716058) " x="1147.9617" y="459.268725" width="28.5636115" height="6.89466484"></rect>
                <polygon id="Rectangle" fill="#2C77F2" points="374.774282 780.168805 399.327237 763.603869 490.846843 768.036745 551.247956 780.168805 638.131626 787.603521 690.980579 765.268292 742.39203 754.070176 811.303059 763.603869 866.99721 762.83345 913.316241 780.168805 964.069588 761.490646 1002.37755 727.817299 1041.09439 760.425161 1041.09439 799.912449 374.774282 799.912449"></polygon>
                <polygon id="Rectangle" fill="#2670E9" points="347.688098 787.600547 373.239142 777.27085 468.479056 780.035139 531.335499 787.600547 621.751026 792.236748 676.74831 778.308764 730.249658 771.325752 801.961948 777.27085 859.920089 776.790426 908.122008 787.600547 960.938499 775.95307 1000.80369 754.954771 1041.09439 775.288646 1041.09439 799.912449 347.688098 799.912449"></polygon>
                <path d="M397.11892,483.043653 L395.391404,481.157512 L393.458754,481.157512 L394.879184,484.705204 L393.458754,488.252895 L395.391404,488.252895 L397.34749,486.117197 L403.342376,486.422898 L400.58789,493.302552 L404.412585,493.302552 L407.473703,489.960354 L410.384743,486.782015 L414.472046,486.990442 C417.724034,487.27905 419.361622,486.595082 419.384811,484.938537 C419.407999,483.281991 417.770411,482.453719 414.472046,482.453719 L410.499505,482.588769 L404.736637,476.296738 L400.911942,476.296738 L403.526072,482.825836 L397.11892,483.043653 Z" id="Combined-Shape" fill="#F2A72C" transform="translate(406.421904, 484.799645) rotate(-40.000000) translate(-406.421904, -484.799645) "></path>
                <path d="M1047.05877,403.121881 L1044.24267,400.047197 L1041.09217,400.047197 L1043.40768,405.830453 L1041.09217,411.613708 L1044.24267,411.613708 L1047.43138,408.132208 L1057.20392,408.630546 L1052.7137,419.845387 L1058.94852,419.845387 L1063.93859,414.397116 L1068.68401,409.215958 L1075.34691,409.555725 C1080.64812,410.026199 1083.31763,408.91123 1083.35543,406.210819 C1083.39323,403.510409 1080.72372,402.160203 1075.34691,402.160203 L1068.87109,402.380354 L1059.47677,392.123424 L1053.24196,392.123424 L1057.50337,402.766809 L1047.05877,403.121881 Z" id="Combined-Shape" fill="#16CCBC" transform="translate(1062.223999, 405.984406) rotate(26.000000) translate(-1062.223999, -405.984406) "></path>
                <path d="M466.166694,553.006347 L458.266755,544.381015 L449.428732,544.381015 L455.924369,560.604632 L449.428732,576.828249 L458.266755,576.828249 L467.211947,567.061685 L494.626604,568.459661 L482.030319,599.920364 L499.520677,599.920364 L513.519191,584.636469 L526.831394,570.101903 L545.522658,571.05504 C560.394022,572.374849 567.882724,569.247057 567.988766,561.671665 C568.094807,554.096272 560.606104,550.308576 545.522658,550.308576 L527.356205,550.926159 L501.002567,522.15266 L483.51221,522.15266 L495.466646,552.010271 L466.166694,553.006347 Z" id="Combined-Shape" fill="#F2A72C" opacity="0.302309783" transform="translate(508.709304, 561.036512) rotate(-40.000000) translate(-508.709304, -561.036512) "></path>
                <path d="M245.080554,503.813415 L240.886019,499.233726 L236.1934,499.233726 L239.64231,507.847785 L236.1934,516.461844 L240.886019,516.461844 L245.63554,511.27621 L260.191571,512.018476 L253.503473,528.722787 L262.790118,528.722787 L270.222741,520.607681 L277.290962,512.890438 L287.215238,513.396513 C295.111307,514.097276 299.087494,512.43655 299.143797,508.414335 C299.200101,504.39212 295.223914,502.381012 287.215238,502.381012 L277.569614,502.708923 L263.57694,487.431404 L254.290295,487.431404 L260.637598,503.284541 L245.080554,503.813415 Z" id="Combined-Shape" fill="#A2A2A2" opacity="0.302309783" transform="translate(267.668893, 508.077096) rotate(-40.000000) translate(-267.668893, -508.077096) "></path>
            </g>
        </g>
    </g>
</svg>