<?xml version="1.0" encoding="UTF-8"?>
<svg width="92px" height="92px" viewBox="0 0 92 92" version="1.1" xmlns="http://www.w3.org/2000/svg" xmlns:xlink="http://www.w3.org/1999/xlink">
    <!-- Generator: Sketch 48.1 (47250) - http://www.bohemiancoding.com/sketch -->
    <title>home</title>
    <desc>Created with Sketch.</desc>
    <defs></defs>
    <g id="dripicons-v2-by-amit-jakhu" stroke="none" stroke-width="1" fill="none" fill-rule="evenodd" transform="translate(-1171.000000, -2237.000000)">
        <path d="M1250.2457,2324.98789 L1250.2457,2285.90189 C1250.2457,2283.69289 1248.4547,2281.90189 1246.2457,2281.90189 C1244.0367,2281.90189 1242.2457,2283.69289 1242.2457,2285.90189 L1242.2457,2320.98789 L1229.7467,2320.98789 L1229.7467,2299.60089 C1229.7467,2296.67389 1227.3657,2294.29289 1224.4387,2294.29289 L1209.5597,2294.29289 C1206.6337,2294.29289 1204.2517,2296.67389 1204.2517,2299.60089 L1204.2517,2320.98789 L1191.7547,2320.98789 L1191.7547,2285.90189 C1191.7547,2283.69289 1189.9637,2281.90189 1187.7547,2281.90189 C1185.5457,2281.90189 1183.7547,2283.69289 1183.7547,2285.90189 L1183.7547,2324.98789 C1183.7547,2327.19689 1185.5457,2328.98789 1187.7547,2328.98789 L1208.2517,2328.98789 C1210.4607,2328.98789 1212.2517,2327.19689 1212.2517,2324.98789 L1212.2517,2302.29289 L1221.7467,2302.29289 L1221.7467,2324.98789 C1221.7467,2327.19689 1223.5377,2328.98789 1225.7467,2328.98789 L1246.2457,2328.98789 C1248.4547,2328.98789 1250.2457,2327.19689 1250.2457,2324.98789 M1258.9997,2285.99689 C1257.9927,2285.99689 1256.9837,2285.61889 1256.2057,2284.85889 L1217.0007,2246.57789 L1177.7947,2284.85889 C1176.2137,2286.40389 1173.6807,2286.37189 1172.1377,2284.79189 C1170.5947,2283.21089 1170.6247,2280.67789 1172.2057,2279.13489 L1214.2057,2238.12589 C1215.7597,2236.60889 1218.2417,2236.60889 1219.7947,2238.12589 L1261.7947,2279.13489 C1263.3747,2280.67789 1263.4057,2283.21089 1261.8617,2284.79189 C1261.0787,2285.59389 1260.0397,2285.99689 1258.9997,2285.99689" id="home" fill="#000000"></path>
    </g>
</svg>