<?xml version="1.0" encoding="UTF-8"?>
<svg width="18px" height="18px" viewBox="0 0 18 18" version="1.1" xmlns="http://www.w3.org/2000/svg" xmlns:xlink="http://www.w3.org/1999/xlink">
    <!-- Generator: Sketch 48.1 (47250) - http://www.bohemiancoding.com/sketch -->
    <title>home</title>
    <desc>Created with Sketch.</desc>
    <defs></defs>
    <g id="company_dashboard" stroke="none" stroke-width="1" fill="none" fill-rule="evenodd" transform="translate(-1324.000000, -122.000000)">
        <g id="home" transform="translate(1325.000000, 123.000000)" fill="#728EAA" fill-rule="nonzero" stroke="#728EAA">
            <path d="M13.294051,15.9999395 L9.79538431,15.9999395 C9.66156613,15.9999395 9.55296007,15.8913335 9.55296007,15.7575153 L9.55296007,10.8217577 L6.22350552,10.8217577 L6.22350552,15.7575153 C6.22350552,15.8913335 6.11489946,15.9999395 5.98108128,15.9999395 L2.48144492,15.9999395 C2.34762673,15.9999395 2.23902067,15.8913335 2.23902067,15.7575153 L2.23902067,7.70563649 L0.242414613,7.70563649 C0.143020674,7.70563649 0.0538085527,7.64503043 0.0169600679,7.55290922 C-0.0194035685,7.460788 0.00386915877,7.35557588 0.0756267345,7.28721225 L7.72071764,0.0663637609 C7.8142934,-0.0223635118 7.9602328,-0.0218786633 8.0542934,0.0663637609 L15.7013237,7.28721225 C15.7730813,7.35557588 15.796354,7.460788 15.7599904,7.55290922 C15.7231419,7.64503043 15.6339298,7.70563649 15.5345358,7.70563649 L13.5364752,7.70563649 L13.5364752,15.7575153 C13.5364752,15.8913335 13.4278692,15.9999395 13.294051,15.9999395 Z M10.0378086,15.515091 L13.0516267,15.515091 L13.0516267,7.46321225 C13.0516267,7.32939406 13.1602328,7.220788 13.294051,7.220788 L14.9245964,7.220788 L7.88750552,0.575939518 L0.852354007,7.220788 L2.48144492,7.220788 C2.6152631,7.220788 2.72386916,7.32939406 2.72386916,7.46321225 L2.72386916,15.515091 L5.73865704,15.515091 L5.73865704,10.5793335 C5.73865704,10.4455153 5.8472631,10.3369092 5.98108128,10.3369092 L9.79538431,10.3369092 C9.92920249,10.3369092 10.0378086,10.4455153 10.0378086,10.5793335 L10.0378086,15.515091 Z" id="Shape"></path>
        </g>
    </g>
</svg>