<?xml version="1.0" encoding="UTF-8"?>
<svg width="59px" height="61px" viewBox="0 0 59 61" version="1.1" xmlns="http://www.w3.org/2000/svg" xmlns:xlink="http://www.w3.org/1999/xlink">
    <!-- Generator: Sketch 45.1 (43504) - http://www.bohemiancoding.com/sketch -->
    <title>idea</title>
    <desc>Created with Sketch.</desc>
    <defs></defs>
    <g id="Page-4" stroke="none" stroke-width="1" fill="none" fill-rule="evenodd">
        <g id="cloudathon" transform="translate(-629.000000, -506.000000)">
            <g id="Group-6" transform="translate(428.000000, 233.000000)">
                <g id="idea" transform="translate(201.000000, 274.000000)">
                    <g id="Group" transform="translate(0.000000, 3.448276)">
                        <path d="M27.7186348,56.1512387 C34.8964613,56.1512387 30.3577206,45.5375177 35.0608166,41.4668751 C39.7619485,37.3979324 53.7064163,39.8733648 53.7064163,33.6653569 C53.7064163,21.2467473 35.0608166,-0.446486107 27.7186348,11.1794751 C20.376453,22.8054363 -4.6462555,12.9565999 1.71501419,23.4966007 C9.77455656,36.8504728 -0.0992923585,53.9812705 9.77455656,49.9305763 C19.6484055,45.8798822 20.7595796,56.1512387 27.7186348,56.1512387 Z" id="Oval-4" fill="#F3F3F3"></path>
                        <g id="Group-11">
                            <g id="Group-9" transform="translate(10.992635, 12.363575)">
                                <rect id="Rectangle-8" fill="#50E3C2" x="9.63853087" y="13.6985747" width="12.2412795" height="19.8192145" rx="6.12063977"></rect>
                                <path d="M7.57793495,25.7209369 C3.08907323,23.5125879 0,18.8934624 0,13.5528452 C0,6.06781548 6.06781548,0 13.5528452,0 C21.0378749,0 27.1056904,6.06781548 27.1056904,13.5528452 C27.1056904,18.7770769 24.1497875,23.3109204 19.8192145,25.5731431 L19.8192145,27.3971495 C19.8192145,30.7774855 17.0789107,33.5177892 13.6985747,33.5177892 L13.6985747,33.5177892 C10.3182387,33.5177892 7.57793495,30.7774855 7.57793495,27.3971495 L7.57793495,25.7209369 Z" id="Combined-Shape" stroke="#0A2463" stroke-width="2"></path>
                                <g id="Group-8" transform="translate(1.669203, 0.638905)">
                                    <circle id="Oval-3" fill="#F9CB7F" cx="13.2356998" cy="13.2356998" r="13.2356998"></circle>
                                    <path d="M9.20939038,25.7751905 C10.5123043,26.2040802 11.9046067,26.4361212 13.3511053,26.4361212 C20.6609804,26.4361212 26.5868051,20.5102966 26.5868051,13.2004214 C26.5868051,9.41348222 24.9964081,5.99800015 22.4470957,3.58545671 C23.1327387,5.39923638 23.507966,7.3654669 23.507966,9.41933646 C23.507966,17.7859531 17.281401,24.6982775 9.20939038,25.7751905 Z" id="Combined-Shape" fill="#ECAD44"></path>
                                </g>
                                <g id="Group-8" transform="translate(4.636341, 1.030298)" fill="#FFFFFF" opacity="0.313802083">
                                    <path d="M1.33128121,13.5265826 C2.0701873,13.7698137 2.85978727,13.9014084 3.68012283,13.9014084 C7.82568562,13.9014084 11.1863283,10.5407658 11.1863283,6.39520297 C11.1863283,4.24756108 10.2843853,2.31057925 8.838624,0.942382111 C9.22746455,1.97100946 9.44026279,3.08609445 9.44026279,4.25088113 C9.44026279,8.99574116 5.90906485,12.9158457 1.33128121,13.5265826 Z" id="Combined-Shape" transform="translate(6.258805, 7.421895) rotate(193.000000) translate(-6.258805, -7.421895) "></path>
                                </g>
                                <rect id="Rectangle-11" stroke="#0A2463" stroke-width="2" x="8.2120857" y="26.2423" width="10.8842583" height="1.66138112"></rect>
                            </g>
                            <rect id="Rectangle-12" fill="#0A2463" x="23.3562102" y="0" width="1.89458111" height="7.72723468" rx="0.947290554"></rect>
                            <g id="Group-10" transform="translate(34.174339, 5.151490)" fill="#0A2463">
                                <rect id="Rectangle-12" transform="translate(2.752186, 3.819636) rotate(30.000000) translate(-2.752186, -3.819636) " x="1.8048958" y="-0.0439812963" width="1.89458111" height="7.72723468" rx="0.947290554"></rect>
                                <rect id="Rectangle-12" transform="translate(9.964272, 12.062020) rotate(60.000000) translate(-9.964272, -12.062020) " x="9.01698151" y="8.19840237" width="1.89458111" height="7.72723468" rx="0.947290554"></rect>
                                <rect id="Rectangle-12" transform="translate(12.025452, 22.880148) rotate(90.000000) translate(-12.025452, -22.880148) " x="11.0775774" y="19.0165309" width="1.89574828" height="7.72723468" rx="0.947874138"></rect>
                            </g>
                            <g id="Group-10" transform="translate(8.383411, 17.220455) scale(-1, 1) translate(-8.383411, -17.220455) translate(0.107549, 5.151490)" fill="#0A2463">
                                <rect id="Rectangle-12" transform="translate(2.752186, 3.819636) rotate(30.000000) translate(-2.752186, -3.819636) " x="1.8048958" y="-0.0439812963" width="1.89458111" height="7.72723468" rx="0.947290554"></rect>
                                <rect id="Rectangle-12" transform="translate(9.964272, 12.062020) rotate(60.000000) translate(-9.964272, -12.062020) " x="9.01698151" y="8.19840237" width="1.89458111" height="7.72723468" rx="0.947290554"></rect>
                                <rect id="Rectangle-12" transform="translate(12.025452, 22.880148) rotate(90.000000) translate(-12.025452, -22.880148) " x="11.0775774" y="19.0165309" width="1.89574828" height="7.72723468" rx="0.947874138"></rect>
                            </g>
                        </g>
                    </g>
                    <circle id="Oval" stroke="#F5A623" stroke-width="2" cx="16.8965517" cy="1.72413793" r="1.72413793"></circle>
                    <circle id="Oval" stroke="#D423F5" stroke-width="2" cx="43.1034483" cy="45.862069" r="1.72413793"></circle>
                    <rect id="Rectangle-2" stroke="#979797" stroke-width="2" x="45.8275862" y="9.96551724" width="3.51724138" height="3.51724138"></rect>
                    <rect id="Rectangle-2" stroke="#FF0000" stroke-width="2" x="1" y="39.6206897" width="3.51724138" height="3.51724138"></rect>
                    <rect id="Rectangle-2" stroke="#8AC85F" stroke-width="2" x="1" y="7.20689655" width="3.51724138" height="3.51724138"></rect>
                    <path d="M57.0913254,36.207317 L52.7590411,40.5396013 L57.0913254,40.5396013 L57.0913254,36.207317 Z" id="Rectangle-5" stroke="#000000" stroke-width="2"></path>
                </g>
            </g>
        </g>
    </g>
</svg>