<?xml version="1.0" encoding="UTF-8"?>
<svg width="30px" height="27px" viewBox="0 0 30 27" version="1.1" xmlns="http://www.w3.org/2000/svg" xmlns:xlink="http://www.w3.org/1999/xlink">
    <!-- Generator: Sketch 48.1 (47250) - http://www.bohemiancoding.com/sketch -->
    <title>044-briefcase</title>
    <desc>Created with Sketch.</desc>
    <defs></defs>
    <g id="Icons" stroke="none" stroke-width="1" fill="none" fill-rule="evenodd">
        <g id="044-briefcase" fill="#D4AF3F" fill-rule="nonzero">
            <path d="M28.6363477,14.5425537 C28.2272461,14.5425537 27.9545508,14.8185547 27.9545508,15.2324672 L27.9545508,24.2016392 C27.9545508,24.615611 27.6817969,24.8915527 27.2727539,24.8915527 L2.72724609,24.8915527 C2.31814453,24.8915527 2.04544922,24.6155518 2.04544922,24.2016392 L2.04544922,15.2324672 C2.04544922,14.8184954 1.77269531,14.5425537 1.36365234,14.5425537 C0.954609375,14.5425537 0.681855469,14.8185547 0.681855469,15.2324672 L0.681855469,24.2016392 C0.681855469,25.3745396 1.56820313,26.271439 2.72730469,26.271439 L27.2727539,26.271439 C28.4318555,26.271439 29.3182031,25.3745396 29.3182031,24.2016392 L29.3182031,15.2324672 C29.3182031,14.8184954 29.0454492,14.5425537 28.6363477,14.5425537 Z" id="Shape"></path>
            <path d="M27.9545508,4.88346819 L2.04544922,4.88346819 C0.886347656,4.88346819 0,5.78036761 0,6.953268 L0,11.3688686 C0,12.3347238 0.681796875,13.1626674 1.56820312,13.3696533 L12.2727539,15.7844099 L12.2727539,17.9921805 C12.2727539,18.4061523 12.5455078,18.682094 12.9545508,18.682094 L17.0454492,18.682094 C17.4545508,18.682094 17.7272461,18.4060931 17.7272461,17.9921805 L17.7272461,15.7844099 L28.4317969,13.3696533 C29.3182031,13.1626674 30,12.3347238 30,11.3688093 L30,6.95320871 C30,5.78036761 29.1136523,4.88346819 27.9545508,4.88346819 Z M16.3636523,17.302267 L13.6364062,17.302267 L13.6364062,14.5425537 L16.3636523,14.5425537 L16.3636523,17.302267 Z M28.6363477,11.3688093 C28.6363477,11.713766 28.4317969,11.989767 28.0908984,12.0587228 L17.7272461,14.4045236 L17.7272461,13.8525809 C17.7272461,13.4386091 17.4544922,13.1626674 17.0454492,13.1626674 L12.9545508,13.1626674 C12.5454492,13.1626674 12.2727539,13.4386684 12.2727539,13.8525809 L12.2727539,14.4045236 L1.90910156,12.0587821 C1.56820313,11.989767 1.36365234,11.7138253 1.36365234,11.3688686 L1.36365234,6.953268 C1.36365234,6.53929618 1.63640625,6.26335449 2.04544922,6.26335449 L27.9545508,6.26335449 C28.3636523,6.26335449 28.6363477,6.53935547 28.6363477,6.953268 L28.6363477,11.3688093 Z" id="Shape"></path>
            <path d="M18.4091016,0.0538957868 L11.5908984,0.0538957868 C10.4317969,0.0538957868 9.54544922,0.950795201 9.54544922,2.12369559 L9.54544922,2.8136091 C9.54544922,3.22758092 9.81820312,3.5035226 10.2272461,3.5035226 C10.6362891,3.5035226 10.909043,3.22752162 10.909043,2.8136091 L10.909043,2.12369559 C10.909043,1.70972377 11.1817969,1.43378209 11.5908398,1.43378209 L18.409043,1.43378209 C18.8181445,1.43378209 19.0908398,1.70978306 19.0908398,2.12369559 L19.0908398,2.8136091 C19.0908398,3.22758092 19.3635937,3.5035226 19.7726367,3.5035226 C20.1817383,3.5035226 20.4544336,3.22752162 20.4544336,2.8136091 L20.4544336,2.12369559 C20.4545508,0.950795201 19.5682031,0.0538957868 18.4091016,0.0538957868 Z" id="Shape"></path>
        </g>
    </g>
</svg>