<?xml version="1.0" encoding="UTF-8"?>
<svg width="73px" height="60px" viewBox="0 0 73 60" version="1.1" xmlns="http://www.w3.org/2000/svg" xmlns:xlink="http://www.w3.org/1999/xlink">
    <!-- Generator: Sketch 45.1 (43504) - http://www.bohemiancoding.com/sketch -->
    <title>join</title>
    <desc>Created with Sketch.</desc>
    <defs>
        <rect id="path-1" x="3.97729328" y="19.3182817" width="37.5501319" height="23.295575" rx="5"></rect>
    </defs>
    <g id="Page-4" stroke="none" stroke-width="1" fill="none" fill-rule="evenodd">
        <g id="cloudathon" transform="translate(-915.000000, -507.000000)">
            <g id="Group-6" transform="translate(428.000000, 233.000000)">
                <g id="join" transform="translate(487.000000, 274.000000)">
                    <path d="M35.197633,58.9700038 C65.8357723,62.468379 83.5647416,34.6869697 64.564088,24.5466558 C45.5634345,14.4063419 32.6758185,0.406209434 22.5985085,15.4674604 C12.5211986,30.5287115 13.5889491,12.4956339 3.96593047,34.0645259 C-5.65708812,55.6334178 4.55949365,55.4716287 35.197633,58.9700038 Z" id="Oval-6" fill="#F3F3F3"></path>
                    <g id="Group-4" transform="translate(15.280107, 10.186738)">
                        <path d="M5.77102636,28.0309634 L19.912217,24.351155 L19.912217,24.351155 C22.4000024,23.7037856 24.9415475,25.1957376 25.5889169,27.683523 C25.9376917,29.023835 25.6714884,30.449848 24.8626444,31.5740596 L22.2154325,35.2534177 L22.2154325,35.2534177 C19.1472243,39.5179182 14.2145543,42.0456719 8.96099685,42.0456719 L6.83024583,42.0456719 L6.83024583,42.0456719 C3.31843237,42.0456719 0.405943024,39.3271258 0.164322913,35.8236342 L0.164322913,35.8236342 L0.164322913,35.8236342 C-0.0845066013,32.2156062 2.27098818,28.9417403 5.77102636,28.0309634 Z" id="Rectangle-13" fill="#D8D8D8"></path>
                        <path d="M24.9429783,28.2628982 L39.0841689,24.5830898 L39.0841689,24.5830898 C41.5719543,23.9357204 44.1134994,25.4276724 44.7608688,27.9154578 C45.1096437,29.2557698 44.8434403,30.6817827 44.0345964,31.8059944 L41.3873844,35.4853525 L41.3873844,35.4853525 C38.3191763,39.749853 33.3865062,42.2776067 28.1329488,42.2776067 L26.0021978,42.2776067 L26.0021978,42.2776067 C22.4903843,42.2776067 19.577895,39.5590606 19.3362749,36.055569 L19.3362749,36.055569 L19.3362749,36.055569 C19.0874454,32.447541 21.4429401,29.1736751 24.9429783,28.2628982 Z" id="Rectangle-13" fill="#D8D8D8" transform="translate(32.114597, 33.354776) scale(-1, 1) translate(-32.114597, -33.354776) "></path>
                        <g id="Group-3" transform="translate(10.795510, 0.000000)">
                            <path d="M10.4254134,6.19288091 L10.4254134,6.19288091 L10.4254134,6.19288091 L10.4254134,6.19288091 C16.0633322,7.16059276 20.0292369,12.273114 19.5647686,17.9745931 L18.8802547,26.3771938 L18.8802547,26.3771938 C18.6082921,29.715612 15.8195793,32.2863819 12.4701017,32.2863819 L12.4701017,32.2863819 L12.4701017,32.2863819 C8.99515628,32.2863819 5.97557559,29.8986765 5.17437798,26.517356 L2.81240959,16.5490635 L2.81240959,16.5490635 C1.73860967,12.0172706 4.54186687,7.47303975 9.07365979,6.39923983 C9.51791517,6.29397434 9.96998559,6.2249612 10.4254134,6.19288091 Z" id="Rectangle-9" fill="#FFEAC6"></path>
                            <g id="Group-2" transform="translate(5.901812, 15.969608)">
                                <circle id="Oval-5" stroke="#0A2463" cx="2.22029901" cy="2.22029901" r="2.22029901"></circle>
                                <circle id="Oval-5" stroke="#0A2463" cx="8.59159182" cy="2.22029901" r="2.22029901"></circle>
                                <rect id="Rectangle-12" fill="#0A2463" transform="translate(5.478071, 2.340698) rotate(90.000000) translate(-5.478071, -2.340698) " x="5.11221697" y="1.25907584" width="1" height="2.1632451" rx="0.5"></rect>
                            </g>
                            <path d="M0.347165397,5.20748095 C0.730766243,2.78021734 2.76511814,0.263086277 10.6359633,1.11540445 C18.5068084,1.96772262 15.4483279,-1.73549061 18.6364081,1.11540445 C20.7617949,3.01600115 21.5399788,6.09664201 20.9709598,10.357327 L19.6056912,16.0204626 C18.8914753,13.6015124 17.3391759,12.0465007 14.9487928,11.3554275 C11.3632183,10.3188177 11.750057,8.93883091 8.73473563,12.0795929 C6.72452141,14.1734342 4.73464892,15.4870574 2.76511814,16.0204626 C0.897415748,10.4299839 0.0914314995,6.8256567 0.347165397,5.20748095 Z" id="Rectangle-10" fill="#F6BD5D"></path>
                            <path d="M8.91050276,2.80304662 C3.10467291,2.63160325 1.50537626,4.26405191 1.1795689,5.84338858 C0.940437135,7.00256913 1.69409723,9.58452972 3.44054918,13.5892703 C3.91234588,13.4913832 4.38539089,13.3568161 4.85968421,13.1855692 C3.2378727,9.41053554 2.54246604,6.96314199 2.77346422,5.84338858 C3.06722494,4.41939659 4.39627312,2.95222702 8.91050276,2.80304662 Z M13.5985216,2.98785337 C16.9918223,2.8185772 16.0599176,1.52173431 17.6059719,2.46839822 C17.057897,2.74994845 16.0537569,3.08745107 13.5985216,2.98785337 Z M19.7144574,11.9158271 L19.1878394,13.5892703 C18.5199901,11.8564549 17.0684653,10.7425219 14.8332649,10.2474715 C13.6943763,9.99523132 12.984086,9.71460913 12.4321187,9.54217345 C13.5377682,9.06785075 14.0445415,9.71977094 16.4271602,10.2474715 C17.8328845,10.5588102 18.9286502,11.1149287 19.7144574,11.9158271 Z" id="Combined-Shape" fill="#FFC86D"></path>
                        </g>
                        <g id="Rectangle-7">
                            <use fill="#326ADA" fill-rule="evenodd" xlink:href="#path-1"></use>
                            <rect stroke="#326ADA" stroke-width="2" x="4.97729328" y="20.3182817" width="35.5501319" height="21.295575" rx="5"></rect>
                        </g>
                        <path d="M8.97729328,19.3182817 L37.6472338,19.3182817 L15.1290288,42.6138566 L8.97729328,42.6138566 L8.97729328,42.6138566 C6.21586954,42.6138566 3.97729328,40.3752804 3.97729328,37.6138566 L3.97729328,24.3182817 L3.97729328,24.3182817 C3.97729328,21.5568579 6.21586954,19.3182817 8.97729328,19.3182817 Z" id="Rectangle-7" fill="#FFFFFF" opacity="0.123641304"></path>
                        <path d="M8.97729328,19.3182817 L33.1017558,19.3182817 L10.5835508,42.6138566 L8.97729328,42.6138566 L8.97729328,42.6138566 C6.21586954,42.6138566 3.97729328,40.3752804 3.97729328,37.6138566 L3.97729328,24.3182817 L3.97729328,24.3182817 C3.97729328,21.5568579 6.21586954,19.3182817 8.97729328,19.3182817 Z" id="Rectangle-7" fill="#FFFFFF" opacity="0.123641304"></path>
                    </g>
                    <circle id="Oval-7" fill="#FF0000" cx="2.97113186" cy="22.4957127" r="2.12223704"></circle>
                    <circle id="Oval-7" fill="#F5A623" cx="40.3225038" cy="2.12223704" r="2.12223704"></circle>
                    <circle id="Oval-7" fill="#50E3C2" cx="60.6959794" cy="26.7401867" r="2.12223704"></circle>
                    <rect id="Rectangle-14" fill="#6233AC" x="52.6314787" y="6.79115854" width="5.94226372" height="5.94226372"></rect>
                    <rect id="Rectangle-14" fill="#000000" x="9.33784299" y="36.5024771" width="5.94226372" height="5.94226372"></rect>
                    <polygon id="Rectangle-5" fill="#7ED321" points="68.1088871 31.4091082 68.1088871 40.9442529 58.5737424 40.9442529"></polygon>
                    <polygon id="Rectangle-5" fill="#2462AF" transform="translate(21.340105, 11.153367) rotate(109.000000) translate(-21.340105, -11.153367) " points="26.107677 6.3857945 26.107677 15.9209392 16.5725323 15.9209392"></polygon>
                </g>
            </g>
        </g>
    </g>
</svg>