<?xml version="1.0" encoding="UTF-8"?>
<svg width="17px" height="20px" viewBox="0 0 17 20" version="1.1" xmlns="http://www.w3.org/2000/svg" xmlns:xlink="http://www.w3.org/1999/xlink">
    <!-- Generator: Sketch 48.1 (47250) - http://www.bohemiancoding.com/sketch -->
    <title>logout (1)</title>
    <desc>Created with Sketch.</desc>
    <defs></defs>
    <g id="Icons" stroke="none" stroke-width="1" fill="none" fill-rule="evenodd">
        <g id="logout-(1)" fill="#000000" fill-rule="nonzero">
            <path d="M9.87097656,19.2157031 L1.63222656,19.2157031 C1.2015625,19.2157031 0.81078125,18.8387891 0.81078125,18.4083203 L0.81078125,1.53867187 C0.81078125,1.10820312 1.20160156,0.784335938 1.63222656,0.784335938 L9.87097656,0.784335938 C10.0875391,0.784335938 10.263125,0.608945313 10.263125,0.3921875 C10.263125,0.175390625 10.0875,0 9.87097656,0 L1.63222656,0 C0.76921875,0 0.0264453125,0.67546875 0.0264453125,1.53867187 L0.0264453125,18.4083203 C0.0264453125,19.2714844 0.76921875,20 1.63222656,20 L9.87097656,20 C10.0875391,20 10.263125,19.8246094 10.263125,19.6078516 C10.263125,19.3910938 10.0875,19.2157031 9.87097656,19.2157031 Z" id="Shape"></path>
            <path d="M16.0447266,9.51507813 L12.5153125,5.59351563 C12.3703516,5.43230469 12.1223828,5.41964844 11.9615625,5.56441406 C11.8005078,5.70917969 11.7875,5.97066406 11.9324609,6.13148438 L14.8727734,9.41179688 L5.949375,9.41179688 C5.7328125,9.41179688 5.55722656,9.5871875 5.55722656,9.80394531 C5.55722656,10.0207031 5.7328125,10.1960937 5.949375,10.1960937 L14.8066016,10.1960937 L11.9466016,13.0428516 C11.7933984,13.1960547 11.7933984,13.4375 11.9466016,13.5907031 C12.0232031,13.6673047 12.1235156,13.7023437 12.2238672,13.7023437 C12.3242188,13.7023437 12.4245312,13.6624219 12.5011328,13.5858203 L16.0305469,10.0555469 C16.1780078,9.90808594 16.1843359,9.67015625 16.0447266,9.51507813 Z" id="Shape"></path>
        </g>
    </g>
</svg>