<?xml version="1.0" encoding="UTF-8"?>
<svg width="21px" height="15px" viewBox="0 0 21 15" version="1.1" xmlns="http://www.w3.org/2000/svg" xmlns:xlink="http://www.w3.org/1999/xlink">
    <!-- Generator: Sketch 48.1 (47250) - http://www.bohemiancoding.com/sketch -->
    <title>mail copy</title>
    <desc>Created with Sketch.</desc>
    <defs></defs>
    <g id="contacts" stroke="none" stroke-width="1" fill="none" fill-rule="evenodd" transform="translate(-1277.000000, -414.000000)">
        <g id="mail-copy" transform="translate(1277.000000, 414.000000)" fill="#000000" fill-rule="nonzero">
            <g id="Group" transform="translate(3.260870, 7.173913)">
                <path d="M13.1145652,4.24565217 C13.0343478,4.24565217 12.9541304,4.21630435 12.8915217,4.15695652 L9.13891304,0.636521739 C9.00782609,0.513913043 9.00130435,0.307173913 9.12456522,0.176086957 C9.24782609,0.0436956522 9.45326087,0.037826087 9.58565217,0.16173913 L13.3382609,3.68217391 C13.4693478,3.80478261 13.4758696,4.01152174 13.3526087,4.1426087 C13.2880435,4.21108696 13.2019565,4.24565217 13.1145652,4.24565217 Z" id="Shape"></path>
                <path d="M0.58826087,4.24565217 C0.501521739,4.24565217 0.414782609,4.21108696 0.350217391,4.1426087 C0.226956522,4.01152174 0.233478261,3.80478261 0.364565217,3.68217391 L4.11847826,0.16173913 C4.25021739,0.0391304348 4.45695652,0.0443478261 4.57956522,0.176086957 C4.70282609,0.307173913 4.69630435,0.513913043 4.56521739,0.636521739 L0.811304348,4.15695652 C0.748695652,4.21630435 0.668478261,4.24565217 0.58826087,4.24565217 Z" id="Shape"></path>
            </g>
            <path d="M18.5947826,14.6928261 L1.63043478,14.6928261 C0.73173913,14.6928261 0,13.9617391 0,13.0623913 L0,1.94478261 C0,1.04543478 0.73173913,0.314347826 1.63043478,0.314347826 L18.5947826,0.314347826 C19.4934783,0.314347826 20.2252174,1.04543478 20.2252174,1.94478261 L20.2252174,13.0623913 C20.2252174,13.9617391 19.4934783,14.6928261 18.5947826,14.6928261 Z M1.63043478,0.966521739 C1.09108696,0.966521739 0.652173913,1.40543478 0.652173913,1.94478261 L0.652173913,13.0623913 C0.652173913,13.6017391 1.09108696,14.0406522 1.63043478,14.0406522 L18.5947826,14.0406522 C19.1341304,14.0406522 19.5730435,13.6017391 19.5730435,13.0623913 L19.5730435,1.94478261 C19.5730435,1.40543478 19.1341304,0.966521739 18.5947826,0.966521739 L1.63043478,0.966521739 Z" id="Shape"></path>
            <path d="M10.1126087,9.14217391 C9.67891304,9.14217391 9.24521739,8.99804348 8.91521739,8.71043478 L0.541304348,1.40543478 C0.405652174,1.2873913 0.391304348,1.08130435 0.509347826,0.945 C0.628695652,0.809347826 0.834130435,0.796956522 0.969782609,0.913695652 L9.34369565,8.21804348 C9.76043478,8.58130435 10.4647826,8.58130435 10.8808696,8.21804348 L19.2443478,0.925434783 C19.3793478,0.807391304 19.5847826,0.820434783 19.7047826,0.95673913 C19.8228261,1.09304348 19.8091304,1.29847826 19.6734783,1.41717391 L11.31,8.70978261 C10.9793478,8.99804348 10.5463043,9.14217391 10.1126087,9.14217391 Z" id="Shape"></path>
        </g>
    </g>
</svg>