<svg xmlns="http://www.w3.org/2000/svg" width="21" height="15" viewBox="0 0 21 15">
    <g fill="#fff" fill-rule="nonzero">
        <path d="M16.375 11.42c-.08 0-.16-.03-.223-.09L12.4 7.81a.326.326 0 1 1 .447-.474l3.752 3.52a.326.326 0 0 1-.224.564zM3.85 11.42a.326.326 0 0 1-.225-.564l3.754-3.52a.326.326 0 0 1 .447.474l-3.754 3.52a.323.323 0 0 1-.223.09z"/>
        <path d="M18.595 14.693H1.63c-.898 0-1.63-.731-1.63-1.63V1.944c0-.9.732-1.63 1.63-1.63h16.965c.898 0 1.63.73 1.63 1.63v11.117c0 .9-.732 1.63-1.63 1.63zM1.63.967a.98.98 0 0 0-.978.978v11.117c0 .54.44.979.978.979h16.965a.98.98 0 0 0 .978-.979V1.945a.98.98 0 0 0-.978-.978H1.63z"/>
        <path d="M10.113 9.142c-.434 0-.868-.144-1.198-.432L.541 1.405A.327.327 0 0 1 .51.945.328.328 0 0 1 .97.914l8.375 7.304c.416.363 1.12.363 1.537 0L19.244.925a.326.326 0 0 1 .43.492L11.31 8.71c-.33.288-.764.432-1.197.432z"/>
    </g>
</svg>
