<svg width="27" height="30" viewBox="0 0 27 30" version="1.1" xmlns="http://www.w3.org/2000/svg" xmlns:xlink="http://www.w3.org/1999/xlink">
<title>Group</title>
<desc>Created using Figma</desc>
<g id="Canvas" transform="translate(487 -66)">
<g id="Group">
<g id="Canvas">
<g id="map_marker">
<g id="Icons">
<g id="marker copy 2">
<g id="Combined Shape">
<g id="Vector" filter="url(#filter0_d)">
<g id="Vector">
<use xlink:href="#path0_fill" transform="translate(-485 66)" fill="#FB1A1A"/>
</g>
</g>
</g>
<g id="bike side view">
<g id="Shape">
<g id="Vector">
<use xlink:href="#path1_fill" transform="matrix(-1 0 0 1 -466 72.5021)" fill="#FFFFFF"/>
</g>
</g>
<g id="Shape">
<g id="Vector">
<use xlink:href="#path2_fill" transform="matrix(-1 0 0 1 -471.573 72.0371)" fill="#FFFFFF"/>
</g>
</g>
</g>
</g>
</g>
</g>
</g>
</g>
</g>
<defs>
<filter id="filter0_d" filterUnits="userSpaceOnUse" x="-487" y="66" width="27" height="30" color-interpolation-filters="sRGB">
<feFlood flood-opacity="0" result="BackgroundImageFix"/>
<feColorMatrix in="SourceAlpha" type="matrix" values="0 0 0 0 0 0 0 0 0 0 0 0 0 0 0 0 0 0 255 0"/>
<feOffset dx="0" dy="2"/>
<feGaussianBlur stdDeviation="1"/>
<feColorMatrix type="matrix" values="0 0 0 0 0 0 0 0 0 0 0 0 0 0 0 0 0 0 0.125113 0"/>
<feBlend mode="normal" in2="BackgroundImageFix" result="effect1_dropShadow"/>
<feBlend mode="normal" in="SourceGraphic" in2="effect1_dropShadow" result="shape"/>
</filter>
<path id="path0_fill" d="M 14.5732 22.2578L 11.1289 25.7021L 7.68461 22.2578L 3 22.2578C 1.34315 22.2578 1.09108e-15 20.9147 8.88178e-16 19.2578L 4.99237e-33 3C -2.02906e-16 1.34315 1.34315 3.04359e-16 3 -4.99237e-33L 19.2578 -4.99237e-33C 20.9147 -3.04359e-16 22.2578 1.34315 22.2578 3L 22.2578 19.2578C 22.2578 20.9147 20.9147 22.2578 19.2578 22.2578L 14.5732 22.2578Z"/>
<path id="path1_fill" d="M 13.1525 3.34073C 11.9525 3.34073 10.9292 4.08774 10.5157 5.1409C 10.2609 5.09833 10.046 5.08368 9.91486 5.11875L 9.89377 4.80029C 9.89377 4.80029 10.4033 4.71544 10.4881 3.97232C 10.573 3.22917 12.1228 1.50943 13.3543 1.31839C 14.5856 1.1273 15.6472 0.702607 15.6472 0.702607C 15.6472 0.702607 14.8617 0.851123 13.3754 1.02107C 11.8891 1.19097 10.4667 3.33511 9.55392 3.42025C 8.64106 3.50511 7.93259 2.91479 5.81718 1.27582C 5.73968 1.216 5.66616 1.18977 5.59909 1.18328L 5.75058 0.831231C 5.49434 0.690402 5.31805 0.421093 5.31805 0.108204C 5.31805 0.0712553 5.32416 0.0357958 5.32901 -8.42145e-16C 5.30912 0.0236396 5.29033 0.0483844 5.27726 0.0786066L 3.89285 3.29235C 3.56555 3.16036 3.20889 3.08598 2.83407 3.08598C 1.269 3.08598 0 4.35469 0 5.92014C 0 7.48531 1.269 8.75445 2.83431 8.75445C 4.39962 8.75445 5.66861 7.4856 5.66861 5.92014C 5.66861 4.99311 5.22177 4.17283 4.5341 3.65583L 5.25098 1.9915C 5.38984 2.17667 6.0321 3.06431 6.39063 4.12079C 6.79395 5.30979 7.09127 6.37117 8.89581 5.96786C 9.35683 5.86465 9.8524 5.84399 10.3351 5.8696C 10.3246 5.96987 10.3181 6.07159 10.3181 6.17489C 10.3181 7.74006 11.587 9.0092 13.1524 9.0092C 14.7179 9.0092 15.9867 7.74035 15.9867 6.17489C 15.9868 4.60925 14.7179 3.34073 13.1525 3.34073ZM 4.90431 5.92014C 4.90431 7.06138 3.97564 7.99015 2.83431 7.99015C 1.69297 7.99015 0.7643 7.06167 0.7643 5.92014C 0.7643 4.77867 1.69297 3.85004 2.83431 3.85004C 3.10126 3.85004 3.35577 3.90256 3.59015 3.99495L 2.82335 5.77514C 2.75969 5.92264 2.81292 6.08735 2.94203 6.14309L 3.14691 6.2314C 3.27606 6.28713 3.4325 6.21252 3.49598 6.06496L 4.21924 4.38631C 4.63885 4.7655 4.90431 5.31162 4.90431 5.92014ZM 13.1525 8.24495C 12.011 8.24495 11.0825 7.31642 11.0825 6.17494C 11.0825 6.09783 11.0875 6.02167 11.0956 5.94652C 12.1747 6.10225 13.0355 6.41379 13.0355 6.41379C 13.0355 6.41379 13.5028 6.62602 13.6939 6.24389C 13.885 5.86172 13.2905 5.86172 12.887 5.77686C 12.6656 5.73007 11.9582 5.49199 11.2738 5.31113C 11.602 4.60055 12.3195 4.10508 13.1525 4.10508C 14.294 4.10508 15.2225 5.03375 15.2225 6.17499C 15.2225 7.31642 14.294 8.24495 13.1525 8.24495Z"/>
<path id="path2_fill" d="M 0.0374299 0.37415C 0.0143187 0.436372 -1.16297e-15 0.502919 -1.16297e-15 0.573213C -1.16297e-15 0.781598 0.112336 0.96221 0.27839 1.06263C 0.364829 1.11486 0.465009 1.14647 0.573213 1.14647C 0.889946 1.14647 1.14643 0.889946 1.14643 0.573213C 1.14643 0.25648 0.889946 1.1085e-08 0.573213 1.1085e-08C 0.326919 -4.80371e-05 0.118679 0.156108 0.0374299 0.37415Z"/>
</defs>
</svg>
