<?xml version="1.0" encoding="UTF-8"?>
<svg width="27px" height="30px" viewBox="0 0 27 30" version="1.1" xmlns="http://www.w3.org/2000/svg" xmlns:xlink="http://www.w3.org/1999/xlink">
    <!-- Generator: Sketch 48.1 (47250) - http://www.bohemiancoding.com/sketch -->
    <title>marker copy 2</title>
    <desc>Created with Sketch.</desc>
    <defs>
        <path d="M14.5731953,22.2578011 L11.1289006,25.7020959 L7.68460586,22.2578011 L3,22.2578011 C1.34314575,22.2578011 6.46995335e-16,20.9146554 4.4408921e-16,19.2578011 L-4.4408921e-16,3 C-6.46995335e-16,1.34314575 1.34314575,7.48448398e-16 3,4.4408921e-16 L19.2578011,4.4408921e-16 C20.9146554,1.39730022e-16 22.2578011,1.34314575 22.2578011,3 L22.2578011,19.2578011 C22.2578011,20.9146554 20.9146554,22.2578011 19.2578011,22.2578011 L14.5731953,22.2578011 Z" id="path-1"></path>
        <filter x="-18.0%" y="-8.2%" width="135.9%" height="132.7%" filterUnits="objectBoundingBox" id="filter-2">
            <feOffset dx="0" dy="2" in="SourceAlpha" result="shadowOffsetOuter1"></feOffset>
            <feGaussianBlur stdDeviation="1" in="shadowOffsetOuter1" result="shadowBlurOuter1"></feGaussianBlur>
            <feColorMatrix values="0 0 0 0 0   0 0 0 0 0   0 0 0 0 0  0 0 0 0.125113225 0" type="matrix" in="shadowBlurOuter1"></feColorMatrix>
        </filter>
    </defs>
    <g id="Icons" stroke="none" stroke-width="1" fill="none" fill-rule="evenodd">
        <g id="marker-copy-2" transform="translate(2.000000, 0.000000)">
            <g id="Combined-Shape">
                <use fill="black" fill-opacity="1" filter="url(#filter-2)" xlink:href="#path-1"></use>
                <use fill="#D4AF3F" fill-rule="evenodd" xlink:href="#path-1"></use>
            </g>
            <g id="bike-side-view" transform="translate(11.000000, 11.000000) scale(-1, 1) translate(-11.000000, -11.000000) translate(3.000000, 6.000000)" fill="#FFFFFF" fill-rule="nonzero">
                <path d="M13.1524805,3.84278679 C11.9525285,3.84278679 10.9292492,4.58978979 10.5157477,5.64295495 C10.2609489,5.60038438 10.04603,5.58572973 9.91485886,5.6208048 L9.89376577,5.30234234 C9.89376577,5.30234234 10.4032673,5.21748949 10.4881201,4.47437838 C10.572973,3.73121922 12.1227628,2.01148348 13.3542823,1.82044444 C14.5855616,1.62935736 15.6471832,1.20466066 15.6471832,1.20466066 C15.6471832,1.20466066 14.8617417,1.35317718 13.3754234,1.52312312 C11.8891051,1.69302102 10.4667387,3.83716517 9.55392192,3.92230631 C8.64105706,4.00715916 7.93258859,3.41684084 5.81717718,1.77787387 C5.73967568,1.71805405 5.66616216,1.69181982 5.59908709,1.68533333 L5.75058258,1.33328529 C5.49434234,1.19245646 5.31805405,0.923147147 5.31805405,0.610258258 C5.31805405,0.573309309 5.32415616,0.53784985 5.32900901,0.502054054 C5.30911712,0.525693694 5.29033033,0.550438438 5.27726126,0.580660661 L3.89285285,3.7944024 C3.56554955,3.66241441 3.20888889,3.58803604 2.83406607,3.58803604 C1.268997,3.58803604 0,4.85674474 0,6.4221982 C0,7.98736336 1.268997,9.2565045 2.83430631,9.2565045 C4.39961562,9.2565045 5.66861261,7.98765165 5.66861261,6.4221982 C5.66861261,5.49515916 5.22176577,4.67488288 4.5341021,4.15788589 L5.25097898,2.49354955 C5.38983784,2.67872673 6.0320961,3.56636637 6.39063063,4.62284685 C6.79394595,5.81184384 7.09126727,6.87322523 8.89580781,6.46990991 C9.35682883,6.3667027 9.8523964,6.34604204 10.3350871,6.37165165 C10.3246126,6.47192793 10.3181261,6.57364565 10.3181261,6.67694895 C10.3181261,8.24211411 11.587027,9.51125526 13.1524324,9.51125526 C14.7178859,9.51125526 15.9867387,8.2424024 15.9867387,6.67694895 C15.9867868,5.1113033 14.7179339,3.84278679 13.1524805,3.84278679 Z M4.90431231,6.4221982 C4.90431231,7.56343544 3.97563964,8.4922042 2.83430631,8.4922042 C1.69297297,8.4922042 0.7643003,7.56372372 0.7643003,6.4221982 C0.7643003,5.28072072 1.69297297,4.3520961 2.83430631,4.3520961 C3.10126126,4.3520961 3.35577177,4.40461261 3.59015015,4.49700901 L2.82335135,6.27718919 C2.75968769,6.4246967 2.81292492,6.58940541 2.94203003,6.64514114 L3.14690691,6.73345345 C3.27606006,6.78918919 3.4325045,6.71457057 3.49597598,6.56701502 L4.21924324,4.88836036 C4.63884685,5.26755556 4.90431231,5.81366967 4.90431231,6.4221982 Z M13.1524805,8.747003 C12.011003,8.747003 11.0825225,7.81847447 11.0825225,6.676997 C11.0825225,6.59987988 11.0875195,6.52372372 11.0956396,6.44857658 C12.1747027,6.6043003 13.0355315,6.91584384 13.0355315,6.91584384 C13.0355315,6.91584384 13.5027988,7.12807207 13.6938859,6.74594595 C13.884973,6.36377177 13.2905225,6.36377177 12.887015,6.27891892 C12.6656096,6.23212012 11.9582462,5.99404204 11.2738018,5.81318919 C11.60197,5.10260661 12.3195195,4.60713514 13.1524805,4.60713514 C14.294006,4.60713514 15.2224865,5.53580781 15.2224865,6.67704505 C15.2224865,7.81847447 14.294006,8.747003 13.1524805,8.747003 Z" id="Shape"></path>
                <path d="M5.61052252,0.411243243 C5.58741141,0.473465465 5.57309309,0.540012012 5.57309309,0.610306306 C5.57309309,0.818690691 5.68542943,0.999303303 5.85148348,1.09972372 C5.93792192,1.15195195 6.0381021,1.18356757 6.14630631,1.18356757 C6.46303904,1.18356757 6.71951952,0.927039039 6.71951952,0.610306306 C6.71951952,0.293573574 6.46303904,0.0370930931 6.14630631,0.0370930931 C5.90001201,0.037045045 5.69177177,0.193201201 5.61052252,0.411243243 Z" id="Shape"></path>
            </g>
        </g>
    </g>
</svg>