<?xml version="1.0" encoding="UTF-8"?>
<svg width="18px" height="18px" viewBox="0 0 18 18" version="1.1" xmlns="http://www.w3.org/2000/svg" xmlns:xlink="http://www.w3.org/1999/xlink">
    <!-- Generator: Sketch 48.1 (47250) - http://www.bohemiancoding.com/sketch -->
    <title>Combined Shape</title>
    <desc>Created with Sketch.</desc>
    <defs></defs>
    <g id="Icons" stroke="none" stroke-width="1" fill="none" fill-rule="evenodd">
        <path d="M2,9 L2,8 L0,8 L0,6 L2,6 L2,-2.84217094e-14 L5.01278687,-2.84217094e-14 L8.60996654,6 L14.0205049,6 L14.0028229,-2.84217094e-14 L16,-2.84217094e-14 L16,6 L18,6 L18,8 L16,8 L16,9 L18,9 L18,11 L16,11 L16,17.0042759 L13.0005493,17.0042759 L9.39669299,11 L4.00019836,11 L4.00019836,17.0042759 L2,17.0042759 L2,11 L0,11 L0,9 L2,9 Z M4.00019836,9 L8.19626303,9 L7.59604806,8 L4.00019836,8 L4.00019836,9 Z M10.4085564,9 L14.0293459,9 L14.0263989,8 L9.80902644,8 L10.4085564,9 Z M11.6076163,11 L14.0472318,15.0692139 L14.0352399,11 L11.6076163,11 Z M6.3956181,6 L4.00019836,2.00906372 L4.00019836,6 L6.3956181,6 Z" id="Combined-Shape" fill="#728EAA"></path>
    </g>
</svg>