<svg width="19" height="20" viewBox="0 0 19 20" version="1.1" xmlns="http://www.w3.org/2000/svg" xmlns:xlink="http://www.w3.org/1999/xlink">
<title>musical-bell-outline</title>
<desc>Created using Figma</desc>
<g id="Canvas" transform="translate(605 131)">
<g id="musical-bell-outline">
<g id="Group">
<g id="Vector">
<use xlink:href="#path0_fill" transform="translate(-605 -131)" fill="#FFFFFF"/>
</g>
</g>
</g>
</g>
<defs>
<path id="path0_fill" d="M 15.3678 11.2779C 14.6464 9.51829 14.2856 7.66378 14.2856 5.71432C 14.2856 4.48668 13.9286 3.51207 13.2145 2.79026C 12.5 2.06849 11.5178 1.63309 10.2678 1.48435C 10.3272 1.35051 10.3569 1.21287 10.3569 1.07148C 10.3569 0.77384 10.2528 0.52065 10.0445 0.312491C 9.83621 0.104099 9.58325 0 9.28558 0C 8.9881 0 8.73506 0.104099 8.52667 0.312491C 8.31832 0.520806 8.21422 0.77384 8.21422 1.07148C 8.21422 1.21287 8.24393 1.35039 8.30354 1.48435C 7.05353 1.63325 6.07134 2.06845 5.35707 2.79026C 4.64285 3.51203 4.28575 4.48664 4.28575 5.71432C 4.28575 7.66378 3.92498 9.51829 3.20317 11.2779C 2.4814 13.0376 1.41376 14.5165 2.80344e-08 15.7144C 2.80344e-08 16.1012 0.141391 16.4361 0.424135 16.7188C 0.706839 17.0014 1.04161 17.143 1.42865 17.143L 6.42863 17.143C 6.42863 17.9317 6.70754 18.6051 7.2656 19.163C 7.8237 19.7209 8.49712 20 9.28573 20C 10.0745 20 10.7479 19.7209 11.3057 19.163C 11.8637 18.6051 12.1428 17.9317 12.1428 17.143L 17.1427 17.143C 17.5296 17.143 17.8647 17.0017 18.1471 16.7188C 18.4299 16.4361 18.5713 16.1012 18.5713 15.7144C 17.1578 14.5165 16.0901 13.0376 15.3678 11.2779ZM 9.28573 19.107C 8.74261 19.107 8.27926 18.9157 7.89614 18.5325C 7.51301 18.1492 7.32138 17.6859 7.32138 17.1427C 7.32138 17.0236 7.38096 16.9641 7.49995 16.9641C 7.61902 16.9641 7.6786 17.0236 7.6786 17.1427C 7.6786 17.5817 7.83664 17.9593 8.15285 18.2756C 8.46913 18.592 8.84667 18.75 9.28569 18.75C 9.40477 18.75 9.46454 18.8098 9.46454 18.9286C 9.46461 19.0477 9.4048 19.107 9.28573 19.107ZM 2.04249 15.7144C 3.26279 14.3676 4.17974 12.8368 4.79354 11.1218C 5.40734 9.4068 5.7144 7.60432 5.7144 5.71448C 5.7144 3.80971 6.90479 2.85738 9.28573 2.85738C 11.6666 2.85738 12.8571 3.80971 12.8571 5.71448C 12.8571 7.60432 13.164 9.4068 13.7779 11.1218C 14.3915 12.8369 15.309 14.3676 16.5291 15.7144L 2.04249 15.7144Z"/>
</defs>
</svg>
