<?xml version="1.0" encoding="UTF-8"?>
<svg width="24px" height="22px" viewBox="0 0 24 22" version="1.1" xmlns="http://www.w3.org/2000/svg" xmlns:xlink="http://www.w3.org/1999/xlink">
    <!-- Generator: Sketch 48.1 (47250) - http://www.bohemiancoding.com/sketch -->
    <title>package</title>
    <desc>Created with Sketch.</desc>
    <defs></defs>
    <g id="Icons" stroke="none" stroke-width="1" fill="none" fill-rule="evenodd">
        <g id="package" transform="translate(1.000000, 1.000000)" fill="#FF5AB7" fill-rule="nonzero" stroke="#FF65BF" stroke-width="0.25">
            <path d="M21.9999141,2.7360711 C21.9999141,2.73365262 21.9996133,2.73123415 21.9995273,2.72877249 C21.9992695,2.71914178 21.9987109,2.70964063 21.9975938,2.70022586 C21.9971641,2.6967709 21.9965195,2.69331594 21.9960039,2.68986097 C21.9947149,2.68118038 21.993125,2.67262935 21.9911485,2.66425107 C21.990375,2.66092566 21.9895157,2.65764345 21.9886133,2.65431805 C21.9861211,2.64520559 21.9832852,2.63626587 21.9800196,2.62745572 C21.979418,2.62577142 21.9790313,2.62404394 21.9783868,2.62240283 L21.10419,0.373135939 C21.0160613,0.146490406 20.8026361,0 20.5605079,0 L18.9687779,0 C18.7952706,0 18.6546343,0.141351149 18.6546343,0.315740376 C18.6546343,0.490129603 18.7952706,0.631480752 18.9687779,0.631480752 L20.5300861,0.631480752 L21.2257912,2.42153996 L14.648411,2.42153996 L14.2362989,0.631480752 L16.6654445,0.631480752 C16.8389518,0.631480752 16.9795881,0.490129603 16.9795881,0.315740376 C16.9795881,0.141351149 16.8389518,0 16.6654445,0 L13.8411593,0 L10.6757892,0 L3.95639765,0 C3.71422644,0 3.50084422,0.146490406 3.41271556,0.373222313 L2.53851876,2.62240283 C2.53787423,2.62408713 2.53753049,2.62581461 2.53688596,2.62745572 C2.53362034,2.63622268 2.53078441,2.6451624 2.52829223,2.65431805 C2.52738989,2.65764345 2.52653052,2.66092566 2.52575708,2.66425107 C2.52378052,2.67267254 2.52219068,2.68122357 2.52090163,2.68986097 C2.520386,2.69331594 2.51974147,2.6967709 2.51931179,2.70022586 C2.51823757,2.70964063 2.51763601,2.71914178 2.5173782,2.72877249 C2.51733523,2.73119096 2.51703445,2.73360944 2.51699148,2.7360711 C2.51699148,2.73645978 2.51694851,2.73684846 2.51694851,2.73723715 L2.51694851,7.37595603 C2.51694851,7.55034526 2.65758484,7.69169641 2.83109217,7.69169641 C3.0045995,7.69169641 3.14523583,7.55034526 3.14523583,7.37595603 L3.14523583,3.05302071 L9.80417051,3.05302071 L9.80417051,7.85230897 C9.80417051,8.03999981 9.9141702,8.21102045 10.0844549,8.28802292 C10.1468024,8.31622405 10.2131889,8.33000071 10.2791458,8.33000071 C10.3932704,8.33000071 10.506149,8.28880029 10.5946644,8.20994077 L12.2584528,6.72845289 L13.9222411,8.20989758 C14.0619321,8.33440579 14.2622519,8.36502539 14.4325366,8.28802292 C14.6027783,8.21097726 14.712778,8.03999981 14.712778,7.85230897 L14.712778,3.05302071 L21.3716697,3.05302071 L21.3716697,17.2150411 C21.3716697,17.4416003 21.1882366,17.6259657 20.9628232,17.6259657 L15.2027493,17.6259657 C15.2027493,17.6223812 15.2023196,17.6187967 15.2022766,17.6152122 C15.2019329,17.5868815 15.2009017,17.558594 15.1984954,17.5305224 C15.7393416,17.6746375 16.3172267,17.3952606 16.5339605,16.861037 C16.6479562,16.580019 16.6462805,16.2712318 16.5291909,15.9915526 C16.518148,15.9652085 16.5059879,15.9396418 16.4931832,15.9144637 C16.49082,15.9098427 16.4885426,15.9051785 16.4861793,15.9006007 C16.4735895,15.8765887 16.4601833,15.8531381 16.4460466,15.8302922 C16.4432966,15.8258439 16.4404607,15.8215252 16.4376678,15.8171202 C16.4227147,15.7936696 16.407203,15.7706509 16.3906601,15.748496 C16.3903593,15.7480641 16.3900155,15.7476754 16.3897148,15.7472867 C16.3733007,15.7253909 16.3559414,15.7043156 16.3380235,15.6837154 C16.3347579,15.6799582 16.3315352,15.6761577 16.3282267,15.6724004 C16.3104806,15.6525344 16.2920471,15.6333162 16.272969,15.6147889 C16.2692307,15.6111612 16.2654495,15.6076631 16.2616682,15.6041217 C16.2416878,15.585249 16.2212348,15.5668945 16.1999223,15.5495765 C16.1991919,15.5490151 16.1984614,15.5484536 16.1977309,15.5478922 C16.1767622,15.5309197 16.1549771,15.5148541 16.1327623,15.4993932 C16.1287663,15.496586 16.1248132,15.4937357 16.1207311,15.4909717 C16.0985164,15.4759426 16.075743,15.4617341 16.052368,15.4482166 C16.0504345,15.4470937 16.0486727,15.4457981 16.0466962,15.4446752 C16.1794693,15.3291931 16.2842697,15.1830482 16.3525039,15.0148779 C16.4664997,14.7338599 16.4648239,14.4250726 16.3477344,14.1453502 C16.2452972,13.9006093 16.0652157,13.7037629 15.8345601,13.5816299 C15.8016031,13.5641824 15.7676149,13.5482464 15.7326814,13.5339514 L10.8434098,11.5302028 L13.1192863,10.8221947 C13.660734,10.653722 13.9656824,10.0732884 13.7990501,9.52839761 C13.7368745,9.3249867 13.6135975,9.15344781 13.4543557,9.02807586 C13.2173837,8.84146471 12.9006619,8.75720681 12.5865612,8.8234989 C12.5850573,8.8238444 12.5835964,8.82410352 12.5820925,8.82449221 C12.5646902,8.82842223 10.8199919,9.22271981 8.99782118,9.57983336 C8.91699719,9.595683 8.83823569,9.61097121 8.76059137,9.62600029 C8.69845873,9.63800629 8.63718546,9.64983954 8.57707235,9.66132729 C8.55979896,9.66465269 8.5424826,9.6679349 8.52533811,9.67121712 C8.4192056,9.69147183 8.31638166,9.71086281 8.21643663,9.72951961 C8.17621799,9.73703415 8.1363431,9.74446232 8.09711274,9.75171774 C5.80873236,10.1754257 5.16587867,10.1830266 4.98747292,10.1587555 C4.98678542,10.1586691 4.98618386,10.1585827 4.98549636,10.1584532 C4.98278934,10.1580645 4.98012528,10.1576758 4.9776331,10.1572871 C4.97582842,10.1569848 4.97415264,10.1566825 4.97247686,10.1564234 C4.97127374,10.1562075 4.96998468,10.1559915 4.96882453,10.1558188 C4.95769566,10.153789 4.94901599,10.1516728 4.94231289,10.149643 L4.89083647,10.1285678 L4.95498863,9.97046005 C5.01806658,9.81498674 5.01712127,9.64413885 4.95236755,9.48939972 C4.93616837,9.45070414 4.91644577,9.41416791 4.89358646,9.38013653 C4.82500852,9.27808558 4.72802832,9.19862145 4.61201302,9.15107253 L2.92472082,8.45960499 C2.77007672,8.39616324 2.60004984,8.39715654 2.44609324,8.4622394 C2.29209367,8.52732225 2.1725979,8.64880737 2.10951995,8.80423749 L0.0462952006,13.8900717 C-0.0838997512,14.2109945 0.0699709162,14.5785161 0.389270813,14.709416 L2.07660598,15.4009268 C2.15364874,15.4324965 2.23335555,15.4474392 2.31185924,15.4474392 C2.55862808,15.4474392 2.792979,15.2996532 2.89176388,15.0562079 L2.90727556,15.0179874 L3.29631354,15.1773907 C3.29652838,15.1774771 3.29674323,15.1776066 3.29700104,15.177693 C3.66910938,15.3301864 4.01195609,15.5477627 4.30869745,15.817768 C4.36266605,15.8668716 4.41508778,15.9177028 4.46591967,15.970175 C4.51675156,16.0226472 4.56590768,16.0768038 4.61338802,16.132515 C4.6371067,16.1603707 4.66043867,16.1886582 4.68325501,16.2172912 C5.11564834,16.759202 5.68249052,17.184292 6.32242234,17.4465668 L6.76010082,17.6259225 L3.55412533,17.6259225 C3.32871189,17.6259225 3.1452788,17.4415571 3.1452788,17.2149979 L3.1452788,16.4160811 C3.1452788,16.2416919 3.00464247,16.1003407 2.83113514,16.1003407 C2.65762781,16.1003407 2.51699148,16.2416919 2.51699148,16.4160811 L2.51699148,17.2149979 C2.51699148,17.7897741 2.98221285,18.2574033 3.55412533,18.2574033 L8.30099889,18.2574033 L12.3478275,19.9158716 C12.4871318,19.9729649 12.6312486,20.0000431 12.773174,19.9999999 C13.2191454,19.9999999 13.6427302,19.7328882 13.8212648,19.2928555 C13.8944834,19.1123769 13.9179872,18.923736 13.8982646,18.7423936 C14.108768,18.7727541 14.3270056,18.7448985 14.5248332,18.6590427 C14.7258834,18.5717617 14.8925158,18.4327426 15.0108514,18.2573601 L20.9628662,18.2573601 C21.5347357,18.2573601 22,17.7897741 22,17.2149548 L22,2.73728033 C21.999957,2.73684846 21.9999141,2.73650297 21.9999141,2.7360711 Z M10.9255229,0.631480752 L13.5913827,0.631480752 L14.0034948,2.42153996 L10.5134107,2.42153996 L10.9255229,0.631480752 Z M9.86853752,2.42153996 L3.29111434,2.42153996 L3.98681944,0.631480752 L10.2806497,0.631480752 L9.86853752,2.42153996 Z M14.0845766,7.51074275 L14.0845336,7.51074275 L12.5736706,6.16546677 C12.4838232,6.08548439 12.3711595,6.0454932 12.2585387,6.0454932 C12.145875,6.0454932 12.0331682,6.08548439 11.9433208,6.16546677 L10.4325008,7.51074275 L10.4325008,3.05302071 L14.0845766,3.05302071 L14.0845766,7.51074275 Z M2.3110858,14.8150515 L0.629164679,14.1257865 L2.69019803,9.04548024 L4.37211915,9.73478842 L2.3110858,14.8150515 Z M14.8615784,16.7205065 L14.5010286,16.5727204 C14.5008567,16.5726341 14.5006848,16.5725909 14.500513,16.5725045 C14.5003841,16.5724613 14.5002552,16.5723749 14.5001262,16.5723318 C14.5000833,16.5723318 14.5000403,16.5722886 14.4999973,16.5722886 L10.7451406,15.0334915 C10.5845238,14.9676745 10.4011767,15.045152 10.3356495,15.2066715 C10.2701223,15.3681478 10.347251,15.5524269 10.5079537,15.6182871 L14.2628964,17.1571273 C14.27858,17.1635622 14.2937479,17.1706881 14.3084002,17.1785049 C14.3125252,17.1807074 14.3163494,17.183385 14.3203885,17.185674 C14.3307009,17.1915474 14.3410564,17.1974208 14.3508103,17.2039421 C14.3554938,17.2070947 14.3597907,17.2107224 14.3643454,17.2140046 C14.3729821,17.2202236 14.3817906,17.2263561 14.3899547,17.2330933 C14.3948961,17.2371529 14.3993648,17.2416875 14.4041343,17.2459199 C14.411439,17.2524411 14.4189155,17.2587464 14.4257905,17.2656563 C14.43056,17.2704069 14.4348139,17.2756325 14.4393686,17.2805559 C14.445685,17.2873794 14.4521733,17.2940734 14.4581029,17.3012424 C14.4626146,17.3067272 14.4665677,17.3125574 14.4708646,17.3182149 C14.4762357,17.3252976 14.4818216,17.3322507 14.486763,17.3395925 C14.490931,17.3457251 14.4944974,17.3522031 14.4983645,17.3584653 C14.5028333,17.3657207 14.5075598,17.3728465 14.5116418,17.3803179 C14.5153371,17.3870551 14.5184309,17.3940946 14.5218254,17.4009613 C14.5254348,17.4083463 14.5293449,17.4156017 14.5326105,17.4231594 C14.5357472,17.4304149 14.5382824,17.4379294 14.5410754,17.4453144 C14.5439113,17.4527857 14.547005,17.4601275 14.5494972,17.4677284 C14.5519894,17.4753726 14.55388,17.4831894 14.5559855,17.4909199 C14.5580909,17.498564 14.5604542,17.5060785 14.5622159,17.513809 C14.5639776,17.5216259 14.5650948,17.5295723 14.5665128,17.5374323 C14.5679307,17.5452924 14.5695636,17.553066 14.5705948,17.5610124 C14.5716261,17.5689588 14.5720128,17.5769916 14.5726573,17.5849812 C14.5733018,17.593014 14.5742471,17.6010036 14.5745049,17.6090364 C14.5747628,17.6169396 14.574376,17.6249292 14.5742901,17.6328756 C14.5742042,17.6410812 14.5743331,17.6492867 14.5738175,17.6575354 C14.5733448,17.6653523 14.5721846,17.6731691 14.5713253,17.680986 C14.5704229,17.6894075 14.5697354,17.6978289 14.5683604,17.7062072 C14.5671143,17.7138945 14.5651808,17.7215386 14.5635909,17.7292259 C14.5617862,17.7377338 14.5602823,17.7462416 14.558005,17.7547063 C14.5560284,17.7621776 14.5533644,17.7696058 14.5510011,17.777034 C14.5483371,17.7854986 14.5458878,17.7939633 14.5427511,17.8022984 C14.5400871,17.8080422 14.537466,17.8138293 14.5350168,17.8196596 C14.5344582,17.8209984 14.5341574,17.8223803 14.5336418,17.8236759 C14.4845716,17.9375601 14.3939937,18.028037 14.2757011,18.0793864 C14.1455061,18.1358318 13.996448,18.1378184 13.8666827,18.084612 L13.2013994,17.8119723 C13.1983056,17.8107198 13.1951689,17.8098561 13.1920752,17.80869 C13.1889385,17.8072649 13.1859736,17.8056238 13.182794,17.8043282 L10.1287555,16.5527248 C9.9680099,16.4869078 9.78474869,16.5643853 9.71926449,16.7259048 C9.65373733,16.8873811 9.73086602,17.0716602 9.89152574,17.1375204 L12.9455641,18.3891237 C12.9488298,18.3904625 12.9521383,18.3914126 12.9554469,18.3926219 C12.9584118,18.3939175 12.9611618,18.3955154 12.9642125,18.3967246 C13.2205204,18.5017987 13.3440552,18.7968525 13.2395555,19.0544631 C13.1350128,19.3121601 12.8415801,19.436366 12.5851433,19.3312056 L8.48185386,17.649589 C8.48168199,17.6495027 8.48151011,17.6494163 8.48133824,17.6493299 L6.55978106,16.8618144 C6.221532,16.7231841 5.90743131,16.5307858 5.63015473,16.2940777 C5.46378019,16.1520356 5.31068296,15.9941006 5.17352709,15.8222162 C5.03839074,15.6528799 4.89014897,15.4949449 4.73064941,15.3497933 C4.3797246,15.0305116 3.97431557,14.7732465 3.53435976,14.5928974 C3.53431679,14.5928974 3.53427382,14.5928542 3.53423085,14.5928542 L3.14467724,14.433235 L3.92056181,12.5206974 L4.65377853,10.7133633 L4.70787604,10.7355183 C4.75879386,10.7563776 4.83141085,10.7860039 5.02683218,10.7934321 C5.27097994,10.8045312 5.67488507,10.7789212 6.39847682,10.6761793 C6.89068249,10.6063027 7.49443472,10.505245 8.19924917,10.3749066 C8.2166085,10.3717107 8.23383892,10.3685149 8.25137012,10.3652759 C8.28432706,10.3591433 8.31762775,10.3529244 8.35105735,10.3467055 C8.37705337,10.3418685 8.4031783,10.3369452 8.42951807,10.3319787 C8.45951017,10.3263212 8.48963118,10.3206637 8.51996704,10.3149198 C8.55215054,10.3088304 8.58472076,10.3026547 8.61746286,10.2963926 C8.64367372,10.2913829 8.66984162,10.2864164 8.6963103,10.2813635 C8.73622816,10.2737194 8.77683351,10.2659025 8.81756777,10.2580425 C8.83853647,10.2539829 8.85929031,10.2500097 8.88043088,10.2459501 C8.94282133,10.2338577 9.00602819,10.2215926 9.0703952,10.2090252 C10.8862925,9.85402781 12.638983,9.45890968 12.7177445,9.44111662 C12.7256077,9.43947551 12.733471,9.4385254 12.7413342,9.43735935 C12.9431149,9.40734436 13.1408136,9.52464034 13.1986924,9.7138859 C13.2190165,9.78039393 13.2213798,9.84824075 13.2085751,9.91207118 C13.1804307,10.0525586 13.0788528,10.1737846 12.9336618,10.218915 L9.81920953,11.1877729 C9.6924091,11.2272458 9.60397966,11.3424256 9.59826483,11.4757008 C9.59250703,11.6089328 9.670624,11.7314544 9.79351429,11.7818105 L15.4956235,14.1187038 C15.6198028,14.1695782 15.716826,14.2660148 15.768818,14.3902639 C15.8208101,14.514513 15.8215835,14.651675 15.7709235,14.7764423 C15.7202635,14.9012528 15.6243575,14.9987691 15.5007368,15.0510254 C15.4389479,15.0771104 15.3739363,15.0903256 15.3088389,15.0907143 C15.3078935,15.0907143 15.3069482,15.0905848 15.3060029,15.0905848 C15.2907061,15.0905848 15.2754522,15.0899801 15.2601984,15.088555 C15.2556867,15.0881231 15.2512179,15.087173 15.2467062,15.0866547 C15.2350617,15.0852296 15.2234172,15.0838908 15.2118587,15.081645 C15.204554,15.0802199 15.1973353,15.0780605 15.1900736,15.076333 C15.1813939,15.0742601 15.1726713,15.0724894 15.1640775,15.0699414 C15.155183,15.0673069 15.1464604,15.0638088 15.1376948,15.0606561 C15.1307339,15.0581513 15.1236441,15.0560783 15.1167691,15.0532712 L11.3614826,13.5142582 C11.2008229,13.4483979 11.0175187,13.5259187 10.9519915,13.6874382 C10.8864644,13.8489145 10.9635931,14.0331935 11.1242958,14.0990537 L15.677037,15.964863 C15.7081034,15.97756 15.7374509,15.9931505 15.764822,16.011289 C15.846935,16.0657047 15.9112591,16.1432254 15.9502316,16.236423 C15.9957354,16.3451248 16.0020088,16.4637164 15.968923,16.5752685 C15.9641964,16.5912045 15.9586535,16.6070109 15.9523371,16.6226015 C15.9458058,16.6387102 15.9385441,16.6543007 15.9305949,16.6693298 C15.9120755,16.7043113 15.8895169,16.7359242 15.8643373,16.76473 C15.8486967,16.7826094 15.8319819,16.7992796 15.8141929,16.8145678 C15.811357,16.8169863 15.8087789,16.8197502 15.8059,16.8220823 C15.6912597,16.9163164 15.5379906,16.9568259 15.3882449,16.9264222 C15.3578661,16.9202465 15.3276591,16.9114795 15.2979248,16.8993008 L14.8615784,16.7205065 Z" id="Shape"></path>
        </g>
    </g>
</svg>