<?xml version="1.0" encoding="UTF-8"?>
<svg width="28px" height="32px" viewBox="0 0 28 32" version="1.1" xmlns="http://www.w3.org/2000/svg" xmlns:xlink="http://www.w3.org/1999/xlink">
    <!-- Generator: Sketch 48.1 (47250) - http://www.bohemiancoding.com/sketch -->
    <title>042-clipboard copy 4</title>
    <desc>Created with Sketch.</desc>
    <defs></defs>
    <g id="Icons" stroke="none" stroke-width="1" fill="none" fill-rule="evenodd">
        <g id="042-clipboard-copy-4" fill="#D4AF3F" fill-rule="nonzero">
            <path d="M15.6455657,21.0376364 L10.7089394,21.0376364 C10.2152626,21.0376364 9.88619192,21.3667778 9.88619192,21.8603838 C9.88619192,22.3540606 10.2153333,22.6831313 10.7089394,22.6831313 L15.6455657,22.6831313 C16.1392424,22.6831313 16.4683131,22.3539899 16.4683131,21.8603838 C16.4683131,21.3667778 16.1392424,21.0376364 15.6455657,21.0376364 Z" id="Shape"></path>
            <path d="M14,23.5059495 L10.7089394,23.5059495 C10.2152626,23.5059495 9.88619192,23.8350909 9.88619192,24.328697 C9.88619192,24.822303 10.2152626,25.1515152 10.7089394,25.1515152 L14,25.1515152 C14.4936768,25.1515152 14.8227475,24.8223737 14.8227475,24.3287677 C14.8227475,23.8351616 14.4936768,23.5059495 14,23.5059495 Z" id="Shape"></path>
            <circle id="Oval" cx="8.24055556" cy="21.8604545" r="1"></circle>
            <circle id="Oval" cx="8.24055556" cy="24.3287677" r="1"></circle>
            <circle id="Oval" cx="14" cy="3.29106061" r="1"></circle>
            <path d="M18.5252525,2.3860101 L17.0442929,1.97463636 C16.4683131,0.822747475 15.3164242,0 14,0 C12.6835758,0 11.5316869,0.822747475 11.0380101,1.97463636 L9.55705051,2.3860101 C8.81653535,2.55054545 8.32285859,3.20875758 8.32285859,3.94927273 L8.32285859,5.75937374 C8.24055556,6.66442424 8.98107071,7.40493939 9.88612121,7.40493939 L18.1138788,7.40493939 C19.0189293,7.40493939 19.7594444,6.66442424 19.7594444,5.75937374 L19.7594444,3.94927273 C19.7594444,3.20882828 19.2657677,2.55061616 18.5252525,2.3860101 Z M18.1138788,5.75944444 L9.88612121,5.75944444 L9.88612121,3.94934343 L11.8607576,3.45566667 C12.189899,3.37336364 12.3544343,3.12652525 12.4366667,2.87975758 C12.601202,2.13924242 13.2594141,1.64556566 13.9999293,1.64556566 C14.7404444,1.64556566 15.3986566,2.13924242 15.5631919,2.87975758 C15.6454949,3.20889899 15.8923333,3.37343434 16.1391717,3.45566667 L18.1138081,3.94934343 L18.1138788,5.75944444 Z" id="Shape"></path>
            <path d="M25.5188182,1.64556566 L21.4049394,1.64556566 C20.9112626,1.64556566 20.5821919,1.97470707 20.5821919,2.46831313 C20.5821919,2.9619899 20.9113333,3.29106061 21.4049394,3.29106061 L25.5188182,3.29106061 C26.0124949,3.29106061 26.3415657,3.62020202 26.3415657,4.11380808 L26.3415657,28.7336364 C26.3415657,29.2273131 26.0124242,29.5563838 25.5188182,29.5563838 L2.48118182,29.5563838 C1.98750505,29.5563838 1.65843434,29.2272424 1.65843434,28.7336364 L1.65843434,4.11387879 C1.65843434,3.62020202 1.98757576,3.29113131 2.48118182,3.29113131 L6.59506061,3.29113131 C7.08873737,3.29113131 7.41780808,2.9619899 7.41780808,2.46838384 C7.41780808,1.97470707 7.08866667,1.64563636 6.59506061,1.64563636 L2.48118182,1.64563636 C1.08245455,1.64563636 0.0128686869,2.71522222 0.0128686869,4.11394949 L0.0128686869,28.7337778 C0.0128686869,30.1325051 1.08245455,31.2020909 2.48118182,31.2020909 L25.5188182,31.2020909 C26.9175455,31.2020909 27.9871313,30.1325051 27.9871313,28.7337778 L27.9871313,4.11387879 C27.9871313,2.71515152 26.9175455,1.64556566 25.5188182,1.64556566 Z" id="Shape"></path>
            <path d="M23.8732525,4.93662626 L21.4049394,4.93662626 C20.9112626,4.93662626 20.5821919,5.26576768 20.5821919,5.75937374 C20.5821919,6.2529798 20.9113333,6.58212121 21.4049394,6.58212121 L23.0505051,6.58212121 L23.0505051,18.8603838 C23.0505051,19.7654343 22.3099899,20.5059495 21.4049394,20.5059495 L19.7593737,20.5059495 C18.3606465,20.5059495 17.2910606,21.5755354 17.2910606,22.9742626 L17.2910606,24.6198283 C17.2910606,25.5248788 16.5505455,26.2653939 15.6454949,26.2653939 L4.94949495,26.2653939 L4.94949495,6.58219192 L6.59506061,6.58219192 C7.08873737,6.58219192 7.41780808,6.25305051 7.41780808,5.75944444 C7.41780808,5.26583838 7.08866667,4.93669697 6.59506061,4.93669697 L4.12674747,4.93669697 C3.63307071,4.93669697 3.304,5.26583838 3.304,5.75944444 L3.304,27.0882121 C3.304,27.5818889 3.63314141,27.9109596 4.12674747,27.9109596 L16.7151515,27.9109596 C17.7847374,27.9109596 18.8543939,27.4995859 19.5948384,26.6767677 L23.4618788,22.8097273 C24.2023939,22.0692121 24.6960707,20.9996263 24.6960707,19.9300404 L24.6960707,5.75944444 C24.6960707,5.26576768 24.3669293,4.93662626 23.8732525,4.93662626 Z M18.9366263,25.1135051 C18.9366263,24.9489697 18.9366263,24.7843636 18.9366263,24.6198283 L18.9366263,22.9742626 C18.9366263,22.4805859 19.2657677,22.1515152 19.7593737,22.1515152 L21.4049394,22.1515152 C21.5694747,22.1515152 21.7340808,22.1515152 21.9808485,22.0692121 L18.9366263,25.1135051 Z" id="Shape"></path>
            <path d="M7.41780808,15.2782626 C6.92413131,15.2782626 6.59506061,15.607404 6.59506061,16.1010101 L6.59506061,17.7465758 C6.59506061,18.2402525 6.92420202,18.5693232 7.41780808,18.5693232 C7.91148485,18.5693232 8.24055556,18.2401818 8.24055556,17.7465758 L8.24055556,16.1010101 C8.24055556,15.6073333 7.91148485,15.2782626 7.41780808,15.2782626 Z" id="Shape"></path>
            <path d="M10.7089394,10.3415657 C10.2152626,10.3415657 9.88619192,10.6707071 9.88619192,11.1643131 L9.88619192,17.7465051 C9.88619192,18.2401818 10.2153333,18.5692525 10.7089394,18.5692525 C11.2026162,18.5692525 11.5316869,18.2401111 11.5316869,17.7465051 L11.5316869,11.1643131 C11.5316869,10.6707071 11.2025455,10.3415657 10.7089394,10.3415657 Z" id="Shape"></path>
            <path d="M17.2910606,12.8099495 C16.7973838,12.8099495 16.4683131,13.1390909 16.4683131,13.632697 L16.4683131,17.7465758 C16.4683131,18.2402525 16.7974545,18.5693232 17.2910606,18.5693232 C17.7846667,18.5693232 18.1138081,18.2401818 18.1138081,17.7465758 L18.1138081,13.632697 C18.1138788,13.1390202 17.7847374,12.8099495 17.2910606,12.8099495 Z" id="Shape"></path>
            <path d="M14,11.1643838 C13.5063232,11.1643838 13.1772525,11.4935253 13.1772525,11.9871313 L13.1772525,17.7465758 C13.1772525,18.2402525 13.5063939,18.5693232 14,18.5693232 C14.4936061,18.5693232 14.8227475,18.2401818 14.8227475,17.7465758 L14.8227475,11.9871313 C14.8227475,11.4934545 14.4936768,11.1643838 14,11.1643838 Z" id="Shape"></path>
            <path d="M20.5821919,7.87325253 C20.0885152,7.87325253 19.7594444,8.20239394 19.7594444,8.696 L19.7594444,17.7465051 C19.7594444,18.2401818 20.0885859,18.5692525 20.5821919,18.5692525 C21.0758687,18.5692525 21.4049394,18.2401111 21.4049394,17.7465051 L21.4049394,8.696 C21.4049394,8.20239394 21.0758687,7.87325253 20.5821919,7.87325253 Z" id="Shape"></path>
        </g>
    </g>
</svg>