<?xml version="1.0" encoding="UTF-8"?>
<svg width="87px" height="89px" viewBox="0 0 87 89" version="1.1" xmlns="http://www.w3.org/2000/svg" xmlns:xlink="http://www.w3.org/1999/xlink">
    <!-- Generator: Sketch 48.1 (47250) - http://www.bohemiancoding.com/sketch -->
    <title>search</title>
    <desc>Created with Sketch.</desc>
    <defs></defs>
    <g id="dripicons-v2-by-amit-jakhu" stroke="none" stroke-width="1" fill="none" fill-rule="evenodd" transform="translate(-951.000000, -1351.000000)">
        <path d="M1014.982,1390.57449 C1015.718,1391.31049 1016.146,1392.33449 1016.146,1393.37849 C1016.146,1394.43249 1015.718,1395.45649 1014.982,1396.19249 C1014.247,1396.93849 1013.212,1397.35549 1012.169,1397.35549 C1011.125,1397.35549 1010.101,1396.93849 1009.355,1396.19249 C1008.619,1395.45649 1008.192,1394.43249 1008.192,1393.37849 C1008.192,1392.33449 1008.619,1391.31049 1009.355,1390.57449 C1010.101,1389.82849 1011.125,1389.40149 1012.169,1389.40149 C1013.212,1389.40149 1014.247,1389.82849 1014.982,1390.57449 M1022.309,1382.94349 C1022.076,1384.69249 1020.582,1385.96449 1018.864,1385.96449 C1018.711,1385.96449 1018.556,1385.95449 1018.4,1385.93349 C1016.495,1385.67949 1015.157,1383.92949 1015.411,1382.02349 C1016.105,1376.81549 1010.3,1374.09349 1010.052,1373.98049 C1008.312,1373.18349 1007.533,1371.12649 1008.319,1369.38149 C1009.105,1367.63649 1011.142,1366.85149 1012.892,1367.62549 C1013.334,1367.82149 1023.696,1372.54349 1022.309,1382.94349 M1006.79,1405.96749 C994.103,1405.96749 983.783,1395.47549 983.783,1382.57949 C983.783,1369.68449 994.103,1359.19249 1006.79,1359.19249 C1019.475,1359.19249 1029.796,1369.68449 1029.796,1382.57949 C1029.796,1395.47549 1019.475,1405.96749 1006.79,1405.96749 M1006.79,1351.23749 C989.718,1351.23749 975.829,1365.29749 975.829,1382.57949 C975.829,1389.84149 978.287,1396.52849 982.397,1401.84849 L953.038,1431.62149 C951.303,1433.38149 951.323,1436.21449 953.083,1437.94949 C953.954,1438.80949 955.089,1439.23749 956.224,1439.23749 C957.379,1439.23749 958.534,1438.79349 959.41,1437.90549 L988.82,1408.07949 C993.891,1411.75149 1000.093,1413.92249 1006.79,1413.92249 C1023.862,1413.92249 1037.75,1399.86249 1037.75,1382.57949 C1037.75,1365.29749 1023.862,1351.23749 1006.79,1351.23749" id="search" fill="#000000"></path>
    </g>
</svg>