<?xml version="1.0" encoding="UTF-8"?>
<svg width="16px" height="12px" viewBox="0 0 16 12" version="1.1" xmlns="http://www.w3.org/2000/svg" xmlns:xlink="http://www.w3.org/1999/xlink">
    <!-- Generator: Sketch 48.1 (47250) - http://www.bohemiancoding.com/sketch -->
    <title>Shape</title>
    <desc>Created with Sketch.</desc>
    <defs></defs>
    <g id="settings_support_query" stroke="none" stroke-width="1" fill="none" fill-rule="evenodd" transform="translate(-762.000000, -700.000000)">
        <g id="Group" transform="translate(266.000000, 28.000000)" fill="#FFFFFF" fill-rule="nonzero">
            <g id="paper-plane" transform="translate(496.000000, 672.000000)">
                <path d="M15.4717916,0.0961039932 C15.4154274,0.0246219379 15.3280371,-0.00871857302 15.2409053,0.00195039046 C15.2209968,0.00301728681 15.2023811,0.00648469994 15.1829898,0.0123526299 L0.190891769,4.21885821 C0.0807489084,4.2497982 0.0031835138,4.3516868 8.08980159e-05,4.46931213 C-0.00276316645,4.58693745 0.0696312018,4.69282691 0.177964203,4.72963483 L5.66364746,6.58390069 L5.17291706,10.6333058 C5.1599895,10.7399954 5.210407,10.8442845 5.30064141,10.8976293 C5.34071687,10.9213678 5.38518769,10.9331037 5.42939997,10.9331037 C5.4849885,10.9331037 5.54057703,10.9146997 5.58659917,10.8781585 L7.59425013,9.29221707 L9.35420893,11.8861088 C9.40281658,11.9578576 9.48193328,12 9.56596246,12 C9.57165059,12 9.57759727,11.9997333 9.58354395,11.9994666 C9.67403691,11.9930652 9.75444637,11.9383867 9.79581458,11.8549021 L15.5002323,0.385766352 C15.5478057,0.291879473 15.5364294,0.178255012 15.4717916,0.0961039932 Z M13.6761527,0.98802934 L5.91082252,6.10593112 L1.159425,4.4999854 L13.6761527,0.98802934 Z M5.76267261,10.0673173 L6.11999053,7.11921593 L7.29769177,8.85478957 L5.76267261,10.0673173 Z M9.53235079,11.2176983 L6.31338692,6.47374364 L14.6128841,1.00376606 L9.53235079,11.2176983 Z" id="Shape"></path>
            </g>
        </g>
    </g>
</svg>