<?xml version="1.0" encoding="UTF-8"?>
<svg width="30px" height="30px" viewBox="0 0 30 30" version="1.1" xmlns="http://www.w3.org/2000/svg" xmlns:xlink="http://www.w3.org/1999/xlink">
    <!-- Generator: Sketch 48.1 (47250) - http://www.bohemiancoding.com/sketch -->
    <title>settings copy 2</title>
    <desc>Created with Sketch.</desc>
    <defs></defs>
    <g id="Icons" stroke="none" stroke-width="1" fill="none" fill-rule="evenodd">
        <g id="settings-copy-2" fill="#7E7E7E" fill-rule="nonzero">
            <path d="M28.4555556,11.6666667 L25.6488889,11.6666667 C25.1977778,11.6666667 24.8261111,11.4183333 24.6533333,11.0016667 C24.4805556,10.585 24.5683333,10.1461111 24.8866667,9.82722222 L26.8711111,7.84333333 C27.1627778,7.55166667 27.3233333,7.16333333 27.3233333,6.75111111 C27.3233333,6.33833333 27.1627778,5.95055556 26.8711111,5.65833333 L24.3416667,3.12888889 C23.7583333,2.54555556 22.7411111,2.54444444 22.1566667,3.12888889 L20.1727778,5.11277778 C19.8538889,5.43111111 19.4138889,5.52 18.9983333,5.34666667 C18.5816667,5.17388889 18.3333333,4.80222222 18.3333333,4.35111111 L18.3333333,1.54444444 C18.3333333,0.692777778 17.6405556,0 16.7888889,0 L13.2111111,0 C12.3594444,0 11.6666667,0.692777778 11.6666667,1.54444444 L11.6666667,4.35111111 C11.6666667,4.80222222 11.4183333,5.17388889 11.0016667,5.34666667 C10.5861111,5.52055556 10.1461111,5.43111111 9.82722222,5.11277778 L7.84333333,3.12888889 C7.25888889,2.54444444 6.24166667,2.54555556 5.65833333,3.12888889 L3.12888889,5.65833333 C2.83722222,5.95 2.67666667,6.33833333 2.67666667,6.75111111 C2.67666667,7.16333333 2.83722222,7.55111111 3.12888889,7.84333333 L5.11333333,9.82722222 C5.43166667,10.1461111 5.51888889,10.585 5.34666667,11.0016667 C5.17444444,11.4183333 4.80222222,11.6666667 4.35111111,11.6666667 L1.54444444,11.6666667 C0.692777778,11.6666667 0,12.3594444 0,13.2111111 L0,16.7883333 C0,17.6405556 0.692777778,18.3333333 1.54444444,18.3333333 L4.35111111,18.3333333 C4.80222222,18.3333333 5.17388889,18.5816667 5.34666667,18.9983333 C5.51944444,19.415 5.43166667,19.8538889 5.11333333,20.1727778 L3.12888889,22.1566667 C2.83722222,22.4483333 2.67666667,22.8366667 2.67666667,23.2488889 C2.67666667,23.6616667 2.83722222,24.0494444 3.12888889,24.3416667 L5.65833333,26.8711111 C6.24222222,27.455 7.25888889,27.4561111 7.84333333,26.8711111 L9.82722222,24.8866667 C10.1461111,24.5683333 10.5844444,24.4805556 11.0016667,24.6533333 C11.4183333,24.8261111 11.6666667,25.1977778 11.6666667,25.6488889 L11.6666667,28.4555556 C11.6666667,29.3072222 12.3594444,30 13.2111111,30 L16.7883333,30 C17.64,30 18.3327778,29.3072222 18.3327778,28.4555556 L18.3327778,25.6488889 C18.3327778,25.1977778 18.5811111,24.8261111 18.9977778,24.6533333 C19.415,24.48 19.8533333,24.5683333 20.1722222,24.8866667 L22.1561111,26.8711111 C22.7405556,27.4555556 23.7577778,27.4544444 24.3411111,26.8711111 L26.8705556,24.3416667 C27.1622222,24.05 27.3227778,23.6616667 27.3227778,23.2488889 C27.3227778,22.8366667 27.1622222,22.4488889 26.8705556,22.1566667 L24.8861111,20.1727778 C24.5677778,19.8538889 24.4805556,19.415 24.6527778,18.9983333 C24.825,18.5816667 25.1977778,18.3333333 25.6488889,18.3333333 L28.4555556,18.3333333 C29.3072222,18.3333333 30,17.6405556 30,16.7888889 L30,13.2111111 C30,12.3594444 29.3072222,11.6666667 28.4555556,11.6666667 Z M28.8888889,16.7888889 C28.8888889,17.0277778 28.6944444,17.2222222 28.4555556,17.2222222 L25.6488889,17.2222222 C24.7466667,17.2222222 23.9716667,17.74 23.6266667,18.5733333 C23.2811111,19.4066667 23.4627778,20.3211111 24.1011111,20.9588889 L26.0855556,22.9427778 C26.255,23.1122222 26.255,23.3872222 26.0855556,23.5561111 L23.5561111,26.0855556 C23.3872222,26.2544444 23.1122222,26.2555556 22.9427778,26.0855556 L20.9588889,24.1011111 C20.3205556,23.4627778 19.4066667,23.2822222 18.5733333,23.6266667 C17.74,23.9716667 17.2222222,24.7466667 17.2222222,25.6488889 L17.2222222,28.4555556 C17.2222222,28.6944444 17.0277778,28.8888889 16.7888889,28.8888889 L13.2111111,28.8888889 C12.9722222,28.8888889 12.7777778,28.6944444 12.7777778,28.4555556 L12.7777778,25.6488889 C12.7777778,24.7466667 12.26,23.9716667 11.4266667,23.6266667 C11.1472222,23.5105556 10.8594444,23.4538889 10.575,23.4538889 C10.0116667,23.4538889 9.46555556,23.6761111 9.04111111,24.1005556 L7.05722222,26.085 C6.88722222,26.255 6.61222222,26.2538889 6.44388889,26.085 L3.91444444,23.5555556 C3.745,23.3861111 3.745,23.1111111 3.91444444,22.9422222 L5.89888889,20.9583333 C6.53666667,20.3205556 6.71888889,19.4061111 6.37333333,18.5727778 C6.02833333,17.74 5.25333333,17.2222222 4.35111111,17.2222222 L1.54444444,17.2222222 C1.30555556,17.2222222 1.11111111,17.0277778 1.11111111,16.7888889 L1.11111111,13.2111111 C1.11111111,12.9722222 1.30555556,12.7777778 1.54444444,12.7777778 L4.35111111,12.7777778 C5.25333333,12.7777778 6.02833333,12.26 6.37333333,11.4266667 C6.71888889,10.5933333 6.53722222,9.67888889 5.89888889,9.04111111 L3.91444444,7.05722222 C3.745,6.88777778 3.745,6.61277778 3.91444444,6.44388889 L6.44388889,3.91444444 C6.61277778,3.745 6.88777778,3.745 7.05722222,3.91444444 L9.04111111,5.89833333 C9.67833333,6.53555556 10.5922222,6.71833333 11.4266667,6.37277778 C12.26,6.02833333 12.7777778,5.25333333 12.7777778,4.35111111 L12.7777778,1.54444444 C12.7777778,1.30555556 12.9722222,1.11111111 13.2111111,1.11111111 L16.7883333,1.11111111 C17.0277778,1.11111111 17.2222222,1.30555556 17.2222222,1.54444444 L17.2222222,4.35111111 C17.2222222,5.25333333 17.74,6.02833333 18.5733333,6.37333333 C19.4077778,6.71888889 20.3211111,6.53666667 20.9588889,5.89888889 L22.9427778,3.915 C23.1127778,3.74555556 23.3877778,3.74555556 23.5561111,3.915 L26.0855556,6.44444444 C26.255,6.61388889 26.255,6.88888889 26.0855556,7.05777778 L24.1011111,9.04166667 C23.4633333,9.67944444 23.2811111,10.5938889 23.6266667,11.4272222 C23.9716667,12.2605556 24.7466667,12.7783333 25.6488889,12.7783333 L28.4555556,12.7783333 C28.6944444,12.7777778 28.8888889,12.9722222 28.8888889,13.2111111 L28.8888889,16.7888889 Z" id="Shape"></path>
            <path d="M15,10 C12.2427778,10 10,12.2427778 10,15 C10,17.7572222 12.2427778,20 15,20 C17.7572222,20 20,17.7572222 20,15 C20,12.2427778 17.7572222,10 15,10 Z M15,18.8888889 C12.8561111,18.8888889 11.1111111,17.1438889 11.1111111,15 C11.1111111,12.8561111 12.8561111,11.1111111 15,11.1111111 C17.1438889,11.1111111 18.8888889,12.8561111 18.8888889,15 C18.8888889,17.1438889 17.1438889,18.8888889 15,18.8888889 Z" id="Shape"></path>
        </g>
    </g>
</svg>