<svg width="17" height="20" viewBox="0 0 17 20" version="1.1" xmlns="http://www.w3.org/2000/svg" xmlns:xlink="http://www.w3.org/1999/xlink">
<title>single_user</title>
<desc>Created using Figma</desc>
<g id="Canvas" transform="translate(274 97)">
<g id="single_user">
<g id="Icons">
<g id="avatar">
<g id="Shape">
<use xlink:href="#path0_fill" transform="translate(-270.667 -97)"/>
</g>
<g id="Shape">
<use xlink:href="#path1_fill" transform="translate(-274 -87)"/>
</g>
</g>
</g>
</g>
</g>
<defs>
<path id="path0_fill" d="M 4.10073 10C 4.12071 10 4.14069 10 4.16467 10C 4.17266 10 4.18065 10 4.18864 10C 4.20063 10 4.21662 10 4.22861 10C 5.39946 9.98078 6.34654 9.58493 7.04586 8.82782C 8.58435 7.15988 8.3286 4.30054 8.30063 4.02767C 8.20073 1.97925 7.19371 0.999231 6.36252 0.541891C 5.74313 0.199846 5.01983 0.0153728 4.21262 0L 4.18465 0C 4.18065 0 4.17266 0 4.16866 0L 4.14469 0C 3.70112 0 2.82997 0.0691775 1.99479 0.526518C 1.15561 0.983859 0.132605 1.96387 0.0327028 4.02767C 0.00473017 4.30054 -0.25102 7.15988 1.28748 8.82782C 1.9828 9.58493 2.92987 9.98078 4.10073 10ZM 1.09966 4.12375C 1.09966 4.11222 1.10366 4.10069 1.10366 4.09301C 1.23553 1.33743 3.26954 1.04151 4.14069 1.04151L 4.15668 1.04151C 4.16467 1.04151 4.17666 1.04151 4.18864 1.04151C 5.26759 1.06457 7.1018 1.48732 7.22568 4.09301C 7.22568 4.10453 7.22568 4.11606 7.22968 4.12375C 7.23367 4.15065 7.5134 6.76403 6.24264 8.13989C 5.73913 8.68563 5.06779 8.95465 4.18465 8.96234C 4.17666 8.96234 4.17266 8.96234 4.16467 8.96234C 4.15668 8.96234 4.15268 8.96234 4.14469 8.96234C 3.26555 8.95465 2.59021 8.68563 2.09069 8.13989C 0.823931 6.77171 1.09566 4.14681 1.09966 4.12375Z"/>
<path id="path1_fill" d="M 16.6655 5.56014C 16.6655 5.55567 16.6655 5.5512 16.6655 5.54673C 16.6655 5.51096 16.6615 5.47519 16.6615 5.43495C 16.6371 4.54966 16.5844 2.47952 14.8234 1.81779C 14.8112 1.81332 14.795 1.80884 14.7828 1.80437C 12.9529 1.29019 11.4313 0.127691 11.415 0.114278C 11.1675 -0.0779818 10.8267 -0.0109149 10.6522 0.261826C 10.4777 0.534566 10.5386 0.910143 10.7861 1.1024C 10.8551 1.15606 12.47 2.39457 14.4907 2.96687C 15.4361 3.33798 15.5416 4.4513 15.57 5.47072C 15.57 5.51096 15.57 5.54673 15.574 5.5825C 15.5781 5.9849 15.5538 6.60639 15.4888 6.96409C 14.8315 7.37543 12.255 8.79726 8.33535 8.79726C 4.43197 8.79726 1.83918 7.37096 1.1778 6.95962C 1.11288 6.60192 1.08447 5.98043 1.09259 5.57803C 1.09259 5.54226 1.09665 5.50649 1.09665 5.46625C 1.12505 4.44683 1.23055 3.33351 2.17596 2.9624C 4.19663 2.3901 5.81154 1.14711 5.88052 1.09793C 6.12803 0.905672 6.18889 0.530095 6.01442 0.257355C 5.83994 -0.0153857 5.49911 -0.0824536 5.2516 0.109806C 5.23537 0.12322 3.72189 1.28572 1.88382 1.7999C 1.86758 1.80437 1.85541 1.80885 1.84324 1.81332C 0.0822556 2.47952 0.0295073 4.54966 0.0051619 5.43048C 0.0051619 5.47072 0.0051619 5.50649 0.00110433 5.54226C 0.00110433 5.54673 0.00110433 5.5512 0.00110433 5.55567C -0.00295324 5.78817 -0.0070108 6.98197 0.20804 7.58111C 0.248616 7.69736 0.321652 7.79572 0.419034 7.86279C 0.540761 7.95221 3.45815 10 8.3394 10C 13.2207 10 16.138 7.94774 16.2598 7.86279C 16.3531 7.79572 16.4302 7.69736 16.4708 7.58111C 16.6736 6.98644 16.6696 5.79264 16.6655 5.56014Z"/>
</defs>
</svg>
