<?xml version="1.0" encoding="UTF-8"?>
<svg width="100px" height="100px" viewBox="0 0 100 100" version="1.1" xmlns="http://www.w3.org/2000/svg" xmlns:xlink="http://www.w3.org/1999/xlink">
    <!-- Generator: Sketch 45.1 (43504) - http://www.bohemiancoding.com/sketch -->
    <title>block</title>
    <desc>Created with Sketch.</desc>
    <defs></defs>
    <g id="Page-4" stroke="none" stroke-width="1" fill="none" fill-rule="evenodd">
        <g id="cloudathon" transform="translate(-979.000000, -1950.000000)" fill-rule="nonzero">
            <g id="Group-17" transform="translate(908.000000, 1950.000000)">
                <g id="block" transform="translate(71.000000, 0.000000)">
                    <polygon id="Shape" fill="#201F2D" points="18.9655172 58.6206897 0 67.2413793 18.9655172 75.862069 37.9310345 67.2413793"></polygon>
                    <polygon id="Shape" fill="#B53C33" points="0 67.2413793 0 91.3793103 18.9655172 100 37.9310345 91.3793103 37.9310345 67.2413793 18.9655172 75.862069"></polygon>
                    <polygon id="Shape" fill="#512869" points="0 67.2413793 18.9655172 75.862069 37.9310345 67.2413793 18.9655172 58.6206897"></polygon>
                    <polygon id="Shape" fill="#201F2D" points="81.0344828 58.6206897 62.0689655 67.2413793 81.0344828 75.862069 100 67.2413793"></polygon>
                    <polygon id="Shape" fill="#512869" points="62.0689655 67.2413793 62.0689655 91.3793103 81.0344828 100 100 91.3793103 100 67.2413793 81.0344828 75.862069"></polygon>
                    <g id="Group" transform="translate(31.034483, 0.000000)" fill="#201F2D">
                        <polygon id="Shape" points="31.0344828 67.2413793 50 75.862069 68.9655172 67.2413793 50 58.6206897"></polygon>
                        <polygon id="Shape" points="18.9655172 0 0 8.62068966 18.9655172 17.2413793 37.9310345 8.62068966"></polygon>
                    </g>
                    <polygon id="Shape" fill="#DDA137" points="31.0344828 8.62068966 31.0344828 32.7586207 50 41.3793103 68.9655172 32.7586207 68.9655172 8.62068966 50 17.2413793"></polygon>
                    <polygon id="Shape" fill="#512869" points="31.0344828 8.62068966 50 17.2413793 68.9655172 8.62068966 50 0"></polygon>
                    <g id="Group" transform="translate(1.724138, 15.517241)" fill="#201F2D">
                        <rect id="Rectangle-path" x="79.3103448" y="0" width="3.44827586" height="3.44827586"></rect>
                        <rect id="Rectangle-path" x="72.4137931" y="0" width="3.44827586" height="3.44827586"></rect>
                        <rect id="Rectangle-path" x="86.2068966" y="0" width="3.44827586" height="3.44827586"></rect>
                        <rect id="Rectangle-path" x="93.1034483" y="0" width="3.44827586" height="3.44827586"></rect>
                        <rect id="Rectangle-path" x="93.1034483" y="6.89655172" width="3.44827586" height="3.44827586"></rect>
                        <rect id="Rectangle-path" x="93.1034483" y="13.7931034" width="3.44827586" height="3.44827586"></rect>
                        <rect id="Rectangle-path" x="93.1034483" y="20.6896552" width="3.44827586" height="3.44827586"></rect>
                        <rect id="Rectangle-path" x="93.1034483" y="27.5862069" width="3.44827586" height="3.44827586"></rect>
                        <rect id="Rectangle-path" x="93.1034483" y="34.4827586" width="3.44827586" height="3.44827586"></rect>
                        <rect id="Rectangle-path" x="93.1034483" y="41.3793103" width="3.44827586" height="3.44827586"></rect>
                        <rect id="Rectangle-path" x="13.7931034" y="0" width="3.44827586" height="3.44827586"></rect>
                        <rect id="Rectangle-path" x="20.6896552" y="0" width="3.44827586" height="3.44827586"></rect>
                        <rect id="Rectangle-path" x="6.89655172" y="0" width="3.44827586" height="3.44827586"></rect>
                        <rect id="Rectangle-path" x="0" y="0" width="3.44827586" height="3.44827586"></rect>
                        <rect id="Rectangle-path" x="0" y="6.89655172" width="3.44827586" height="3.44827586"></rect>
                        <rect id="Rectangle-path" x="0" y="13.7931034" width="3.44827586" height="3.44827586"></rect>
                        <rect id="Rectangle-path" x="0" y="20.6896552" width="3.44827586" height="3.44827586"></rect>
                        <rect id="Rectangle-path" x="0" y="27.5862069" width="3.44827586" height="3.44827586"></rect>
                        <rect id="Rectangle-path" x="0" y="34.4827586" width="3.44827586" height="3.44827586"></rect>
                        <rect id="Rectangle-path" x="0" y="41.3793103" width="3.44827586" height="3.44827586"></rect>
                        <rect id="Rectangle-path" x="39.6551724" y="79.3103448" width="3.44827586" height="3.44827586"></rect>
                        <rect id="Rectangle-path" x="46.5517241" y="79.3103448" width="3.44827586" height="3.44827586"></rect>
                        <rect id="Rectangle-path" x="53.4482759" y="79.3103448" width="3.44827586" height="3.44827586"></rect>
                    </g>
                </g>
            </g>
        </g>
    </g>
</svg>