<?xml version="1.0" encoding="UTF-8"?>
<svg width="84px" height="89px" viewBox="0 0 84 89" version="1.1" xmlns="http://www.w3.org/2000/svg" xmlns:xlink="http://www.w3.org/1999/xlink">
    <!-- Generator: Sketch 48.1 (47250) - http://www.bohemiancoding.com/sketch -->
    <title>stopwatch</title>
    <desc>Created with Sketch.</desc>
    <defs></defs>
    <g id="dripicons-v2-by-amit-jakhu" stroke="none" stroke-width="1" fill="none" fill-rule="evenodd" transform="translate(-953.000000, -4459.000000)">
        <path d="M1000.8024,4506.3898 C1000.8024,4510.2088 997.6494,4513.3038 993.8524,4513.3038 C990.0554,4513.3038 987.0274,4510.2088 987.0274,4506.3898 C987.0274,4504.0738 988.0024,4502.0288 990.0024,4500.7738 L990.0024,4484.5508 C990.0024,4482.3288 991.7934,4480.5278 994.0024,4480.5278 C996.2114,4480.5278 998.0024,4482.3288 998.0024,4484.5508 L998.0024,4500.7738 C1000.0024,4502.0288 1000.8024,4504.0738 1000.8024,4506.3898 L1000.8024,4506.3898 Z M993.8024,4539.2038 C975.7164,4539.2038 961.0024,4524.4838 961.0024,4506.3898 C961.0024,4488.2958 975.7164,4473.5758 993.8024,4473.5758 C1011.8884,4473.5758 1026.6014,4488.2958 1026.6014,4506.3898 C1026.6014,4524.4838 1011.8884,4539.2038 993.8024,4539.2038 L993.8024,4539.2038 Z M1030.3214,4476.5668 C1031.0864,4477.2628 1032.0454,4477.6048 1033.0014,4477.6048 C1034.0934,4477.6048 1035.1814,4477.1578 1035.9704,4476.2788 C1037.4514,4474.6298 1037.3234,4472.0858 1035.6844,4470.5968 L1030.5184,4465.9028 L1030.5184,4465.9028 C1030.5184,4465.9018 1030.5174,4465.9018 1030.5174,4465.9018 L1025.3244,4461.1828 C1023.6854,4459.6948 1021.1554,4459.8228 1019.6744,4461.4718 C1018.1934,4463.1198 1018.3224,4465.6638 1019.9614,4467.1538 L1022.1594,4469.1508 L1018.1214,4473.6038 C1013.5254,4470.1758 1008.1864,4467.6978 1002.3954,4466.4498 C1002.2484,4465.1948 1001.8284,4463.7328 1000.8114,4462.4108 C999.7624,4461.0468 997.7164,4459.3918 993.9314,4459.2528 C993.8774,4459.2508 993.8234,4459.2488 993.7704,4459.2508 C990.2644,4459.2838 988.2424,4460.7828 987.1634,4462.0348 C985.9394,4463.4538 985.4364,4465.1008 985.2444,4466.4418 C966.8434,4470.3918 953.0024,4486.7988 953.0024,4506.3898 C953.0024,4528.9198 971.3054,4547.2498 993.8024,4547.2498 C1016.2994,4547.2498 1034.6014,4528.9198 1034.6014,4506.3898 C1034.6014,4495.8628 1030.6044,4486.2548 1024.0524,4479.0028 L1028.0954,4474.5448 L1030.3214,4476.5668 Z" id="stopwatch" fill="#000000"></path>
    </g>
</svg>