<?xml version="1.0" encoding="UTF-8"?>
<svg width="30px" height="30px" viewBox="0 0 30 30" version="1.1" xmlns="http://www.w3.org/2000/svg" xmlns:xlink="http://www.w3.org/1999/xlink">
    <!-- Generator: Sketch 48.1 (47250) - http://www.bohemiancoding.com/sketch -->
    <title>tag</title>
    <desc>Created with Sketch.</desc>
    <defs></defs>
    <g id="V5-WIP" stroke="none" stroke-width="1" fill="none" fill-rule="evenodd">
        <g id="tag" fill="#FF5AB7" fill-rule="nonzero">
            <path d="M30,2.04375 C30.0022852,1.49595703 29.7908789,0.981679688 29.4047461,0.595546875 C29.0186133,0.209414063 28.5033398,-0.001640625 27.9566016,0.0003515625 C27.4103906,0.00263671875 26.8961719,0.217265625 26.5086914,0.6046875 C26.3446289,0.76875 26.0462109,1.123125 25.8829688,1.31982422 C25.7115234,1.52636719 25.7398828,1.8328125 25.9464258,2.00419922 C26.1529102,2.17564453 26.4593555,2.14728516 26.6308008,1.94074219 C26.8865039,1.63277344 27.0978516,1.39025391 27.1959961,1.29205078 C27.400957,1.08714844 27.6724805,0.97359375 27.9606445,0.972363281 C27.9622266,0.972363281 27.9636914,0.972363281 27.9652734,0.972363281 C28.2501563,0.972363281 28.517168,1.08251953 28.7174414,1.28285156 C28.9188281,1.48423828 29.0291602,1.75300781 29.0279297,2.03964844 C29.0266992,2.32775391 28.9131445,2.59927734 28.7082422,2.80429688 C28.5247852,2.98775391 27.8941992,3.48796875 26.9907422,4.11908203 C26.4563086,3.20537109 25.4651367,2.58984375 24.3323438,2.58984375 L17.2153125,2.58984375 C16.2546094,2.58984375 15.3514453,2.96396484 14.6720508,3.64324219 L0.446074219,17.8693945 C0.1584375,18.1570313 0,18.5394727 0,18.9462305 C0,19.3529883 0.1584375,19.7354883 0.446074219,20.0230664 L9.97734375,29.5543359 C10.2742969,29.8512305 10.6641797,29.9996484 11.0541797,29.9996484 C11.4441797,29.9996484 11.8341797,29.8511719 12.1310156,29.5543359 L26.3571094,15.3283008 C27.0363867,14.6489648 27.4105078,13.7458008 27.4105078,12.7850391 L27.4105078,5.66806641 C27.4105078,5.45800781 27.3892383,5.25292969 27.3489258,5.05458984 C28.3773047,4.34695313 29.1322266,3.75498047 29.3955469,3.49166016 C29.7830859,3.10423828 29.9977148,2.59001953 30,2.04375 Z M26.4384961,12.7850391 C26.4384961,13.4861133 26.1654492,14.1452344 25.6698047,14.6408789 L11.4437109,28.8670312 C11.2290234,29.0817773 10.8794531,29.0817773 10.664707,28.8670312 L1.1334375,19.3357617 C1.02943359,19.2317578 0.972070312,19.093418 0.972070312,18.9462305 C0.972070312,18.799043 1.029375,18.6607617 1.1334375,18.5567578 L15.3594727,4.33072266 C15.8552344,3.83501953 16.5142969,3.56203125 17.2153125,3.56203125 L24.3322852,3.56203125 C25.1315039,3.56203125 25.8281836,4.00951172 26.1849023,4.66705078 C25.6108008,5.04720703 24.9679687,5.45144531 24.2859961,5.84894531 C24.2647266,5.825625 24.2429883,5.80253906 24.2204297,5.77998047 C23.4244922,4.98404297 22.1294531,4.98404297 21.3335156,5.77998047 C20.5375781,6.57591797 20.5375781,7.87095703 21.3335156,8.66689453 C21.7314844,9.06486328 22.2542578,9.26378906 22.7769727,9.26378906 C23.2996875,9.26378906 23.8224609,9.06486328 24.2204297,8.66689453 C24.7516992,8.135625 24.9277734,7.38216797 24.7498828,6.70300781 C25.3430273,6.35771484 25.9126172,6.00480469 26.4382617,5.66337891 C26.4383203,5.66501953 26.4384375,5.66654297 26.4384375,5.668125 L26.4384375,12.7850391 L26.4384961,12.7850391 Z M22.3429102,7.44181641 C22.4282812,7.6115625 22.5996094,7.70953125 22.7775,7.70953125 C22.850918,7.70953125 22.9255078,7.69283203 22.9955859,7.65755859 C23.2804687,7.51423828 23.5643555,7.36517578 23.8454297,7.21248047 C23.8482422,7.48992187 23.7445312,7.76824219 23.5332422,7.97953125 C23.1162891,8.39642578 22.4380078,8.39642578 22.0210547,7.97953125 C21.6041602,7.56257812 21.6041602,6.88429687 22.0210547,6.46734375 C22.2295312,6.25886719 22.5033398,6.1546875 22.7771484,6.1546875 C22.9939453,6.1546875 23.2100977,6.22113281 23.3944922,6.35173828 C23.1193945,6.50126953 22.8401953,6.64769531 22.5587695,6.78931641 C22.3188281,6.90984375 22.222207,7.20205078 22.3429102,7.44181641 Z" id="Shape"></path>
            <path d="M14.4821484,9.90011719 C14.2137305,9.90011719 13.9961133,10.1176758 13.9961133,10.3861523 L13.9961133,20.6505469 C13.9961133,20.9189648 14.2137305,21.136582 14.4821484,21.136582 C14.7505664,21.136582 14.9681836,20.9189648 14.9681836,20.6505469 L14.9681836,10.3861523 C14.9681836,10.1176758 14.7505664,9.90011719 14.4821484,9.90011719 Z" id="Shape"></path>
            <path d="M12.2596289,14.0749805 C11.46375,13.2789258 10.1686523,13.2789844 9.37283203,14.0749219 C8.57689453,14.8708594 8.57689453,16.1658984 9.37283203,16.9618359 C9.77085937,17.3598633 10.2935156,17.5587891 10.8162891,17.5587305 C11.3389453,17.5587305 11.8617773,17.3596875 12.2596875,16.9618359 C12.645293,16.5762305 12.8576367,16.0636523 12.8576367,15.5183789 C12.8576367,14.9731055 12.6452344,14.4604688 12.2596289,14.0749805 Z M11.5723242,16.2744141 C11.1553711,16.6913672 10.4770898,16.6913086 10.0601953,16.2744141 C9.64330078,15.8574609 9.64330078,15.1791797 10.0601953,14.7622266 C10.2686719,14.55375 10.5424805,14.4495703 10.8162891,14.4495703 C11.0900977,14.4495703 11.3639063,14.55375 11.5723828,14.7622266 C11.7743555,14.9641992 11.8855664,15.2326758 11.8855664,15.5183203 C11.8855078,15.8039648 11.7742969,16.0724414 11.5723242,16.2744141 Z" id="Shape"></path>
            <path d="M19.5914062,14.0749219 C18.7954687,13.2789258 17.5003711,13.2789844 16.7046094,14.0749219 C15.9086719,14.8708594 15.9086719,16.1658984 16.7046094,16.9618359 C17.1025781,17.3598047 17.625293,17.5587305 18.1480664,17.5587305 C18.6707812,17.5587305 19.1935547,17.3598047 19.5914648,16.9618359 C20.3873437,16.1658984 20.3873437,14.8708594 19.5914062,14.0749219 Z M18.904043,16.2744141 C18.4870898,16.6913672 17.8088086,16.6913086 17.3919141,16.2744141 C16.9750195,15.8574609 16.9750195,15.1791797 17.3919141,14.7622266 C17.6003906,14.55375 17.8741992,14.4495703 18.1480078,14.4495703 C18.4218164,14.4495703 18.695625,14.55375 18.9041016,14.7622266 C19.3209961,15.1791797 19.3209961,15.8574609 18.904043,16.2744141 Z" id="Shape"></path>
        </g>
    </g>
</svg>