<?xml version="1.0" encoding="UTF-8"?>
<svg width="30px" height="32px" viewBox="0 0 30 32" version="1.1" xmlns="http://www.w3.org/2000/svg" xmlns:xlink="http://www.w3.org/1999/xlink">
    <!-- Generator: Sketch 48.1 (47250) - http://www.bohemiancoding.com/sketch -->
    <title>headphones</title>
    <desc>Created with Sketch.</desc>
    <defs></defs>
    <g id="V5-WIP" stroke="none" stroke-width="1" fill="none" fill-rule="evenodd">
        <g id="headphones" fill="#FB1A1A" fill-rule="nonzero">
            <path d="M25.9051339,12.1205357 L25.9051339,10.8950893 C25.9051339,7.96205357 24.8671875,5.23660714 22.9854911,3.21428571 C21.0569196,1.13839286 18.4051339,-2.84217094e-14 15.5122768,-2.84217094e-14 L14.5011161,-2.84217094e-14 C11.6082589,-2.84217094e-14 8.95647321,1.13839286 7.02790179,3.21428571 C5.14620536,5.23660714 4.10825893,7.96205357 4.10825893,10.8950893 L4.10825893,12.1205357 C1.82477679,12.2745536 0.0100446429,14.1763393 0.0100446429,16.5 L0.0100446429,18.4151786 C0.0100446429,20.8325893 1.97879464,22.8013393 4.39620536,22.8013393 L6.8671875,22.8013393 C7.30915179,22.8013393 7.67075893,22.4397321 7.67075893,21.9977679 L7.67075893,12.9107143 C7.67075893,12.46875 7.30915179,12.1071429 6.8671875,12.1071429 L5.71540179,12.1071429 L5.71540179,10.8950893 C5.71540179,5.59821429 9.4921875,1.60714286 14.4944196,1.60714286 L15.5055804,1.60714286 C20.5145089,1.60714286 24.2845982,5.59821429 24.2845982,10.8950893 L24.2845982,12.1071429 L23.1328125,12.1071429 C22.6908482,12.1071429 22.3292411,12.46875 22.3292411,12.9107143 L22.3292411,21.9910714 C22.3292411,22.4330357 22.6908482,22.7946429 23.1328125,22.7946429 L24.2578125,22.7946429 C23.9296875,26.9866071 21.0435268,27.9575893 19.7042411,28.1785714 C19.3359375,27.046875 18.2712054,26.2299107 17.0189732,26.2299107 L15.0100446,26.2299107 C13.4564732,26.2299107 12.1908482,27.4955357 12.1908482,29.0491071 C12.1908482,30.6026786 13.4564732,31.875 15.0100446,31.875 L17.0256696,31.875 C18.3247768,31.875 19.4162946,30.9910714 19.7444196,29.7991071 C20.4006696,29.7053571 21.4386161,29.4709821 22.4698661,28.8683036 C23.9229911,28.0178571 25.6439732,26.2834821 25.8716518,22.7879464 C28.1685268,22.6473214 29.9899554,20.7388393 29.9899554,18.4084821 L29.9899554,16.4933036 C29.9966518,14.1763393 28.1886161,12.2678571 25.9051339,12.1205357 Z M6.07700893,21.1875 L4.40959821,21.1875 C2.87611607,21.1875 1.63058036,19.9419643 1.63058036,18.4084821 L1.63058036,16.4933036 C1.63058036,14.9598214 2.87611607,13.7142857 4.40959821,13.7142857 L6.07700893,13.7142857 L6.07700893,21.1875 Z M17.0256696,30.2678571 L15.0100446,30.2678571 C14.3404018,30.2678571 13.7979911,29.7254464 13.7979911,29.0558036 C13.7979911,28.3861607 14.3404018,27.84375 15.0100446,27.84375 L17.0256696,27.84375 C17.6953125,27.84375 18.2377232,28.3861607 18.2377232,29.0558036 C18.2377232,29.7254464 17.6953125,30.2678571 17.0256696,30.2678571 Z M28.3895089,18.4084821 C28.3895089,19.9419643 27.1439732,21.1875 25.6104911,21.1875 L23.9430804,21.1875 L23.9430804,13.7142857 L25.6104911,13.7142857 C27.1439732,13.7142857 28.3895089,14.9598214 28.3895089,16.4933036 L28.3895089,18.4084821 Z" id="Shape"></path>
        </g>
    </g>
</svg>