<?xml version="1.0" encoding="UTF-8"?>
<svg width="30px" height="30px" viewBox="0 0 30 30" version="1.1" xmlns="http://www.w3.org/2000/svg" xmlns:xlink="http://www.w3.org/1999/xlink">
    <!-- Generator: Sketch 48.1 (47250) - http://www.bohemiancoding.com/sketch -->
    <title>qr-code</title>
    <desc>Created with Sketch.</desc>
    <defs></defs>
    <g id="V5-WIP" stroke="none" stroke-width="1" fill="none" fill-rule="evenodd">
        <g id="qr-code" fill="#7ED321" fill-rule="nonzero">
            <path d="M9.36331461,1.87264045 L1.87264045,1.87264045 L1.87264045,9.36325843 L9.36331461,9.36325843 L9.36331461,1.87264045 Z M11.2359551,0 L11.2359551,11.2359551 L0,11.2359551 L0,0 L11.2359551,0 Z M3.74533708,3.74533708 L7.49067416,3.74533708 L7.49067416,7.49067416 L3.74533708,7.49067416 L3.74533708,3.74533708 Z M28.0898876,1.87264045 L20.5992697,1.87264045 L20.5992697,9.36325843 L28.0898876,9.36325843 L28.0898876,1.87264045 Z M29.9625281,0 L29.9625281,11.2359551 L18.726573,11.2359551 L18.726573,0 L29.9625281,0 Z M22.4719101,3.74533708 L26.2172472,3.74533708 L26.2172472,7.49067416 L22.4719101,7.49067416 L22.4719101,3.74533708 Z M9.36331461,20.5992697 L1.87264045,20.5992697 L1.87264045,28.0898876 L9.36331461,28.0898876 L9.36331461,20.5992697 Z M11.2359551,18.726573 L11.2359551,29.9625281 L0,29.9625281 L0,18.726573 L11.2359551,18.726573 Z M3.74533708,22.4719101 L7.49067416,22.4719101 L7.49067416,26.2172472 L3.74533708,26.2172472 L3.74533708,22.4719101 Z M13.1085955,0 L14.981236,0 L14.981236,1.87264045 L13.1085955,1.87264045 L13.1085955,0 Z M14.9812921,1.87264045 L16.8539326,1.87264045 L16.8539326,3.7452809 L14.9812921,3.7452809 L14.9812921,1.87264045 Z M13.1085955,3.74533708 L14.981236,3.74533708 L14.981236,5.61797753 L13.1085955,5.61797753 L13.1085955,3.74533708 Z M14.9812921,5.61797753 L16.8539326,5.61797753 L16.8539326,7.49061798 L14.9812921,7.49061798 L14.9812921,5.61797753 Z M13.1085955,7.49061798 L14.981236,7.49061798 L14.981236,9.36325843 L13.1085955,9.36325843 L13.1085955,7.49061798 Z M14.9812921,9.36331461 L16.8539326,9.36331461 L16.8539326,11.2359551 L14.9812921,11.2359551 L14.9812921,9.36331461 Z M13.1085955,11.2359551 L14.981236,11.2359551 L14.981236,13.1085955 L13.1085955,13.1085955 L13.1085955,11.2359551 Z M13.1085955,14.9812921 L14.981236,14.9812921 L14.981236,16.8539326 L13.1085955,16.8539326 L13.1085955,14.9812921 Z M14.9812921,16.8539326 L16.8539326,16.8539326 L16.8539326,18.726573 L14.9812921,18.726573 L14.9812921,16.8539326 Z M13.1085955,18.726573 L14.981236,18.726573 L14.981236,20.5992697 L13.1085955,20.5992697 L13.1085955,18.726573 Z M14.9812921,20.5992697 L16.8539326,20.5992697 L16.8539326,22.4719101 L14.9812921,22.4719101 L14.9812921,20.5992697 Z M13.1085955,22.4719101 L14.981236,22.4719101 L14.981236,24.3445506 L13.1085955,24.3445506 L13.1085955,22.4719101 Z M14.9812921,24.3445506 L16.8539326,24.3445506 L16.8539326,26.2172472 L14.9812921,26.2172472 L14.9812921,24.3445506 Z M13.1085955,26.2172472 L14.981236,26.2172472 L14.981236,28.0898876 L13.1085955,28.0898876 L13.1085955,26.2172472 Z M14.9812921,28.0898876 L16.8539326,28.0898876 L16.8539326,29.9625281 L14.9812921,29.9625281 L14.9812921,28.0898876 Z M28.0898876,14.9812921 L29.9625843,14.9812921 L29.9625843,16.8539326 L28.0898876,16.8539326 L28.0898876,14.9812921 Z M1.87264045,14.9812921 L3.7452809,14.9812921 L3.7452809,16.8539326 L1.87264045,16.8539326 L1.87264045,14.9812921 Z M3.74533708,13.1085955 L5.61797753,13.1085955 L5.61797753,14.981236 L3.74533708,14.981236 L3.74533708,13.1085955 Z M0,13.1085955 L1.87264045,13.1085955 L1.87264045,14.981236 L0,14.981236 L0,13.1085955 Z M7.49061798,13.1085955 L9.36325843,13.1085955 L9.36325843,14.981236 L7.49061798,14.981236 L7.49061798,13.1085955 Z M9.36331461,14.9812921 L11.2359551,14.9812921 L11.2359551,16.8539326 L9.36331461,16.8539326 L9.36331461,14.9812921 Z M11.2359551,13.1085955 L13.1085955,13.1085955 L13.1085955,14.981236 L11.2359551,14.981236 L11.2359551,13.1085955 Z M16.8539326,14.9812921 L18.7266292,14.9812921 L18.7266292,16.8539326 L16.8539326,16.8539326 L16.8539326,14.9812921 Z M18.726573,13.1085955 L20.5992135,13.1085955 L20.5992135,14.981236 L18.726573,14.981236 L18.726573,13.1085955 Z M20.5992697,14.9812921 L22.4719101,14.9812921 L22.4719101,16.8539326 L20.5992697,16.8539326 L20.5992697,14.9812921 Z M22.4719101,13.1085955 L24.3446067,13.1085955 L24.3446067,14.981236 L22.4719101,14.981236 L22.4719101,13.1085955 Z M24.3445506,14.9812921 L26.217191,14.9812921 L26.217191,16.8539326 L24.3445506,16.8539326 L24.3445506,14.9812921 Z M26.2172472,13.1085955 L28.0898876,13.1085955 L28.0898876,14.981236 L26.2172472,14.981236 L26.2172472,13.1085955 Z M28.0898876,18.726573 L29.9625843,18.726573 L29.9625843,20.5992697 L28.0898876,20.5992697 L28.0898876,18.726573 Z M16.8539326,18.726573 L18.7266292,18.726573 L18.7266292,20.5992697 L16.8539326,20.5992697 L16.8539326,18.726573 Z M18.726573,16.8539326 L20.5992135,16.8539326 L20.5992135,18.726573 L18.726573,18.726573 L18.726573,16.8539326 Z M20.5992697,18.726573 L22.4719101,18.726573 L22.4719101,20.5992697 L20.5992697,20.5992697 L20.5992697,18.726573 Z M24.3445506,18.726573 L26.217191,18.726573 L26.217191,20.5992697 L24.3445506,20.5992697 L24.3445506,18.726573 Z M26.2172472,16.8539326 L28.0898876,16.8539326 L28.0898876,18.726573 L26.2172472,18.726573 L26.2172472,16.8539326 Z M28.0898876,22.4719101 L29.9625843,22.4719101 L29.9625843,24.3445506 L28.0898876,24.3445506 L28.0898876,22.4719101 Z M16.8539326,22.4719101 L18.7266292,22.4719101 L18.7266292,24.3445506 L16.8539326,24.3445506 L16.8539326,22.4719101 Z M18.726573,20.5992697 L20.5992135,20.5992697 L20.5992135,22.4719101 L18.726573,22.4719101 L18.726573,20.5992697 Z M22.4719101,20.5992697 L24.3446067,20.5992697 L24.3446067,22.4719101 L22.4719101,22.4719101 L22.4719101,20.5992697 Z M24.3445506,22.4719101 L26.217191,22.4719101 L26.217191,24.3445506 L24.3445506,24.3445506 L24.3445506,22.4719101 Z M26.2172472,20.5992697 L28.0898876,20.5992697 L28.0898876,22.4719101 L26.2172472,22.4719101 L26.2172472,20.5992697 Z M28.0898876,26.2172472 L29.9625843,26.2172472 L29.9625843,28.0898876 L28.0898876,28.0898876 L28.0898876,26.2172472 Z M18.726573,24.3445506 L20.5992135,24.3445506 L20.5992135,26.2172472 L18.726573,26.2172472 L18.726573,24.3445506 Z M20.5992697,26.2172472 L22.4719101,26.2172472 L22.4719101,28.0898876 L20.5992697,28.0898876 L20.5992697,26.2172472 Z M22.4719101,24.3445506 L24.3446067,24.3445506 L24.3446067,26.2172472 L22.4719101,26.2172472 L22.4719101,24.3445506 Z M24.3445506,26.2172472 L26.217191,26.2172472 L26.217191,28.0898876 L24.3445506,28.0898876 L24.3445506,26.2172472 Z M18.726573,28.0898876 L20.5992135,28.0898876 L20.5992135,29.9625281 L18.726573,29.9625281 L18.726573,28.0898876 Z M22.4719101,28.0898876 L24.3446067,28.0898876 L24.3446067,29.9625281 L22.4719101,29.9625281 L22.4719101,28.0898876 Z M26.2172472,28.0898876 L28.0898876,28.0898876 L28.0898876,29.9625281 L26.2172472,29.9625281 L26.2172472,28.0898876 Z" id="Shape"></path>
        </g>
    </g>
</svg>