<?xml version="1.0" encoding="UTF-8"?>
<svg width="30px" height="26px" viewBox="0 0 30 26" version="1.1" xmlns="http://www.w3.org/2000/svg" xmlns:xlink="http://www.w3.org/1999/xlink">
    <!-- Generator: Sketch 48.1 (47250) - http://www.bohemiancoding.com/sketch -->
    <title>refresh</title>
    <desc>Created with Sketch.</desc>
    <defs></defs>
    <g id="V5-WIP" stroke="none" stroke-width="1" fill="none" fill-rule="evenodd">
        <g id="refresh" fill="#F5A623" fill-rule="nonzero">
            <path d="M15,23.0806863 C11.415,23.0806863 8.25460784,21.2634314 6.38769608,18.5010784 L3.70960784,18.5010784 C5.81769608,22.5914706 10.0823039,25.3883824 15,25.3883824 C21.6207353,25.3883824 27.0576961,20.3183824 27.6403922,13.849902 L30,13.849902 L26.5384804,9.23455882 L23.0769608,13.849902 L25.3211765,13.849902 C24.7476961,19.0422549 20.3457843,23.0806863 15,23.0806863 Z" id="Shape"></path>
            <path d="M15,0.0037745098 C8.77848039,0.0037745098 3.60230392,4.48068627 2.51651961,10.3883824 L0,10.3883824 L3.46151961,15.0037745 L6.92308824,10.3883824 L4.87269608,10.3883824 C5.92151961,5.76377451 10.0580882,2.31147059 15,2.31147059 C18.1234804,2.31147059 20.9238725,3.69029412 22.8276961,5.8722549 L23.2730882,5.75803922 L25.6292157,5.75803922 C23.3630392,2.2929902 19.4492647,0.0037745098 15,0.0037745098 Z" id="Shape"></path>
        </g>
    </g>
</svg>