<?xml version="1.0" encoding="UTF-8"?>
<svg width="30px" height="25px" viewBox="0 0 30 25" version="1.1" xmlns="http://www.w3.org/2000/svg" xmlns:xlink="http://www.w3.org/1999/xlink">
    <!-- Generator: Sketch 48.1 (47250) - http://www.bohemiancoding.com/sketch -->
    <title>speech-bubble</title>
    <desc>Created with Sketch.</desc>
    <defs></defs>
    <g id="V5-WIP" stroke="none" stroke-width="1" fill="none" fill-rule="evenodd">
        <g id="speech-bubble" fill="#BD10E0" fill-rule="nonzero">
            <path d="M4.3675,25.0085556 C4.28705556,25.0085556 4.20605556,24.9927222 4.12866667,24.9610556 C3.89527778,24.8647778 3.74361111,24.6368889 3.74361111,24.3846667 L3.74361111,20.0171667 L1.87177778,20.0171667 C0.839611111,20.0171111 0,19.1774444 0,18.1452778 L0,1.92305556 C0,0.890888889 0.839611111,0.0512777778 1.87177778,0.0512777778 L28.0768889,0.0512777778 C29.1090556,0.0512777778 29.9486667,0.890888889 29.9486667,1.92305556 L29.9486667,18.1452778 C29.9486667,19.1774444 29.1090556,20.0170556 28.0768889,20.0170556 L9.61733333,20.0170556 L4.80866667,24.8257222 C4.68922222,24.9451667 4.52961111,25.0085556 4.3675,25.0085556 Z M1.87177778,1.29916667 C1.5275,1.29916667 1.24783333,1.57883333 1.24783333,1.92311111 L1.24783333,18.1453333 C1.24783333,18.489 1.5275,18.7692778 1.87177778,18.7692778 L4.3675,18.7692778 C4.71238889,18.7692778 4.99144444,19.0483333 4.99144444,19.3932222 L4.99144444,22.8784444 L8.91783333,18.9520556 C9.03483333,18.8350556 9.19322222,18.7692778 9.359,18.7692778 L28.0769444,18.7692778 C28.4206111,18.7692778 28.7008889,18.489 28.7008889,18.1453333 L28.7008889,1.92311111 C28.7008889,1.57883333 28.4206111,1.29916667 28.0769444,1.29916667 L1.87177778,1.29916667 Z" id="Shape"></path>
            <path d="M10.6068333,11.2820556 C9.91894444,11.2820556 9.35894444,10.7221111 9.35894444,10.0341667 C9.35894444,9.34627778 9.91888889,8.78627778 10.6068333,8.78627778 C11.2947222,8.78627778 11.8547222,9.34622222 11.8547222,10.0341667 C11.8547222,10.7221111 11.2947222,11.2820556 10.6068333,11.2820556 Z" id="Shape"></path>
            <path d="M20.5897222,11.2820556 C19.9012222,11.2820556 19.3418333,10.7221111 19.3418333,10.0341667 C19.3418333,9.34627778 19.9011667,8.78627778 20.5897222,8.78627778 C21.2782778,8.78627778 21.8376111,9.34622222 21.8376111,10.0341667 C21.8376111,10.7221111 21.2782778,11.2820556 20.5897222,11.2820556 Z" id="Shape"></path>
            <path d="M15.5982778,11.2820556 C14.9103889,11.2820556 14.3503889,10.7221111 14.3503889,10.0341667 C14.3503889,9.34627778 14.9103333,8.78627778 15.5982778,8.78627778 C16.2867778,8.78627778 16.8461667,9.34622222 16.8461667,10.0341667 C16.8461667,10.7221111 16.2868333,11.2820556 15.5982778,11.2820556 Z" id="Shape"></path>
        </g>
    </g>
</svg>