<?xml version="1.0" encoding="UTF-8"?>
<svg width="30px" height="22px" viewBox="0 0 30 22" version="1.1" xmlns="http://www.w3.org/2000/svg" xmlns:xlink="http://www.w3.org/1999/xlink">
    <!-- Generator: Sketch 48.1 (47250) - http://www.bohemiancoding.com/sketch -->
    <title>mail</title>
    <desc>Created with Sketch.</desc>
    <defs></defs>
    <g id="V5-WIP" stroke="none" stroke-width="1" fill="none" fill-rule="evenodd">
        <g id="mail" fill="#F5A623" fill-rule="nonzero">
            <g id="Group" transform="translate(4.687500, 10.312500)">
                <path d="M18.8521875,6.103125 C18.736875,6.103125 18.6215625,6.0609375 18.5315625,5.975625 L13.1371875,0.915 C12.94875,0.73875 12.939375,0.4415625 13.1165625,0.253125 C13.29375,0.0628125 13.5890625,0.054375 13.779375,0.2325 L19.17375,5.293125 C19.3621875,5.469375 19.3715625,5.7665625 19.194375,5.955 C19.1015625,6.0534375 18.9778125,6.103125 18.8521875,6.103125 Z" id="Shape"></path>
                <path d="M0.845625,6.103125 C0.7209375,6.103125 0.59625,6.0534375 0.5034375,5.955 C0.32625,5.7665625 0.335625,5.469375 0.5240625,5.293125 L5.9203125,0.2325 C6.1096875,0.05625 6.406875,0.06375 6.583125,0.253125 C6.7603125,0.4415625 6.7509375,0.73875 6.5625,0.915 L1.16625,5.975625 C1.07625,6.0609375 0.9609375,6.103125 0.845625,6.103125 Z" id="Shape"></path>
            </g>
            <path d="M26.73,21.1209375 L2.34375,21.1209375 C1.051875,21.1209375 0,20.07 0,18.7771875 L0,2.795625 C0,1.5028125 1.051875,0.451875 2.34375,0.451875 L26.73,0.451875 C28.021875,0.451875 29.07375,1.5028125 29.07375,2.795625 L29.07375,18.7771875 C29.07375,20.07 28.021875,21.1209375 26.73,21.1209375 Z M2.34375,1.389375 C1.5684375,1.389375 0.9375,2.0203125 0.9375,2.795625 L0.9375,18.7771875 C0.9375,19.5525 1.5684375,20.1834375 2.34375,20.1834375 L26.73,20.1834375 C27.5053125,20.1834375 28.13625,19.5525 28.13625,18.7771875 L28.13625,2.795625 C28.13625,2.0203125 27.5053125,1.389375 26.73,1.389375 L2.34375,1.389375 Z" id="Shape"></path>
            <path d="M14.536875,13.141875 C13.9134375,13.141875 13.29,12.9346875 12.815625,12.52125 L0.778125,2.0203125 C0.583125,1.850625 0.5625,1.554375 0.7321875,1.3584375 C0.90375,1.1634375 1.1990625,1.145625 1.3940625,1.3134375 L13.4315625,11.8134375 C14.030625,12.335625 15.043125,12.335625 15.64125,11.8134375 L27.66375,1.3303125 C27.8578125,1.160625 28.153125,1.179375 28.325625,1.3753125 C28.4953125,1.57125 28.475625,1.8665625 28.280625,2.0371875 L16.258125,12.5203125 C15.7828125,12.9346875 15.1603125,13.141875 14.536875,13.141875 Z" id="Shape"></path>
        </g>
    </g>
</svg>