<?xml version="1.0" encoding="UTF-8"?>
<svg width="30px" height="28px" viewBox="0 0 30 28" version="1.1" xmlns="http://www.w3.org/2000/svg" xmlns:xlink="http://www.w3.org/1999/xlink">
    <!-- Generator: Sketch 48.1 (47250) - http://www.bohemiancoding.com/sketch -->
    <title>users (1)</title>
    <desc>Created with Sketch.</desc>
    <defs></defs>
    <g id="V5-WIP" stroke="none" stroke-width="1" fill="none" fill-rule="evenodd">
        <g id="users-(1)" fill="#326ADA" fill-rule="nonzero">
            <path d="M27.507,21.4596124 L22.7305,19.0699295 C22.28,18.8442706 22,18.3909514 22,17.8865962 L22,16.1949049 C22.1145,16.0548062 22.235,15.8951938 22.3595,15.7190698 C22.979,14.8434531 23.4755,13.8687667 23.8365,12.8175264 C24.542,12.4937984 25,11.7958069 25,11.0077519 L25,9.00634249 C25,8.52450317 24.82,8.05767442 24.5,7.69291755 L24.5,5.03154334 C24.528,4.75634954 24.638,3.11819591 23.454,1.76674419 C22.427,0.594418605 20.7605,0 18.5,0 C16.2395,0 14.573,0.594418605 13.546,1.76624383 C12.8285,2.58532065 12.587,3.5079704 12.514,4.17043693 C11.657,3.72712474 10.647,3.50246653 9.5,3.50246653 C4.3055,3.50246653 4.003,7.93308668 4,8.00563777 L4,10.2967512 C3.676,10.65 3.5,11.0577872 3.5,11.4625722 L3.5,13.1907893 C3.5,13.7306695 3.7415,14.234024 4.1555,14.5742636 C4.568,16.1303594 5.5825,17.3061875 5.9775,17.7189782 L5.9775,19.0914447 C5.9775,19.485222 5.7635,19.8464764 5.392,20.0496195 L2.0655,22.1375899 C0.7915,22.8330796 0,24.1675194 0,25.6195419 L0,27.5193798 L7,27.5193798 L8,27.5193798 L30,27.5193798 L30,25.4964553 C30,23.7762438 29.0445,22.2291543 27.507,21.4596124 Z M7,25.3988865 L7,26.5186751 L1,26.5186751 L1,25.6195419 C1,24.5337773 1.592,23.5360747 2.5705,23.001198 L5.8965,20.9132276 C6.563,20.5494715 6.977,19.8519803 6.977,19.0914447 L6.977,17.2946794 L6.818,17.1460747 C6.805,17.1340662 5.4765,15.8781818 5.084,14.1664764 L5.0385,13.9683369 L4.8675,13.8582593 C4.6375,13.7091543 4.5,13.4594785 4.5,13.1907893 L4.5,11.4625722 C4.5,11.2824454 4.6225,11.0682946 4.8355,10.8751586 L5,10.7265539 L4.999,8.03465821 C5.008,7.89105708 5.2685,4.50317125 9.5,4.50317125 C10.6965,4.50317125 11.704,4.7798661 12.5,5.32575053 L12.5,7.69291755 C12.18,8.05767442 12,8.52450317 12,9.00634249 L12,11.0077519 C12,11.1598591 12.0175,11.3094644 12.0505,11.4545666 C12.064,11.5126075 12.091,11.5656448 12.1095,11.6216843 C12.137,11.7057435 12.159,11.7923044 12.1975,11.8718605 C12.198,11.8728612 12.1985,11.8733615 12.199,11.8743622 C12.327,12.1385483 12.5135,12.3747146 12.7485,12.5633474 C12.751,12.5728541 12.754,12.5813601 12.7565,12.5903665 C12.7865,12.7049471 12.818,12.8190275 12.852,12.9306061 L12.8925,13.061198 C12.8995,13.0842142 12.908,13.1077308 12.9155,13.130747 C12.933,13.1847851 12.95,13.2383228 12.968,13.2913601 C12.998,13.3789218 13.0295,13.4694856 13.066,13.568055 C13.0815,13.6090839 13.0985,13.6461099 13.1145,13.6866385 C13.1555,13.7912121 13.1965,13.8922833 13.2395,13.9923538 C13.25,14.0163707 13.259,14.042389 13.2695,14.0659056 L13.2975,14.12895 C13.3105,14.1579704 13.324,14.1839887 13.337,14.2125088 C13.386,14.3195842 13.434,14.4231572 13.484,14.5232276 C13.492,14.5392389 13.4995,14.5567512 13.5075,14.5727625 C13.539,14.6353066 13.5705,14.6943481 13.602,14.7543904 C13.656,14.857463 13.709,14.9545314 13.762,15.0485976 C13.788,15.09463 13.8135,15.1396617 13.839,15.1831924 C13.911,15.3062791 13.9795,15.4193587 14.046,15.5244327 C14.0605,15.5469486 14.0745,15.5704651 14.0885,15.5919803 C14.2095,15.7796124 14.3145,15.9317195 14.4015,16.050303 C14.4245,16.0818252 14.4445,16.1088443 14.464,16.1353629 C14.475,16.1498732 14.49,16.1708879 14.4995,16.1838971 L14.4995,17.8395631 C14.4995,18.3239042 14.2355,18.7682171 13.811,19.0003805 L12.488,19.722389 L12.2575,19.7018746 L12.1635,19.8995137 L9.3505,21.4350951 C7.9005,22.2276533 7,23.7457223 7,25.3988865 Z M29,26.5186751 L8,26.5186751 L8,25.3988865 C8,24.1124806 8.701,22.930148 9.8295,22.3147146 L14.29,19.88 C15.0365,19.4722128 15.5,18.6901621 15.5,17.8400634 L15.5,15.8296476 L15.5,15.8291473 L15.403,15.7130655 L15.384,15.6905497 C15.383,15.6890486 15.352,15.6515222 15.3015,15.5854757 C15.2985,15.5814729 15.2955,15.57747 15.292,15.5734672 C15.2655,15.5389429 15.2345,15.4974137 15.199,15.4478788 C15.1985,15.4468781 15.198,15.4463777 15.1975,15.445377 C15.123,15.3418041 15.0295,15.2072093 14.9255,15.0450951 C14.923,15.0415927 14.921,15.0375899 14.9185,15.0340874 C14.8695,14.9575335 14.8175,14.8739746 14.7645,14.7854123 C14.7605,14.7789077 14.7565,14.7724031 14.7525,14.7653982 C14.6395,14.5757646 14.5195,14.3611135 14.4,14.1234461 C14.4,14.1234461 14.3995,14.1229457 14.3995,14.1224454 C14.336,13.9948555 14.2725,13.8607611 14.2105,13.7211628 C14.202,13.701649 14.193,13.6826357 14.1845,13.6631219 C14.157,13.6005779 14.1295,13.5350317 14.1015,13.4674841 C14.0915,13.4429669 14.0815,13.4174489 14.0715,13.3924313 C14.0455,13.3268851 14.019,13.2608386 13.991,13.1852854 C13.94,13.0491896 13.892,12.9070895 13.846,12.7604863 L13.8185,12.6714235 C13.8155,12.6614165 13.812,12.6514094 13.809,12.640902 C13.762,12.4827907 13.717,12.3211769 13.679,12.1550599 L13.6335,11.9569204 L13.463,11.8468428 C13.173,11.6597111 13,11.3459901 13,11.0077519 L13,9.00634249 C13,8.72564482 13.119,8.46396054 13.335,8.26832276 L13.5,8.11971811 L13.5,5.00352361 L13.5,4.82639887 L13.4865,4.81589147 C13.4695,4.45463707 13.491,3.34735729 14.298,2.4262086 C15.1265,1.48004228 16.5405,1.00070472 18.5,1.00070472 C20.4525,1.00070472 21.8635,1.47653982 22.693,2.4157012 C23.6665,3.51697674 23.5055,4.92596899 23.5045,4.93797745 L23.5,8.11971811 L23.665,8.26882311 C23.881,8.46396054 24,8.72564482 24,9.00634249 L24,11.0077519 C24,11.4445595 23.714,11.8268288 23.289,11.9579211 L23.04,12.034475 L22.96,12.2821494 C22.6255,13.3233827 22.149,14.2850599 21.543,15.1406624 C21.3945,15.3513108 21.25,15.5379422 21.1245,15.6805426 L21,15.8226427 L21,17.8865962 C21,18.7722199 21.4915,19.5682805 22.283,19.9645595 L27.0595,22.3542424 C28.2565,22.9531642 29,24.157012 29,25.4964553 L29,26.5186751 Z" id="Shape"></path>
        </g>
    </g>
</svg>