<svg width="20" height="20" viewBox="0 0 20 20" version="1.1" xmlns="http://www.w3.org/2000/svg" xmlns:xlink="http://www.w3.org/1999/xlink">
<title>rss-feed-rounded-square-outlined-button</title>
<desc>Created using Figma</desc>
<g id="Canvas" transform="translate(456 -182)">
<g id="rss-feed-rounded-square-outlined-button">
<g id="Group">
<g id="Shape 6">
<g id="Group">
<g id="Vector">
<use xlink:href="#path0_fill" transform="translate(-456 182)" fill="#BD10E0"/>
</g>
</g>
</g>
</g>
</g>
</g>
<defs>
<path id="path0_fill" d="M 3.7268 9.88454C 3.5215 9.8585 3.33095 10.0042 3.30454 10.2113C 3.2781 10.4181 3.42454 10.6072 3.63134 10.6336C 5.04984 10.8143 6.33549 11.4457 7.34909 12.4596C 8.36154 13.4721 8.99248 14.7555 9.17438 16.1713C 9.19853 16.3615 9.36118 16.5008 9.54797 16.5008C 9.56382 16.5008 9.58003 16.4996 9.59667 16.4977C 9.80346 16.4713 9.94948 16.2823 9.92271 16.0755C 9.71971 14.4925 9.01402 13.0577 7.88271 11.926C 6.7498 10.7928 5.31245 10.0868 3.7268 9.88454ZM 3.06905 5.92866C 2.86301 5.90265 2.67356 6.0483 2.6468 6.25546C 2.62039 6.46226 2.7668 6.65131 2.97359 6.67771C 5.6702 7.0215 8.11395 8.22147 10.0408 10.1483C 11.9649 12.0724 13.1645 14.512 13.5102 17.2037C 13.5343 17.3939 13.697 17.5328 13.8838 17.5328C 13.9 17.5328 13.9158 17.532 13.9325 17.5297C 14.1392 17.5033 14.2853 17.3142 14.2585 17.1075C 13.8913 14.249 12.6174 11.658 10.5744 9.61464C 8.5283 7.5683 5.9332 6.29395 3.06905 5.92866ZM 14.9204 0L 5.07964 0C 2.27886 0 0 2.27886 0 5.07964L 0 14.9204C 0 17.7211 2.27886 20 5.07964 20L 14.9204 20C 17.7211 20 20 17.7211 20 14.9204L 20 5.07964C 20 2.27886 17.7211 0 14.9204 0ZM 19.2453 14.9204C 19.2453 17.3049 17.3049 19.2453 14.9204 19.2453L 5.07964 19.2453C 2.6951 19.2453 0.754739 17.3049 0.754739 14.9204L 0.754739 5.07964C 0.754739 2.6951 2.6951 0.754739 5.07964 0.754739L 14.9204 0.754739C 17.3049 0.754739 19.2453 2.6951 19.2453 5.07964L 19.2453 14.9204L 19.2453 14.9204ZM 4.9083 13.5657C 3.78415 13.5657 2.86984 14.4804 2.86984 15.6045C 2.86984 16.7287 3.78418 17.6434 4.9083 17.6434C 6.03245 17.6434 6.94719 16.7287 6.94719 15.6045C 6.94716 14.4804 6.03245 13.5657 4.9083 13.5657ZM 4.9083 16.8887C 4.20039 16.8887 3.62454 16.3128 3.62454 15.6045C 3.62454 14.8962 4.20039 14.3204 4.9083 14.3204C 5.6166 14.3204 6.19245 14.8962 6.19245 15.6045C 6.19245 16.3128 5.61621 16.8887 4.9083 16.8887Z"/>
</defs>
</svg>
