<svg width="17" height="20" viewBox="0 0 17 20" version="1.1" xmlns="http://www.w3.org/2000/svg" xmlns:xlink="http://www.w3.org/1999/xlink">
<title>security</title>
<desc>Created using Figma</desc>
<g id="Canvas" transform="translate(570 -82)">
<g id="security">
<g id="Group">
<g id="Vector">
<use xlink:href="#path0_fill" transform="translate(-570 82)" fill="#F5A623"/>
</g>
<g id="Vector">
<use xlink:href="#path1_fill" transform="translate(-565.203 89.3632)" fill="#F5A623"/>
</g>
</g>
</g>
</g>
<defs>
<path id="path0_fill" d="M 16.7838 5.14962C 16.7736 4.60965 16.7638 4.09955 16.7638 3.60606C 16.7638 3.21944 16.4504 2.90601 16.0637 2.90601C 13.0698 2.90601 10.7904 2.0456 8.89036 0.198219C 8.61856 -0.0661197 8.18602 -0.0660263 7.91431 0.198219C 6.01447 2.0456 3.73539 2.90601 0.741695 2.90601C 0.355081 2.90601 0.041646 3.21944 0.041646 3.60606C 0.041646 4.09964 0.0319387 4.60993 0.0215779 5.14999C -0.0743755 10.175 -0.205798 17.0571 8.17305 19.9614C 8.24734 19.9871 8.32482 20 8.40229 20C 8.47976 20 8.55733 19.9871 8.63153 19.9614C 17.011 17.057 16.8798 10.1748 16.7838 5.14962ZM 8.40238 18.5571C 1.21642 15.9466 1.32507 10.2282 1.42149 5.17669C 1.42728 4.87352 1.43288 4.57969 1.4368 4.29164C 4.24073 4.17329 6.48294 3.32361 8.40238 1.65152C 10.322 3.32361 12.5646 4.17338 15.3687 4.29164C 15.3726 4.57959 15.3782 4.87324 15.384 5.17622C 15.4803 10.2279 15.5889 15.9465 8.40238 18.5571Z"/>
<path id="path1_fill" d="M 6.01564 0.204998L 2.63683 3.58362L 1.19501 2.1418C 0.921615 1.8685 0.478344 1.8685 0.205045 2.1418C -0.068348 2.41529 -0.068348 2.85846 0.205045 3.13186L 2.14185 5.06866C 2.2785 5.20531 2.45771 5.27363 2.63683 5.27363C 2.81595 5.27363 2.99516 5.20531 3.13181 5.06866L 7.00551 1.19505C 7.279 0.921662 7.279 0.47839 7.0056 0.205091C 6.7323 -0.0683014 6.28903 -0.0683947 6.01564 0.204998Z"/>
</defs>
</svg>
