<?xml version="1.0" encoding="UTF-8"?>
<svg width="14px" height="20px" viewBox="0 0 14 20" version="1.1" xmlns="http://www.w3.org/2000/svg" xmlns:xlink="http://www.w3.org/1999/xlink">
    <!-- Generator: Sketch 48.1 (47250) - http://www.bohemiancoding.com/sketch -->
    <title>location-pin copy 3</title>
    <desc>Created with Sketch.</desc>
    <defs></defs>
    <g id="tracking" stroke="none" stroke-width="1" fill="none" fill-rule="evenodd" transform="translate(-34.000000, -397.000000)">
        <g id="location-pin-copy-3" transform="translate(34.000000, 397.000000)" fill="#F3F5F7" fill-rule="nonzero">
            <path d="M6.82000017,0 C3.05946302,0 0,3.04571605 0,6.78940616 C0,8.29380863 0.889689654,10.5817278 2.79992251,13.9895553 C4.10342986,16.3148332 5.400928,18.278895 5.45566493,18.3616296 L6.39346912,19.7767454 C6.48802215,19.9194657 6.64822679,20.0053338 6.82000017,20.0053338 C6.99177356,20.0053338 7.15197819,19.9194657 7.24653123,19.7767454 L8.18429453,18.361711 C8.23850003,18.2799124 9.52655514,16.3328207 10.8400778,13.9895553 C12.7503107,10.5818906 13.6400003,8.29397142 13.6400003,6.78940616 C13.6400003,3.04571605 10.5805373,0 6.82000017,0 Z M9.94769017,13.4937581 C8.65244037,15.8042634 7.38474298,17.7207924 7.33131419,17.8013295 L6.82000017,18.5728816 L6.30884967,17.801533 C6.25513472,17.7203448 4.97770815,15.7866421 3.69231017,13.4937581 C1.92041172,10.3326693 1.02197396,8.07698129 1.02197396,6.78940616 C1.02197396,3.60670797 3.62293858,1.01739556 6.82000017,1.01739556 C10.0170618,1.01739556 12.6180264,3.60670797 12.6180264,6.78940616 C12.6180264,8.07714407 11.7195886,10.3327507 9.94769017,13.4937581 Z" id="Shape"></path>
            <path d="M6.36533349,2.72800007 C4.35968818,2.72800007 2.72800007,4.3597275 2.72800007,6.36533349 C2.72800007,8.37093948 4.35968818,10.0026669 6.36533349,10.0026669 C8.37097881,10.0026669 10.0026669,8.37093948 10.0026669,6.36533349 C10.0026669,4.3597275 8.37097881,2.72800007 6.36533349,2.72800007 Z M6.36533349,9.01960383 C4.90174917,9.01960383 3.71106316,7.82891782 3.71106316,6.36533349 C3.71106316,4.90174917 4.90174917,3.71106316 6.36533349,3.71106316 C7.82895714,3.71106316 9.01960383,4.90174917 9.01960383,6.36533349 C9.01960383,7.82891782 7.82895714,9.01960383 6.36533349,9.01960383 Z" id="Shape"></path>
        </g>
    </g>
</svg>