<?xml version="1.0" encoding="UTF-8"?>
<svg width="86px" height="92px" viewBox="0 0 86 92" version="1.1" xmlns="http://www.w3.org/2000/svg" xmlns:xlink="http://www.w3.org/1999/xlink">
    <!-- Generator: Sketch 48.1 (47250) - http://www.bohemiancoding.com/sketch -->
    <title>trash</title>
    <desc>Created with Sketch.</desc>
    <defs></defs>
    <g id="dripicons-v2-by-amit-jakhu" stroke="none" stroke-width="1" fill="none" fill-rule="evenodd" transform="translate(-1618.000000, -1793.000000)">
        <path d="M1669.1699,1870.98799 C1671.0649,1870.98799 1672.6229,1869.38099 1672.6679,1867.47699 L1673.6849,1824.29999 C1673.7299,1822.36699 1672.2009,1820.73999 1670.2679,1820.69499 C1668.3049,1820.66599 1666.7319,1822.16699 1666.6869,1824.09899 L1665.6699,1867.31799 C1665.6239,1869.24999 1667.1529,1870.98799 1669.0859,1870.98799 L1669.1699,1870.98799 Z M1652.6769,1870.98799 L1652.7609,1870.98799 C1654.6939,1870.98799 1656.2229,1869.12899 1656.1779,1867.19599 L1655.1609,1823.96199 C1655.1149,1822.02899 1653.5299,1820.44999 1651.5789,1820.49299 C1649.6469,1820.53799 1648.1169,1822.11499 1648.1629,1824.04799 L1649.1799,1867.37399 C1649.2249,1869.27799 1650.7819,1870.98799 1652.6769,1870.98799 L1652.6769,1870.98799 Z M1650.9999,1805.98799 L1670.9999,1805.98799 L1670.9999,1800.98799 L1650.9999,1800.98799 L1650.9999,1805.98799 Z M1703.9999,1809.98799 C1703.9999,1812.19699 1702.2089,1813.98799 1699.9999,1813.98799 L1621.9999,1813.98799 C1619.7909,1813.98799 1617.9999,1812.19699 1617.9999,1809.98799 C1617.9999,1807.77899 1619.7909,1805.98799 1621.9999,1805.98799 L1643.9999,1805.98799 L1643.9999,1796.98799 C1643.9999,1795.05499 1645.2889,1793.98799 1647.2219,1793.98799 L1674.7769,1793.98799 C1676.7099,1793.98799 1677.9999,1795.05499 1677.9999,1796.98799 L1677.9999,1805.98799 L1699.9999,1805.98799 C1702.2089,1805.98799 1703.9999,1807.77899 1703.9999,1809.98799 L1703.9999,1809.98799 Z M1693.3969,1823.37599 L1690.3439,1881.19899 C1690.2319,1883.32299 1688.4769,1884.98799 1686.3499,1884.98799 L1635.6499,1884.98799 C1633.5229,1884.98799 1631.7679,1883.32299 1631.6559,1881.19899 L1628.6039,1823.37599 C1628.4869,1821.16999 1630.1809,1819.28699 1632.3869,1819.17099 C1634.6039,1819.06399 1636.4769,1820.74899 1636.5929,1822.95399 L1639.4449,1876.98799 L1682.5549,1876.98799 L1685.4069,1822.95399 C1685.5239,1820.74799 1687.4199,1819.07099 1689.6129,1819.17099 C1691.8189,1819.28699 1693.5129,1821.16999 1693.3969,1823.37599 L1693.3969,1823.37599 Z" id="trash" fill="#D6DAE5"></path>
    </g>
</svg>