<svg width="18" height="23" viewBox="0 0 18 23" version="1.1" xmlns="http://www.w3.org/2000/svg" xmlns:xlink="http://www.w3.org/1999/xlink">
<title>undo (1)</title>
<desc>Created using Figma</desc>
<g id="Canvas" transform="translate(-39 60)">
<g id="undo (1)">
<g id="Group">
<g id="Group">
<g id="group 31svg">
<g id="path 1 25">
<use xlink:href="#path0_fill" transform="translate(39 -60)" fill="#FFFFFF"/>
</g>
</g>
</g>
</g>
</g>
</g>
<defs>
<path id="path0_fill" d="M 8.67676 22.8954C 8.54774 22.8954 8.41982 22.8493 8.31842 22.7613L 0.567712 16.0013C 0.558626 15.9933 0.549541 15.9846 0.540819 15.9759C 0.230819 15.6659 0.0411128 15.2628 0.00586082 14.8409C -0.0330254 14.3724 0.12252 13.9374 0.444875 13.6151C 0.454324 13.606 0.4645 13.5965 0.474312 13.5878L 8.32097 6.82743C 8.48306 6.6886 8.78797 6.65662 8.98167 6.7453C 9.17574 6.83397 9.37707 7.02731 9.37707 7.24064L 9.37707 11.6926C 11.1942 10.1506 12.5934 7.81885 12.5934 5.41045C 12.5934 3.61259 12.1242 2.0804 11.2752 0.855671C 11.1419 0.66233 11.1273 0.405754 11.268 0.218228C 11.4086 0.0303384 11.6445 -0.0456169 11.8662 0.027431C 15.4913 1.23218 18 4.7025 18 8.66417C 18 13.6561 14.1016 17.475 9.37707 17.749L 9.37707 22.3503C 9.37707 22.564 9.17501 22.7581 8.98022 22.8464C 8.9079 22.8794 8.75344 22.8954 8.67676 22.8954ZM 1.37742 15.1934L 8.28681 21.1514L 8.28681 17.2195C 8.28681 16.9193 8.45216 16.6755 8.75235 16.6744C 13.4005 16.6595 16.8661 13.2157 16.8661 8.66417C 16.8661 5.6663 15.355 3.06964 12.9433 1.69082C 13.3965 2.79053 13.6153 4.03525 13.6153 5.41045C 13.6153 8.50899 11.8284 11.4865 8.95914 13.1808C 8.79015 13.2796 8.65677 13.2815 8.48633 13.1844C 8.31661 13.0877 8.28681 12.9068 8.28681 12.7112L 8.28681 8.42976L 1.28184 14.3979C 1.19607 14.4906 1.15827 14.609 1.16954 14.7504C 1.18262 14.9085 1.25821 15.0691 1.37742 15.1934Z"/>
</defs>
</svg>
