<?xml version="1.0" encoding="UTF-8"?>
<svg width="30px" height="28px" viewBox="0 0 30 28" version="1.1" xmlns="http://www.w3.org/2000/svg" xmlns:xlink="http://www.w3.org/1999/xlink">
    <!-- Generator: Sketch 48.1 (47250) - http://www.bohemiancoding.com/sketch -->
    <title>users copy</title>
    <desc>Created with Sketch.</desc>
    <defs></defs>
    <g id="Icons" stroke="none" stroke-width="1" fill="none" fill-rule="evenodd">
        <g id="users-copy" fill="#F3F5F7" fill-rule="nonzero">
            <path d="M27.7585,22.275 L22.872,20.1585 C22.757,20.101 22.6295,19.9605 22.52,19.773 L25.7825,19.7705 C25.8395,19.776 27.1845,19.899 28.263,19.4355 C28.6715,19.2595 28.9755,18.912 29.0975,18.482 C29.2205,18.048 29.1425,17.5885 28.8845,17.2205 C27.952,15.8935 25.7755,12.426 25.7075,8.909 C25.706,8.8485 25.509,2.8675 19.6025,2.819 C18.733,2.826 17.929,2.9735 17.1975,3.2455 C17.038,2.839 16.803,2.415 16.4535,2.016 C15.427,0.844 13.7605,0.25 11.5,0.25 C9.2395,0.25 7.573,0.844 6.546,2.015 C5.362,3.3655 5.472,5.003 5.5,5.2775 L5.5,7.937 C5.18,8.3015 5,8.768 5,9.2495 L5,11.2495 C5,11.858 5.2765,12.4255 5.7485,12.804 C6.2065,14.6175 7.165,15.984 7.5,16.4225 L7.5,18.077 C7.5,18.561 7.236,19.005 6.8115,19.237 L2.351,21.67 C0.9005,22.462 0,23.979 0,25.631 L0,27.75 L22,27.75 L23,27.75 L30,27.75 L30,25.9015 C30,24.3555 29.141,22.9665 27.7585,22.275 Z M22,26.75 L1,26.75 L1,25.631 C1,24.3455 1.701,23.164 2.8295,22.549 L7.29,20.116 C8.0365,19.7085 8.5,18.927 8.5,18.0775 L8.5,16.068 L8.3835,15.929 C8.3715,15.9145 7.146,14.432 6.6785,12.3965 L6.633,12.1985 L6.4625,12.0885 C6.173,11.9015 6,11.588 6,11.25 L6,9.25 C6,8.9695 6.119,8.708 6.335,8.5125 L6.5,8.364 L6.5,5.25 L6.4955,5.1845 C6.494,5.171 6.324,3.785 7.298,2.674 C8.1265,1.729 9.5405,1.25 11.5,1.25 C13.4525,1.25 14.8635,1.7255 15.693,2.664 C16.1055,3.13 16.313,3.6505 16.4165,4.0975 C16.4245,4.1325 16.432,4.167 16.439,4.2015 C16.446,4.237 16.4535,4.2725 16.459,4.3065 C16.4655,4.3455 16.471,4.3825 16.4765,4.4195 C16.4805,4.446 16.4845,4.473 16.4875,4.4985 C16.495,4.5605 16.501,4.6205 16.505,4.676 C16.5055,4.6805 16.5055,4.6845 16.5055,4.689 C16.509,4.743 16.5115,4.794 16.513,4.8405 C16.513,4.8495 16.513,4.857 16.5135,4.866 C16.5145,4.9075 16.5145,4.947 16.514,4.9815 C16.514,4.9865 16.514,4.9915 16.514,4.9965 C16.512,5.114 16.504,5.184 16.504,5.1855 L16.5,8.364 L16.665,8.513 C16.881,8.708 17,8.9695 17,9.25 L17,11.25 C17,11.6865 16.714,12.0685 16.289,12.1995 L16.04,12.276 L15.96,12.5235 C15.6255,13.564 15.149,14.525 14.543,15.38 C14.3945,15.5905 14.25,15.777 14.1245,15.9195 L14,16.0615 L14,18.124 C14,18.2505 14.0125,18.3745 14.032,18.4965 C14.036,18.5225 14.043,18.5475 14.048,18.5735 C14.0675,18.674 14.0935,18.7725 14.1255,18.8685 C14.133,18.891 14.141,18.9125 14.1495,18.935 C14.1885,19.0395 14.234,19.1405 14.287,19.2375 C14.293,19.2485 14.2985,19.26 14.3045,19.271 C14.377,19.399 14.4605,19.5205 14.5565,19.6325 L14.6705,19.773 L14.69,19.773 C14.8615,19.942 15.0585,20.089 15.2825,20.201 L20.059,22.589 C21.2565,23.187 22,24.39 22,25.7285 L22,26.75 Z M29,26.75 L23,26.75 L23,25.7285 C23,24.009 22.0445,22.4635 20.507,21.6945 L17.078,19.9795 C17.1625,19.7865 17.1735,19.5655 17.0995,19.3525 C16.977,19 16.657,18.7725 16.2845,18.7725 L15.176,18.7725 C15.153,18.732 15.138,18.6875 15.1195,18.6445 C15.0945,18.587 15.065,18.5305 15.0485,18.47 C15.018,18.359 15,18.243 15,18.124 L15,16.4335 C15.1145,16.2935 15.235,16.134 15.3595,15.958 C15.979,15.083 16.4755,14.109 16.8365,13.0585 C17.542,12.735 18,12.0375 18,11.25 L18,9.25 C18,8.7685 17.82,8.302 17.5,7.9375 L17.5,5.278 C17.513,5.153 17.541,4.7435 17.458,4.2085 C18.102,3.9555 18.8235,3.825 19.603,3.8185 C24.5235,3.859 24.703,8.724 24.708,8.929 C24.7815,12.7205 27.081,16.3925 28.0665,17.795 C28.151,17.915 28.1765,18.066 28.136,18.2085 C28.113,18.2905 28.047,18.4395 27.8685,18.516 C27.0285,18.8775 25.889,18.775 25.8305,18.7725 L22.389,18.7725 C22.0675,18.7725 21.7745,18.936 21.605,19.2095 C21.436,19.482 21.42,19.815 21.562,20.101 C21.7185,20.4165 21.995,20.838 22.4495,21.0645 L27.323,23.1755 C28.3575,23.698 29,24.741 29,25.9015 L29,26.75 Z" id="Shape"></path>
        </g>
    </g>
</svg>