<?xml version="1.0" encoding="UTF-8"?>
<svg width="90px" height="80px" viewBox="0 0 90 80" version="1.1" xmlns="http://www.w3.org/2000/svg" xmlns:xlink="http://www.w3.org/1999/xlink">
    <!-- Generator: Sketch 48.1 (47250) - http://www.bohemiancoding.com/sketch -->
    <title>wallet</title>
    <desc>Created with Sketch.</desc>
    <defs></defs>
    <g id="dripicons-v2-by-amit-jakhu" stroke="none" stroke-width="1" fill="none" fill-rule="evenodd" transform="translate(-1616.000000, -3797.000000)">
        <path d="M1698.00269,3824.6665 C1698.00269,3822.9175 1696.57969,3820.9995 1694.83169,3820.9995 L1625.64069,3820.9995 C1624.73769,3820.9995 1624.00269,3822.2295 1624.00269,3823.1335 L1624.00269,3831.5025 L1624.00269,3867.4715 C1624.00269,3868.3135 1624.68869,3868.9995 1625.53169,3868.9995 L1697.88869,3868.9995 C1697.95169,3868.9995 1698.00269,3868.9485 1698.00269,3868.8865 L1698.00269,3824.6665 Z M1623.43969,3808.9995 C1623.43969,3811.2095 1625.23069,3812.9995 1627.43969,3812.9995 L1685.00269,3812.9995 L1685.00269,3806.7545 C1685.00269,3805.7855 1684.21669,3804.9995 1683.24769,3804.9995 L1627.43969,3804.9995 C1625.23069,3804.9995 1623.43969,3806.7905 1623.43969,3808.9995 L1623.43969,3808.9995 Z M1706.00269,3824.6665 L1706.00269,3868.8865 C1706.00269,3873.3605 1702.36269,3876.9995 1697.88869,3876.9995 L1625.53169,3876.9995 C1620.27669,3876.9995 1616.00269,3872.7255 1616.00269,3867.4715 L1616.00269,3831.5025 L1616.00269,3823.1335 L1616.00269,3808.9645 C1616.00269,3802.3675 1621.36569,3796.9995 1627.95769,3796.9995 L1683.25569,3796.9995 C1688.76069,3796.9995 1693.00269,3801.4815 1693.00269,3806.9915 L1693.00269,3812.9995 L1694.83169,3812.9995 C1700.99169,3812.9995 1706.00269,3818.5065 1706.00269,3824.6665 L1706.00269,3824.6665 Z M1687.31269,3840.2995 C1688.62269,3841.6005 1689.36269,3843.3995 1689.36269,3845.2495 C1689.36269,3847.0895 1688.62269,3848.8895 1687.31269,3850.1995 C1686.01269,3851.4995 1684.21269,3852.2495 1682.36269,3852.2495 C1680.52269,3852.2495 1678.72269,3851.4995 1677.41269,3850.1995 C1676.11269,3848.8895 1675.36269,3847.0895 1675.36269,3845.2495 C1675.36269,3843.3995 1676.11269,3841.6005 1677.41269,3840.2995 C1678.72269,3838.9895 1680.52269,3838.2495 1682.36269,3838.2495 C1684.21269,3838.2495 1686.01269,3838.9895 1687.31269,3840.2995 L1687.31269,3840.2995 Z" id="wallet" fill="#000000"></path>
    </g>
</svg>