<?xml version="1.0" encoding="UTF-8"?>
<svg width="92px" height="92px" viewBox="0 0 92 92" version="1.1" xmlns="http://www.w3.org/2000/svg" xmlns:xlink="http://www.w3.org/1999/xlink">
    <!-- Generator: Sketch 48.1 (47250) - http://www.bohemiancoding.com/sketch -->
    <title>web</title>
    <desc>Created with Sketch.</desc>
    <defs></defs>
    <g id="dripicons-v2-by-amit-jakhu" stroke="none" stroke-width="1" fill="none" fill-rule="evenodd" transform="translate(-1393.000000, -2459.000000)">
        <path d="M1452.6292,2540.45029 C1456.1932,2535.66529 1460.2292,2528.82229 1462.6092,2520.20829 C1467.6162,2519.76329 1471.5782,2519.24729 1474.3812,2518.82229 C1470.4932,2528.73029 1462.5652,2536.61829 1452.6292,2540.45029 M1403.6092,2518.79829 C1406.4262,2519.21829 1410.4132,2519.73229 1415.3822,2520.17929 C1417.7622,2528.80629 1421.8032,2535.65929 1425.3702,2540.45029 C1415.4272,2536.61529 1407.4942,2528.71729 1403.6092,2518.79829 M1425.6012,2469.43429 C1422.0272,2474.26429 1417.9152,2481.17829 1415.4702,2489.76229 C1410.4242,2490.20929 1406.4352,2490.72929 1403.6182,2491.15529 C1407.5352,2481.17029 1415.5562,2473.23329 1425.6012,2469.43429 M1474.3912,2491.17929 C1471.5592,2490.75729 1467.5442,2490.23929 1462.5382,2489.79129 C1460.0942,2481.19429 1455.9762,2474.27029 1452.3992,2469.43429 C1462.4512,2473.23529 1470.4772,2481.18229 1474.3912,2491.17929 M1463.9282,2495.96129 C1469.7922,2496.53829 1474.0472,2497.18429 1476.2662,2497.55829 C1476.7442,2499.96229 1477.0002,2502.44529 1477.0002,2504.98829 C1477.0002,2507.53529 1476.7442,2510.02329 1476.2632,2512.43229 C1474.0772,2512.81229 1469.8692,2513.46429 1463.9542,2514.04329 C1464.4142,2511.17929 1464.6812,2508.16129 1464.6812,2504.98829 C1464.6812,2501.83829 1464.4052,2498.82729 1463.9282,2495.96129 M1442.0002,2515.19529 L1442.0002,2494.78329 C1447.8192,2494.84929 1453.0992,2495.10029 1457.7142,2495.43329 C1458.3192,2498.44229 1458.6812,2501.63129 1458.6812,2504.98829 C1458.6812,2508.36829 1458.3322,2511.56129 1457.7482,2514.56429 C1453.1622,2514.88929 1447.8842,2515.13229 1442.0002,2515.19529 M1436.0002,2467.11729 L1436.0002,2488.78229 C1430.8282,2488.83529 1426.1242,2489.02129 1421.9332,2489.27929 C1425.7592,2477.85329 1432.7132,2469.91429 1435.3782,2467.16429 C1435.5842,2467.14529 1435.7932,2467.13329 1436.0002,2467.11729 M1442.6282,2467.16529 C1445.2992,2469.90929 1452.2662,2477.83629 1456.0862,2489.29929 C1451.8622,2489.03229 1447.1442,2488.83829 1442.0002,2488.78329 L1442.0002,2467.11729 C1442.2092,2467.13429 1442.4202,2467.14529 1442.6282,2467.16529 M1419.3192,2504.98829 C1419.3192,2501.62529 1419.6842,2498.42829 1420.2962,2495.41029 C1424.8712,2495.08729 1430.1352,2494.84629 1436.0002,2494.78329 L1436.0002,2515.19429 C1430.1652,2515.12829 1424.8722,2514.87629 1420.2482,2514.54229 C1419.6662,2511.54529 1419.3192,2508.36029 1419.3192,2504.98829 M1401.0002,2504.98829 C1401.0002,2502.44129 1401.2562,2499.95329 1401.7362,2497.54629 C1403.9262,2497.16529 1408.1452,2496.51129 1414.0762,2495.93129 C1413.5962,2498.80629 1413.3192,2501.82729 1413.3192,2504.98829 C1413.3192,2508.15029 1413.5852,2511.15829 1414.0412,2514.01329 C1408.1922,2513.43729 1403.9492,2512.79329 1401.7342,2512.41929 C1401.2562,2510.01529 1401.0002,2507.53129 1401.0002,2504.98829 M1435.3272,2542.80729 C1432.6452,2540.13429 1425.6222,2532.32929 1421.8312,2520.67229 C1426.0762,2520.94329 1430.8212,2521.13929 1436.0002,2521.19529 L1436.0002,2542.85829 C1435.7762,2542.84129 1435.5502,2542.82829 1435.3272,2542.80729 M1442.6722,2542.80729 C1442.4492,2542.82829 1442.2242,2542.84129 1442.0002,2542.85829 L1442.0002,2521.19529 C1447.2122,2521.14229 1451.9482,2520.95429 1456.1622,2520.69229 C1452.3682,2532.34129 1445.3492,2540.14029 1442.6722,2542.80729 M1439.0002,2458.98829 C1413.6362,2458.98829 1393.0002,2479.62329 1393.0002,2504.98829 C1393.0002,2530.35229 1413.6362,2550.98829 1439.0002,2550.98829 C1464.3642,2550.98829 1485.0002,2530.35229 1485.0002,2504.98829 C1485.0002,2479.62329 1464.3642,2458.98829 1439.0002,2458.98829" id="web" fill="#000000"></path>
    </g>
</svg>