<?xml version="1.0" encoding="UTF-8"?>
<svg width="92px" height="92px" viewBox="0 0 92 92" version="1.1" xmlns="http://www.w3.org/2000/svg" xmlns:xlink="http://www.w3.org/1999/xlink">
    <!-- Generator: Sketch 48.1 (47250) - http://www.bohemiancoding.com/sketch -->
    <title>wrong</title>
    <desc>Created with Sketch.</desc>
    <defs></defs>
    <g id="dripicons-v2-by-amit-jakhu" stroke="none" stroke-width="1" fill="none" fill-rule="evenodd" transform="translate(-505.000000, -2237.000000)">
        <path d="M580.5624,2306.89069 L527.0974,2253.42469 C534.0414,2247.80169 542.5184,2244.98769 551.0004,2244.98769 C560.7344,2244.98769 570.4724,2248.69469 577.8824,2256.10569 C591.7494,2269.97269 592.6414,2291.97469 580.5624,2306.89069 M524.1174,2309.87069 C510.2504,2296.00369 509.3584,2274.00169 521.4374,2259.08469 L574.9024,2312.55069 C559.9874,2324.62869 537.9854,2323.73869 524.1174,2309.87069 M583.5424,2250.44569 C565.5984,2232.50269 536.4014,2232.50269 518.4574,2250.44569 C500.5144,2268.38969 500.5144,2297.58669 518.4574,2315.53069 C527.4304,2324.50169 539.2144,2328.98769 550.9994,2328.98769 C562.7844,2328.98769 574.5704,2324.50169 583.5424,2315.52969 C601.4854,2297.58569 601.4854,2268.38969 583.5424,2250.44569" id="wrong" fill="#000000"></path>
    </g>
</svg>