<?xml version="1.0" encoding="UTF-8"?>
<svg width="84px" height="92px" viewBox="0 0 84 92" version="1.1" xmlns="http://www.w3.org/2000/svg" xmlns:xlink="http://www.w3.org/1999/xlink">
    <!-- Generator: Sketch 48.1 (47250) - http://www.bohemiancoding.com/sketch -->
    <title>anchor</title>
    <desc>Created with Sketch.</desc>
    <defs></defs>
    <g id="dripicons-v2-by-amit-jakhu" stroke="none" stroke-width="1" fill="none" fill-rule="evenodd" transform="translate(-509.000000, -2459.000000)">
        <path d="M543.4561,2474.61659 C543.4561,2470.41759 546.8401,2467.00059 551.0001,2467.00059 C555.1601,2467.00059 558.5441,2470.41759 558.5441,2474.61659 C558.5441,2478.81659 555.1601,2482.23259 551.0001,2482.23259 C546.8401,2482.23259 543.4561,2478.81659 543.4561,2474.61659 M592.0551,2512.27659 C591.2941,2511.37859 590.1771,2510.98759 589.0001,2510.98759 L576.1241,2510.98759 C573.9151,2510.98759 572.1241,2512.77959 572.1241,2514.98759 C572.1241,2517.19659 573.9151,2518.98759 576.1241,2518.98759 L583.9401,2518.98759 C579.8681,2531.98759 568.5551,2541.17859 555.0001,2542.74159 L555.0001,2489.68659 C561.6361,2487.90759 566.5441,2481.83459 566.5441,2474.61659 C566.5441,2466.00759 559.5711,2459.00359 551.0001,2459.00359 C542.4291,2459.00359 535.4561,2466.00759 535.4561,2474.61659 C535.4561,2481.83459 540.0001,2487.90659 547.0001,2489.68659 L547.0001,2542.74159 C533.0001,2541.17859 522.1321,2531.98759 518.0601,2518.98759 L525.8761,2518.98759 C528.0851,2518.98759 529.8761,2517.19659 529.8761,2514.98759 C529.8761,2512.77959 528.0851,2510.98759 525.8761,2510.98759 L513.0001,2510.98759 C511.8231,2510.98759 510.7061,2511.37859 509.9451,2512.27659 C509.1861,2513.17559 508.8601,2514.29859 509.0561,2515.45859 C512.5331,2536.07359 530.1731,2551.00359 551.0001,2551.00359 C571.8271,2551.00359 589.4671,2536.08959 592.9441,2515.47559 C593.1401,2514.31459 592.8141,2513.17559 592.0551,2512.27659" id="anchor" fill="#000000"></path>
    </g>
</svg>