<?xml version="1.0" encoding="UTF-8"?>
<svg width="92px" height="92px" viewBox="0 0 92 92" version="1.1" xmlns="http://www.w3.org/2000/svg" xmlns:xlink="http://www.w3.org/1999/xlink">
    <!-- Generator: Sketch 48.1 (47250) - http://www.bohemiancoding.com/sketch -->
    <title>basketball</title>
    <desc>Created with Sketch.</desc>
    <defs></defs>
    <g id="dripicons-v2-by-amit-jakhu" stroke="none" stroke-width="1" fill="none" fill-rule="evenodd" transform="translate(-2281.000000, -4457.000000)">
        <path d="M2331.0027,4513.6532 C2334.0497,4513.5812 2336.9147,4513.4332 2339.5797,4513.2192 C2341.3337,4523.0572 2346.6887,4529.6032 2350.2687,4533.0132 C2344.8267,4537.2412 2338.2147,4540.0302 2331.0027,4540.7882 L2331.0027,4513.6532 Z M2314.4247,4513.2192 C2317.0907,4513.4332 2319.9547,4513.5812 2323.0027,4513.6532 L2323.0027,4540.7882 C2315.7907,4540.0302 2309.1787,4537.2412 2303.7367,4533.0132 C2307.3167,4529.6032 2312.6717,4523.0562 2314.4247,4513.2192 L2314.4247,4513.2192 Z M2323.0027,4505.6512 C2320.1277,4505.5792 2317.4417,4505.4332 2314.9437,4505.2292 C2314.2667,4490.4712 2304.6877,4479.1822 2300.9797,4475.3472 C2306.8707,4469.7992 2314.5227,4466.1032 2323.0027,4465.2122 L2323.0027,4505.6512 Z M2339.0607,4505.2392 C2336.5667,4505.4402 2333.8797,4505.5822 2331.0027,4505.6522 L2331.0027,4465.2122 C2339.4827,4466.1032 2347.1347,4469.7992 2353.0257,4475.3472 C2349.3167,4479.1832 2339.7337,4490.4762 2339.0607,4505.2392 L2339.0607,4505.2392 Z M2364.8427,4499.6022 C2362.5827,4500.6432 2356.9047,4502.8642 2347.1467,4504.3212 C2348.1557,4493.5392 2355.1257,4484.8672 2358.2787,4481.4522 C2361.9067,4486.7022 2364.2467,4492.9042 2364.8427,4499.6022 L2364.8427,4499.6022 Z M2295.7317,4481.4452 C2298.8837,4484.8382 2305.8567,4493.4722 2306.8607,4504.2982 C2297.1877,4502.8362 2291.4577,4500.6252 2289.1637,4499.5882 C2289.7627,4492.8922 2292.1027,4486.6932 2295.7317,4481.4452 L2295.7317,4481.4452 Z M2289.3797,4508.2932 C2293.0597,4509.6182 2298.6737,4511.2152 2306.4367,4512.3302 C2304.9037,4520.0802 2300.5627,4525.0862 2297.9647,4527.4742 C2293.4567,4522.1332 2290.3937,4515.5382 2289.3797,4508.2932 L2289.3797,4508.2932 Z M2356.0417,4527.4732 C2353.4367,4525.0802 2349.1007,4520.0742 2347.5677,4512.3302 C2355.3307,4511.2152 2360.9457,4509.6182 2364.6257,4508.2932 C2363.6117,4515.5382 2360.5497,4522.1322 2356.0417,4527.4732 L2356.0417,4527.4732 Z M2327.0027,4457.0002 C2301.6387,4457.0002 2281.0027,4477.6362 2281.0027,4503.0002 C2281.0027,4528.3642 2301.6387,4549.0002 2327.0027,4549.0002 C2352.3667,4549.0002 2373.0027,4528.3642 2373.0027,4503.0002 C2373.0027,4477.6362 2352.3667,4457.0002 2327.0027,4457.0002 L2327.0027,4457.0002 Z" id="basketball" fill="#000000"></path>
    </g>
</svg>