<?xml version="1.0" encoding="UTF-8"?>
<svg width="85px" height="93px" viewBox="0 0 85 93" version="1.1" xmlns="http://www.w3.org/2000/svg" xmlns:xlink="http://www.w3.org/1999/xlink">
    <!-- Generator: Sketch 48.1 (47250) - http://www.bohemiancoding.com/sketch -->
    <title>bell</title>
    <desc>Created with Sketch.</desc>
    <defs></defs>
    <g id="dripicons-v2-by-amit-jakhu" stroke="none" stroke-width="1" fill="none" fill-rule="evenodd" transform="translate(-1397.000000, -3124.000000)">
        <path d="M1453.8475,3160.5176 C1453.9625,3162.4496 1452.4895,3164.1086 1450.5585,3164.2226 C1450.4885,3164.2276 1450.4185,3164.2296 1450.3485,3164.2296 C1448.5085,3164.2296 1446.9655,3162.7936 1446.8555,3160.9326 C1446.5905,3156.4696 1443.0675,3154.8166 1442.6665,3154.6426 C1440.9075,3153.8796 1440.0655,3151.8356 1440.8055,3150.0666 C1441.5445,3148.2966 1443.5455,3147.4426 1445.3235,3148.1576 C1445.6495,3148.2886 1453.3125,3151.4806 1453.8475,3160.5176 L1453.8475,3160.5176 Z M1439.5745,3196.0006 C1439.3805,3196.0006 1439.1895,3196.0136 1439.0025,3196.0406 C1438.8155,3196.0136 1438.6245,3196.0006 1438.4305,3196.0006 L1414.7925,3196.0006 C1418.5285,3189.0006 1418.5275,3178.1116 1418.5275,3167.9206 C1418.5275,3151.6396 1425.5965,3143.0006 1438.4305,3143.0006 L1439.5745,3143.0006 C1452.4095,3143.0006 1459.4775,3151.6396 1459.4775,3167.9206 C1459.4775,3178.1116 1459.4775,3189.0006 1463.2125,3196.0006 L1439.5745,3196.0006 Z M1441.2255,3207.8906 C1440.8225,3208.3136 1440.1855,3208.9236 1438.8225,3208.9236 C1437.4985,3208.9236 1436.9075,3208.2806 1436.5405,3207.8826 C1435.7565,3207.0326 1435.3075,3206.0006 1435.0705,3204.0006 L1438.4305,3204.0006 C1438.6245,3204.0006 1438.8155,3203.9866 1439.0025,3203.9596 C1439.1895,3203.9866 1439.3805,3204.0006 1439.5745,3204.0006 L1442.8365,3204.0006 C1442.5535,3206.0006 1442.0625,3207.0136 1441.2255,3207.8906 L1441.2255,3207.8906 Z M1477.0265,3196.4866 C1470.2965,3196.4866 1467.6945,3192.5396 1467.6945,3168.0806 C1467.6945,3148.9026 1459.0025,3136.8506 1444.0025,3135.0636 L1444.0025,3128.9486 C1444.0025,3126.7366 1442.2135,3124.9436 1440.0025,3124.9436 C1437.7925,3124.9436 1436.0025,3126.7366 1436.0025,3128.9486 L1436.0025,3134.9456 C1420.0025,3136.2446 1410.7375,3148.4196 1410.7375,3168.0806 C1410.7375,3192.5396 1407.8165,3196.4866 1401.0855,3196.4866 C1398.8755,3196.4866 1397.0295,3198.0316 1397.0295,3200.2436 C1397.0295,3202.4556 1398.7685,3204.0006 1400.9785,3204.0006 L1426.9875,3204.0006 C1427.2965,3207.0006 1428.1965,3210.6886 1430.6295,3213.3466 C1432.7035,3215.6116 1435.5365,3216.9326 1438.8225,3216.9326 C1442.0865,3216.9326 1444.9295,3215.5646 1447.0475,3213.3276 C1449.5705,3210.6606 1450.5715,3207.0006 1450.9575,3204.0006 L1477.0265,3204.0006 C1479.2375,3204.0006 1481.0295,3202.4556 1481.0295,3200.2436 C1481.0295,3198.0316 1479.2375,3196.4866 1477.0265,3196.4866 L1477.0265,3196.4866 Z" id="bell" fill="#000000"></path>
    </g>
</svg>