<?xml version="1.0" encoding="UTF-8"?>
<svg width="17px" height="14px" viewBox="0 0 17 14" version="1.1" xmlns="http://www.w3.org/2000/svg" xmlns:xlink="http://www.w3.org/1999/xlink">
    <!-- Generator: Sketch 48.1 (47250) - http://www.bohemiancoding.com/sketch -->
    <title>Shape</title>
    <desc>Created with Sketch.</desc>
    <defs></defs>
    <g id="Assets" stroke="none" stroke-width="1" fill="none" fill-rule="evenodd">
        <path d="M12.2899457,11.1371235 C13.5489688,10.6064043 14.5425916,9.88400271 15.2707327,8.96963365 C15.9989959,8.05546811 16.3631479,7.05993216 16.3631479,5.98298507 C16.3631479,4.90599729 15.9989959,3.91050204 15.2707327,2.99617368 C14.5425916,2.08196744 13.5489688,1.3594844 12.2899457,0.828643148 C11.0309227,0.297883311 9.66154681,0.032605156 8.18161465,0.032605156 C6.70180461,0.032605156 5.33242877,0.298046133 4.07332429,0.82880597 C2.81438263,1.35956581 1.82071913,2.08204885 1.09253731,2.99629579 C0.364192673,3.91050204 0,4.90595658 0,5.98298507 C0,6.90488467 0.275332429,7.77301221 0.825345997,8.58639077 C1.37535957,9.39989145 2.13081411,10.0856988 3.0914654,10.6434464 C3.01404342,10.8295522 2.93462687,10.9997829 2.85325645,11.1549525 C2.77184532,11.3098779 2.6750882,11.4589009 2.56265943,11.6023474 C2.45031208,11.7458345 2.36324288,11.8581004 2.3012076,11.9391859 C2.23921303,12.0205156 2.13850746,12.1349389 1.9990095,12.2820081 C1.85947083,12.4292402 1.77032564,12.5260787 1.73169607,12.5724423 C1.73169607,12.5646676 1.71610583,12.5822117 1.68516961,12.6248304 C1.65411126,12.6674491 1.63668928,12.6867028 1.63278155,12.6830801 C1.62895522,12.6788874 1.6134057,12.6982632 1.5863365,12.740882 C1.55922659,12.7835414 1.54563094,12.8048304 1.54563094,12.8048304 L1.51652646,12.8627544 C1.50496608,12.8858752 1.49715061,12.9090366 1.49332429,12.9324423 C1.48941655,12.9555224 1.48746269,12.980882 1.48746269,13.0079104 C1.48746269,13.0349389 1.49128901,13.0600136 1.49910448,13.0833786 C1.51469471,13.183962 1.55922659,13.2651696 1.63278155,13.3274491 C1.70641791,13.3893216 1.78571235,13.4202171 1.87107191,13.4202171 L1.90595658,13.4202171 C2.29327001,13.3659973 2.62648575,13.3040434 2.90535957,13.2342334 C4.09852103,12.9243012 5.17554953,12.4283853 6.13624152,11.7466486 C6.8334464,11.8706377 7.515346,11.9325916 8.18161465,11.9325916 C9.66142469,11.9330801 11.0309634,11.6678833 12.2899457,11.1371235 Z M5.78767978,10.1669064 L5.27625509,10.5269878 C5.05929444,10.6740977 4.81925373,10.8254003 4.55576662,10.9804478 L4.96261872,10.0040841 L3.83531886,9.35328358 C3.09138399,8.9195251 2.51426052,8.40814111 2.1036228,7.81929444 C1.69294437,7.23048847 1.48770692,6.61839891 1.48770692,5.98302578 C1.48770692,5.19264586 1.7919403,4.45274084 2.40008141,3.7631886 C3.00814111,3.07363636 3.82750339,2.52744912 4.85796472,2.12442334 C5.88834464,1.72164179 6.99630936,1.52006784 8.18169607,1.52006784 C9.36708277,1.52006784 10.4751289,1.72164179 11.5054681,2.12442334 C12.535848,2.52740841 13.3552103,3.07363636 13.9635957,3.7631886 C14.5717368,4.45270014 14.8757259,5.19260516 14.8757259,5.98302578 C14.8757259,6.77328358 14.5717368,7.5131479 13.9635957,8.20270014 C13.355251,8.8924559 12.5358887,9.43852103 11.5054681,9.84134328 C10.4751289,10.2442062 9.36720488,10.4456581 8.18169607,10.4456581 C7.60074627,10.4456581 7.00803256,10.3913161 6.40363636,10.2829579 L5.78767978,10.1669064 Z" id="Shape" fill="#000000" fill-rule="nonzero"></path>
    </g>
</svg>