<?xml version="1.0" encoding="UTF-8"?>
<svg width="84px" height="72px" viewBox="0 0 84 72" version="1.1" xmlns="http://www.w3.org/2000/svg" xmlns:xlink="http://www.w3.org/1999/xlink">
    <!-- Generator: Sketch 48.1 (47250) - http://www.bohemiancoding.com/sketch -->
    <title>clockwise</title>
    <desc>Created with Sketch.</desc>
    <defs></defs>
    <g id="dripicons-v2-by-amit-jakhu" stroke="none" stroke-width="1" fill="none" fill-rule="evenodd" transform="translate(-2063.000000, -693.000000)">
        <path d="M2145.8506,724.777486 L2132.0346,738.810486 C2131.2826,739.574486 2130.2556,740.004486 2129.1836,740.004486 C2128.1116,740.004486 2127.0846,739.574486 2126.3326,738.810486 L2112.5166,724.777486 C2110.9666,723.203486 2110.9866,720.671486 2112.5606,719.120486 C2114.1346,717.570486 2116.6666,717.590486 2118.2176,719.165486 L2125.9406,727.008486 C2124.9386,712.490486 2113.0226,700.987486 2098.5086,700.987486 C2083.3406,700.987486 2070.9996,713.548486 2070.9996,728.987486 C2070.9996,744.427486 2083.3406,756.987486 2098.5086,756.987486 C2104.0916,756.987486 2109.4646,755.297486 2114.0446,752.098486 C2115.8566,750.834486 2118.3506,751.277486 2119.6146,753.088486 C2120.8796,754.899486 2120.4356,757.393486 2118.6246,758.658486 C2112.6946,762.798486 2105.7386,764.987486 2098.5086,764.987486 C2078.9296,764.987486 2062.9996,748.838486 2062.9996,728.987486 C2062.9996,709.137486 2078.9296,692.987486 2098.5086,692.987486 C2116.9476,692.987486 2132.1436,707.312486 2133.8516,725.561486 L2140.1496,719.165486 C2141.7006,717.590486 2144.2336,717.571486 2145.8066,719.120486 C2147.3806,720.671486 2147.4006,723.203486 2145.8506,724.777486" id="clockwise" fill="#000000"></path>
    </g>
</svg>