<?xml version="1.0" encoding="UTF-8"?>
<svg width="52px" height="52px" viewBox="0 0 52 52" version="1.1" xmlns="http://www.w3.org/2000/svg" xmlns:xlink="http://www.w3.org/1999/xlink">
    <!-- Generator: Sketch 48.1 (47250) - http://www.bohemiancoding.com/sketch -->
    <title>cross</title>
    <desc>Created with Sketch.</desc>
    <defs></defs>
    <g id="dripicons-v2-by-amit-jakhu" stroke="none" stroke-width="1" fill="none" fill-rule="evenodd" transform="translate(-2523.000000, -1147.000000)">
        <path d="M2573.682,1191.30589 C2575.439,1193.06289 2575.439,1195.91289 2573.682,1197.66989 C2572.803,1198.54889 2571.652,1198.98789 2570.5,1198.98789 C2569.348,1198.98789 2568.197,1198.54889 2567.318,1197.66989 L2549,1179.35189 L2530.682,1197.66989 C2529.803,1198.54889 2528.652,1198.98789 2527.5,1198.98789 C2526.348,1198.98789 2525.197,1198.54889 2524.318,1197.66989 C2522.561,1195.91289 2522.561,1193.06289 2524.318,1191.30589 L2542.636,1172.98789 L2524.318,1154.66989 C2522.561,1152.91289 2522.561,1150.06289 2524.318,1148.30589 C2526.076,1146.54889 2528.924,1146.54889 2530.682,1148.30589 L2549,1166.62389 L2567.318,1148.30589 C2569.076,1146.54889 2571.924,1146.54889 2573.682,1148.30589 C2575.439,1150.06289 2575.439,1152.91289 2573.682,1154.66989 L2555.364,1172.98789 L2573.682,1191.30589 Z" id="cross" fill="#000000"></path>
    </g>
</svg>