<?xml version="1.0" encoding="UTF-8"?>
<svg width="74px" height="92px" viewBox="0 0 74 92" version="1.1" xmlns="http://www.w3.org/2000/svg" xmlns:xlink="http://www.w3.org/1999/xlink">
    <!-- Generator: Sketch 48.1 (47250) - http://www.bohemiancoding.com/sketch -->
    <title>device-tablet</title>
    <desc>Created with Sketch.</desc>
    <defs></defs>
    <g id="dripicons-v2-by-amit-jakhu" stroke="none" stroke-width="1" fill="none" fill-rule="evenodd" transform="translate(-1846.000000, -3125.000000)">
        <path d="M1854.003,3209 L1912.003,3209 L1912.003,3194 L1854.003,3194 L1854.003,3209 Z M1854.003,3188 L1912.003,3188 L1912.003,3133 L1854.003,3133 L1854.003,3188 Z M1920.003,3132.6 L1920.003,3209.4 C1920.003,3213.591 1916.594,3217 1912.403,3217 L1853.603,3217 C1849.412,3217 1846.003,3213.591 1846.003,3209.4 L1846.003,3132.6 C1846.003,3128.409 1849.412,3125 1853.603,3125 L1912.403,3125 C1916.594,3125 1920.003,3128.409 1920.003,3132.6 L1920.003,3132.6 Z M1888.6,3202 C1888.6,3203.657 1887.257,3205 1885.6,3205 L1880.405,3205 C1878.748,3205 1877.405,3203.657 1877.405,3202 C1877.405,3200.343 1878.748,3199 1880.405,3199 L1885.6,3199 C1887.257,3199 1888.6,3200.343 1888.6,3202 L1888.6,3202 Z" id="device-tablet" fill="#000000"></path>
    </g>
</svg>