<?xml version="1.0" encoding="UTF-8"?>
<svg width="92px" height="78px" viewBox="0 0 92 78" version="1.1" xmlns="http://www.w3.org/2000/svg" xmlns:xlink="http://www.w3.org/1999/xlink">
    <!-- Generator: Sketch 48.1 (47250) - http://www.bohemiancoding.com/sketch -->
    <title>device-desktop</title>
    <desc>Created with Sketch.</desc>
    <defs></defs>
    <g id="dripicons-v2-by-amit-jakhu" stroke="none" stroke-width="1" fill="none" fill-rule="evenodd" transform="translate(-2059.000000, -3132.000000)">
        <path d="M2067.003,3184 L2143.003,3184 L2143.003,3140 L2067.003,3140 L2067.003,3184 Z M2112.25,3200.764 L2114.666,3203 L2094.974,3203 L2097.574,3200.749 C2098.393,3200.085 2099.003,3198.836 2099.003,3197.781 L2099.003,3192 L2111.003,3192 L2111.003,3197.781 C2111.003,3198.844 2111.42,3200.1 2112.25,3200.764 L2112.25,3200.764 Z M2143.403,3132 L2066.603,3132 C2062.412,3132 2059.003,3135.409 2059.003,3139.6 L2059.003,3183.916 C2059.003,3188.107 2062.412,3192 2066.603,3192 L2092.003,3192 L2092.003,3196.114 L2084.383,3202.189 C2083.033,3203.285 2082.451,3205.373 2083.032,3207.011 C2083.614,3208.65 2085.106,3210 2086.845,3210 L2122.883,3210 C2124.628,3210 2126.19,3208.644 2126.767,3206.997 C2127.345,3205.35 2126.884,3203.386 2125.521,3202.296 L2118.003,3196.1 L2118.003,3192 L2143.403,3192 C2147.594,3192 2151.003,3188.107 2151.003,3183.916 L2151.003,3139.6 C2151.003,3135.409 2147.594,3132 2143.403,3132 L2143.403,3132 Z" id="device-desktop" fill="#000000"></path>
    </g>
</svg>