<?xml version="1.0" encoding="UTF-8"?>
<svg width="30px" height="20px" viewBox="0 0 30 20" version="1.1" xmlns="http://www.w3.org/2000/svg" xmlns:xlink="http://www.w3.org/1999/xlink">
    <!-- Generator: Sketch 48.1 (47250) - http://www.bohemiancoding.com/sketch -->
    <title>icons8-docker</title>
    <desc>Created with Sketch.</desc>
    <defs></defs>
    <g id="project_files" stroke="none" stroke-width="1" fill="none" fill-rule="evenodd" transform="translate(-298.000000, -396.000000)">
        <g id="icons8-docker" transform="translate(298.000000, 396.000000)" fill-rule="nonzero">
            <path d="M25.1612903,7.09677419 C25.4133065,5.97782258 25.1008065,4.65725806 23.5483871,3.22580645 C21.0231858,5.5115929 21.7439516,7.88810516 22.5806452,9.03225806 C22.5806452,9.03225806 22.4747987,9.67741935 20,9.67741935 C17.5252019,9.67741935 0.64516129,9.67741935 0.64516129,9.67741935 C0.64516129,9.67741935 -0.536794194,20 10.9677419,20 C21.0282258,20 23.8533265,12.2555445 24.4052419,10.2746974 C24.6345768,10.3049394 24.8891129,10.3251006 25.1612903,10.3225806 C26.5473794,10.3125 28.3417342,9.56653226 29.0322581,6.78427419 C27.2001006,6.14919355 26.0257058,6.43649226 25.1612903,7.09677419 Z" id="Shape" fill="#03A9F4"></path>
            <path d="M0.751008387,12.2580645 C1.22479871,15.31502 3.21572581,20 10.9677419,20 C18.8281252,20 22.2731858,15.2721774 23.6668348,12.2580645 L0.751008387,12.2580645 Z" id="Shape" fill="#0288D1"></path>
            <path d="M12.1370968,19.9596774 C11.5423387,19.7530245 8.8634071,19.2565523 8.38709677,15.483871 C5.67036323,16.6859877 3.26612903,16.3709677 2.20766129,16.1340729 C3.60131032,18.2182458 6.18699613,20 10.9677419,20 C11.3684477,20 11.7565523,19.9848794 12.1370968,19.9596774 Z" id="Shape" fill="#81D4FA"></path>
            <path d="M12.2580645,14.8387097 C12.2580645,15.5519155 11.6809477,16.1290323 10.9677419,16.1290323 C10.2545361,16.1290323 9.67741935,15.5519155 9.67741935,14.8387097 C9.67741935,14.1255039 10.2545361,13.5483871 10.9677419,13.5483871 C11.6809477,13.5483871 12.2580645,14.1255039 12.2580645,14.8387097 Z" id="Shape" fill="#FFFFFF"></path>
            <path d="M8.97681484,15.8694555 C9.12046387,16.1945568 8.98941548,16.6179439 8.64667355,16.7187503 C6.51713742,17.3462703 4.68246,17.4294355 3.29385097,17.4294355 C2.88054452,17.0312503 2.52520194,16.6053426 2.22530258,16.1643148 C3.89364903,16.1643148 6.55493935,16.0861897 8.125,15.5418348 C8.46270194,15.4233871 8.83316516,15.5418348 8.97681484,15.8694555 Z M0.64516129,11.6129032 C0.64516129,11.6129032 1.85483871,11.6935484 2.58064516,10.9677419 C3.79032258,12.0564516 6.41381032,11.6708671 7.09677419,10.9677419 C7.78225806,12.0564516 11.5725806,11.8548387 12.2580645,10.9677419 C13.0645161,11.8951613 16.5322581,12.0967742 17.4193548,10.9677419 C17.7293348,11.9102826 21.8195568,12.1774194 22.5806452,10.9677419 C23.266129,11.6708671 25.8467742,12.2177419 27.2983871,10.9677419 C27.6612903,11.733871 29.0322581,11.6129032 29.0322581,11.6129032 L29.0322581,12.2580645 L0.64516129,12.2580645 L0.64516129,11.6129032 Z M10.3225806,14.8387097 C10.3225806,15.1940523 10.6123994,15.483871 10.9677419,15.483871 C11.3230845,15.483871 11.6129032,15.1940523 11.6129032,14.8387097 C11.6129032,14.4833671 11.3230845,14.1935484 10.9677419,14.1935484 C10.6123994,14.1935484 10.3225806,14.4833671 10.3225806,14.8387097 Z" id="Shape" fill="#37474F"></path>
            <path d="M6.4516129,9.67741935 L3.22580645,9.67741935 L3.22580645,6.4516129 L6.4516129,6.4516129 L6.4516129,9.67741935 Z M12.9032258,6.4516129 L9.67741935,6.4516129 L9.67741935,9.67741935 L12.9032258,9.67741935 L12.9032258,6.4516129 Z M19.3548387,6.4516129 L16.1290323,6.4516129 L16.1290323,9.67741935 L19.3548387,9.67741935 L19.3548387,6.4516129 Z M9.67741935,3.22580645 L6.4516129,3.22580645 L6.4516129,6.4516129 L9.67741935,6.4516129 L9.67741935,3.22580645 Z M16.1290323,3.22580645 L12.9032258,3.22580645 L12.9032258,6.4516129 L16.1290323,6.4516129 L16.1290323,3.22580645 Z" id="Shape" fill="#01579B"></path>
            <path d="M9.67741935,9.67741935 L6.4516129,9.67741935 L6.4516129,6.4516129 L9.67741935,6.4516129 L9.67741935,9.67741935 Z M16.1290323,6.4516129 L12.9032258,6.4516129 L12.9032258,9.67741935 L16.1290323,9.67741935 L16.1290323,6.4516129 Z M16.1290323,0 L12.9032258,0 L12.9032258,3.22580645 L16.1290323,3.22580645 L16.1290323,0 Z M12.9032258,3.22580645 L9.67741935,3.22580645 L9.67741935,6.4516129 L12.9032258,6.4516129 L12.9032258,3.22580645 Z" id="Shape" fill="#0288D1"></path>
        </g>
    </g>
</svg>