<?xml version="1.0" encoding="UTF-8"?>
<svg width="68px" height="89px" viewBox="0 0 68 89" version="1.1" xmlns="http://www.w3.org/2000/svg" xmlns:xlink="http://www.w3.org/1999/xlink">
    <!-- Generator: Sketch 48.1 (47250) - http://www.bohemiancoding.com/sketch -->
    <title>document</title>
    <desc>Created with Sketch.</desc>
    <defs></defs>
    <g id="dripicons-v2-by-amit-jakhu" stroke="none" stroke-width="1" fill="none" fill-rule="evenodd" transform="translate(-739.000000, -1572.000000)">
        <path d="M786.6699,1624.27799 C787.3199,1624.92799 787.6899,1625.82799 787.6899,1626.75799 C787.6899,1627.67799 787.3199,1628.57799 786.6699,1629.22799 C786.0199,1629.87799 785.1099,1630.24799 784.1899,1630.24799 C783.2699,1630.24799 782.3699,1629.87799 781.7199,1629.22799 C781.0599,1628.57799 780.6899,1627.67799 780.6899,1626.75799 C780.6899,1625.82799 781.0599,1624.92799 781.7199,1624.27799 C783.0199,1622.97799 785.3699,1622.97799 786.6699,1624.27799 L786.6699,1624.27799 Z M757.0239,1595.48799 C757.0239,1593.55499 758.5899,1591.98799 760.5239,1591.98799 L784.3269,1591.98799 C786.2599,1591.98799 787.8269,1593.55499 787.8269,1595.48799 C787.8269,1597.42099 786.2599,1598.98799 784.3269,1598.98799 L760.5239,1598.98799 C758.5899,1598.98799 757.0239,1597.42099 757.0239,1595.48799 L757.0239,1595.48799 Z M757.0239,1610.48799 C757.0239,1608.55499 758.5899,1606.98799 760.5239,1606.98799 L784.3269,1606.98799 C786.2599,1606.98799 787.8269,1608.55499 787.8269,1610.48799 C787.8269,1612.42099 786.2599,1613.98799 784.3269,1613.98799 L760.5239,1613.98799 C758.5899,1613.98799 757.0239,1612.42099 757.0239,1610.48799 L757.0239,1610.48799 Z M756.4679,1626.48799 C756.4679,1624.55499 758.0349,1622.98799 759.9679,1622.98799 L771.7889,1622.98799 C773.7219,1622.98799 775.2889,1624.55499 775.2889,1626.48799 C775.2889,1628.42099 773.7219,1629.98799 771.7889,1629.98799 L759.9679,1629.98799 C758.0349,1629.98799 756.4679,1628.42099 756.4679,1626.48799 L756.4679,1626.48799 Z M746.9999,1652.98799 L798.9999,1652.98799 L798.9999,1580.98799 L746.9999,1580.98799 L746.9999,1652.98799 Z M802.9999,1572.98799 L742.9999,1572.98799 C740.7909,1572.98799 738.9999,1574.77899 738.9999,1576.98799 L738.9999,1656.98799 C738.9999,1659.19699 740.7909,1660.98799 742.9999,1660.98799 L802.9999,1660.98799 C805.2089,1660.98799 806.9999,1659.19699 806.9999,1656.98799 L806.9999,1576.98799 C806.9999,1574.77899 805.2089,1572.98799 802.9999,1572.98799 L802.9999,1572.98799 Z" id="document" fill="#000000"></path>
    </g>
</svg>