<?xml version="1.0" encoding="UTF-8"?>
<svg width="86px" height="90px" viewBox="0 0 86 90" version="1.1" xmlns="http://www.w3.org/2000/svg" xmlns:xlink="http://www.w3.org/1999/xlink">
    <!-- Generator: Sketch 48.1 (47250) - http://www.bohemiancoding.com/sketch -->
    <title>download</title>
    <desc>Created with Sketch.</desc>
    <defs></defs>
    <g id="dripicons-v2-by-amit-jakhu" stroke="none" stroke-width="1" fill="none" fill-rule="evenodd" transform="translate(-2284.000000, -2904.000000)">
        <path d="M2323.4304,2968.0422 C2324.3704,2969.0022 2325.6584,2969.5432 2327.0024,2969.5432 C2328.3474,2969.5432 2329.6344,2969.0022 2330.5754,2968.0422 L2350.5224,2947.6762 C2352.4544,2945.7042 2352.4214,2942.5382 2350.4484,2940.6052 C2348.4754,2938.6742 2345.3094,2938.7062 2343.3774,2940.6792 L2332.0024,2952.2932 L2332.0024,2909.0002 C2332.0024,2906.2392 2329.7634,2904.0002 2327.0024,2904.0002 C2324.2414,2904.0002 2322.0024,2906.2392 2322.0024,2909.0002 L2322.0024,2952.2922 L2310.6294,2940.6792 C2308.6974,2938.7062 2305.5334,2938.6742 2303.5584,2940.6052 C2301.5864,2942.5382 2301.5534,2945.7032 2303.4854,2947.6762 L2323.4304,2968.0422 Z M2370.0024,2961.7712 L2370.0024,2989.0002 C2370.0024,2991.7612 2367.7634,2994.0002 2365.0024,2994.0002 L2289.0024,2994.0002 C2286.2414,2994.0002 2284.0024,2991.7612 2284.0024,2989.0002 L2284.0024,2961.7712 C2284.0024,2959.0102 2286.2414,2956.7712 2289.0024,2956.7712 C2291.7634,2956.7712 2294.0024,2959.0102 2294.0024,2961.7712 L2294.0024,2984.0002 L2360.0024,2984.0002 L2360.0024,2961.7712 C2360.0024,2959.0102 2362.2414,2956.7712 2365.0024,2956.7712 C2367.7634,2956.7712 2370.0024,2959.0102 2370.0024,2961.7712 L2370.0024,2961.7712 Z" id="download" fill="#000000"></path>
    </g>
</svg>