<?xml version="1.0" encoding="UTF-8"?>
<svg width="92px" height="93px" viewBox="0 0 92 93" version="1.1" xmlns="http://www.w3.org/2000/svg" xmlns:xlink="http://www.w3.org/1999/xlink">
    <!-- Generator: Sketch 48.1 (47250) - http://www.bohemiancoding.com/sketch -->
    <title>duplicate</title>
    <desc>Created with Sketch.</desc>
    <defs></defs>
    <g id="dripicons-v2-by-amit-jakhu" stroke="none" stroke-width="1" fill="none" fill-rule="evenodd" transform="translate(-2281.000000, -2236.000000)">
        <path d="M2347.4271,2324.21879 L2347.4271,2313.56679 C2347.4271,2311.89179 2346.0691,2310.53379 2344.3941,2310.53379 C2342.7191,2310.53379 2341.3611,2311.89179 2341.3611,2313.56679 L2341.3611,2322.92179 L2287.0661,2322.92179 L2287.0661,2268.64979 L2296.3941,2268.64979 C2298.0691,2268.64979 2299.4271,2267.29179 2299.4271,2265.61679 C2299.4271,2263.94179 2298.0691,2262.58379 2296.3941,2262.58379 L2285.7691,2262.58379 C2283.1391,2262.58379 2281.0001,2264.72279 2281.0001,2267.35279 L2281.0001,2324.21879 C2281.0001,2326.84879 2283.1391,2328.98779 2285.7691,2328.98779 L2342.6571,2328.98779 C2345.2871,2328.98779 2347.4271,2326.84879 2347.4271,2324.21879 L2347.4271,2324.21879 Z M2312.6391,2297.32679 L2364.9121,2297.32679 L2364.9121,2245.07579 L2312.6391,2245.07579 L2312.6391,2297.32679 Z M2368.9561,2305.41379 L2308.5951,2305.41379 C2306.3621,2305.41379 2304.5511,2303.60379 2304.5511,2301.37079 L2304.5511,2241.03179 C2304.5511,2238.79879 2306.3621,2236.98779 2308.5951,2236.98779 L2368.9561,2236.98779 C2371.1891,2236.98779 2373.0001,2238.79879 2373.0001,2241.03179 L2373.0001,2301.37079 C2373.0001,2303.60379 2371.1891,2305.41379 2368.9561,2305.41379 L2368.9561,2305.41379 Z" id="duplicate" fill="#000000"></path>
    </g>
</svg>