<?xml version="1.0" encoding="UTF-8"?>
<svg width="88px" height="92px" viewBox="0 0 88 92" version="1.1" xmlns="http://www.w3.org/2000/svg" xmlns:xlink="http://www.w3.org/1999/xlink">
    <!-- Generator: Sketch 48.1 (47250) - http://www.bohemiancoding.com/sketch -->
    <title>flag</title>
    <desc>Created with Sketch.</desc>
    <defs></defs>
    <g id="dripicons-v2-by-amit-jakhu" stroke="none" stroke-width="1" fill="none" fill-rule="evenodd" transform="translate(-2505.000000, -4235.000000)">
        <path d="M2565.6487,4276.0549 C2560.6457,4277.1999 2556.7577,4275.9039 2552.2557,4274.4029 C2547.4007,4272.7849 2541.8967,4270.9519 2534.9137,4272.5489 C2528.1497,4274.0959 2523.0187,4278.0969 2519.5297,4281.8039 L2519.1167,4279.9669 L2513.2527,4253.9349 C2514.9187,4251.3439 2519.6377,4245.1699 2527.5567,4243.6539 C2533.5337,4242.5109 2538.6507,4246.2939 2544.5787,4250.6759 C2550.3237,4254.9229 2556.8347,4259.7229 2564.8217,4259.3959 C2571.5337,4259.1099 2578.4627,4255.2019 2583.7727,4250.8239 C2581.3847,4262.8419 2575.4797,4273.8069 2565.6487,4276.0549 M2589.8117,4235.0839 C2587.9417,4234.6979 2586.0527,4235.6909 2585.3127,4237.4549 C2584.2357,4240.0279 2573.6517,4251.0129 2564.4817,4251.4029 C2559.3207,4251.6329 2554.4687,4248.0379 2549.3337,4244.2429 C2542.8367,4239.4399 2535.4727,4233.9949 2526.0537,4235.7969 C2512.2027,4238.4469 2505.7077,4250.9289 2505.4377,4251.4589 C2505.0147,4252.2899 2504.8957,4253.2419 2505.1007,4254.1519 L2509.1247,4272.0139 L2509.1247,4272.0149 L2520.8077,4323.8789 C2521.2267,4325.7379 2522.8767,4327.0009 2524.7057,4327.0009 C2524.9977,4327.0009 2525.2927,4326.9689 2525.5887,4326.9019 C2527.7437,4326.4169 2529.0977,4324.2759 2528.6117,4322.1209 L2521.7897,4291.8319 C2523.5707,4289.0489 2528.6787,4282.1809 2536.6977,4280.3479 C2541.4967,4279.2489 2545.3107,4280.5209 2549.7267,4281.9929 C2554.6567,4283.6359 2560.2427,4285.4979 2567.4317,4283.8539 C2582.4677,4280.4159 2592.7437,4262.4089 2593.0027,4239.0449 C2593.0237,4237.1309 2591.6857,4235.4709 2589.8117,4235.0839" id="flag" fill="#000000"></path>
    </g>
</svg>