<?xml version="1.0" encoding="UTF-8"?>
<svg width="54px" height="54px" viewBox="0 0 54 54" version="1.1" xmlns="http://www.w3.org/2000/svg" xmlns:xlink="http://www.w3.org/1999/xlink">
    <!-- Generator: Sketch 48.1 (47250) - http://www.bohemiancoding.com/sketch -->
    <title>plus</title>
    <desc>Created with Sketch.</desc>
    <defs></defs>
    <g id="dripicons-v2-by-amit-jakhu" stroke="none" stroke-width="1" fill="none" fill-rule="evenodd" transform="translate(-524.000000, -1368.000000)">
        <path d="M577.5,1395.48789 C577.5,1397.97289 575.485,1399.98789 573,1399.98789 L555,1399.98789 L555,1416.98789 C555,1419.47289 552.985,1421.48789 550.5,1421.48789 C548.015,1421.48789 546,1419.47289 546,1416.98789 L546,1399.98789 L529,1399.98789 C526.515,1399.98789 524.5,1397.97289 524.5,1395.48789 C524.5,1393.00289 526.515,1390.98789 529,1390.98789 L546,1390.98789 L546,1372.98789 C546,1370.50289 548.015,1368.48789 550.5,1368.48789 C552.985,1368.48789 555,1370.50289 555,1372.98789 L555,1390.98789 L573,1390.98789 C575.485,1390.98789 577.5,1393.00289 577.5,1395.48789" id="plus" fill="#000000"></path>
    </g>
</svg>