<?xml version="1.0" encoding="UTF-8"?>
<svg width="92px" height="80px" viewBox="0 0 92 80" version="1.1" xmlns="http://www.w3.org/2000/svg" xmlns:xlink="http://www.w3.org/1999/xlink">
    <!-- Generator: Sketch 48.1 (47250) - http://www.bohemiancoding.com/sketch -->
    <title>pulse</title>
    <desc>Created with Sketch.</desc>
    <defs></defs>
    <g id="dripicons-v2-by-amit-jakhu" stroke="none" stroke-width="1" fill="none" fill-rule="evenodd" transform="translate(-1393.000000, -4463.000000)">
        <path d="M1485.0027,4514.0002 C1485.0027,4516.2092 1483.2117,4518.0002 1481.0027,4518.0002 L1462.2107,4518.0002 C1460.5127,4518.0002 1458.9987,4517.0512 1458.4367,4515.4482 L1455.4387,4507.0232 L1445.6737,4540.1292 C1445.1707,4541.8342 1443.6067,4542.9942 1441.8377,4542.9942 C1441.7977,4542.9942 1441.7587,4542.9862 1441.7177,4542.9842 C1439.9017,4542.9302 1438.3497,4541.6432 1437.9397,4539.8722 L1425.0237,4484.0002 L1417.2037,4515.0992 C1416.7567,4516.8782 1415.1577,4518.0002 1413.3237,4518.0002 L1397.0027,4518.0002 C1394.7937,4518.0002 1393.0027,4516.2092 1393.0027,4514.0002 C1393.0027,4511.7912 1394.7937,4510.0002 1397.0027,4510.0002 L1410.2037,4510.0002 L1421.3027,4465.8982 C1421.7527,4464.1052 1423.3937,4462.9752 1425.2197,4462.9942 C1427.0677,4463.0122 1428.6627,4464.2892 1429.0797,4466.0892 L1442.3047,4523.2592 L1451.2737,4492.8372 C1451.7637,4491.1712 1453.2737,4489.9822 1455.0087,4489.9382 C1456.7337,4489.8882 1458.3097,4490.9122 1458.8837,4492.5512 L1465.0467,4510.0002 L1481.0027,4510.0002 C1483.2117,4510.0002 1485.0027,4511.7912 1485.0027,4514.0002" id="pulse" fill="#000000"></path>
    </g>
</svg>