<?xml version="1.0" encoding="UTF-8"?>
<svg width="92px" height="92px" viewBox="0 0 92 92" version="1.1" xmlns="http://www.w3.org/2000/svg" xmlns:xlink="http://www.w3.org/1999/xlink">
    <!-- Generator: Sketch 48.1 (47250) - http://www.bohemiancoding.com/sketch -->
    <title>rocket</title>
    <desc>Created with Sketch.</desc>
    <defs></defs>
    <g id="dripicons-v2-by-amit-jakhu" stroke="none" stroke-width="1" fill="none" fill-rule="evenodd" transform="translate(-505.000000, -4679.000000)">
        <path d="M528.9577,4750.4503 C527.9727,4751.4343 525.7607,4752.1033 523.5027,4752.4843 C523.8937,4750.2073 524.5757,4748.0013 525.5337,4747.0443 C526.1877,4746.3913 526.8097,4745.9553 527.4847,4745.9553 C528.0037,4745.9553 528.5537,4746.2133 529.1717,4746.8303 C529.7267,4747.3853 530.0447,4747.9993 530.0447,4748.5163 C530.0447,4749.2173 529.4537,4749.9553 528.9577,4750.4503 M519.8807,4741.3843 C515.2837,4745.9763 515.1037,4755.1743 515.1137,4756.9593 C515.1267,4759.1493 516.8987,4761.0003 519.0897,4761.0003 L519.2197,4761.0003 C521.2787,4761.0003 530.1167,4760.6633 534.6117,4756.1753 C537.4487,4753.3403 538.0447,4750.4483 538.0447,4748.5483 C538.0447,4745.8853 536.9017,4743.2613 534.8247,4741.1863 C529.7627,4736.1303 523.5297,4737.7383 519.8807,4741.3843 M576.1917,4699.8503 C577.4017,4701.0603 578.0917,4702.7403 578.0917,4704.4503 C578.0917,4706.1603 577.4017,4707.8303 576.1917,4709.0403 C574.9817,4710.2503 573.3017,4710.9503 571.5917,4710.9503 C569.8817,4710.9503 568.2117,4710.2503 567.0017,4709.0403 C565.7917,4707.8303 565.0917,4706.1603 565.0917,4704.4503 C565.0917,4702.7403 565.7917,4701.0603 567.0017,4699.8503 C568.2017,4698.6403 569.8817,4697.9503 571.5917,4697.9503 C573.3017,4697.9503 574.9817,4698.6403 576.1917,4699.8503 M550.3497,4739.7023 L536.2507,4725.6193 C543.3167,4706.6923 560.8657,4686.4683 588.9777,4687.0153 C589.9227,4720.5173 562.2617,4735.0283 550.3497,4739.7023 M558.2597,4757.6013 C558.4007,4753.5443 557.4917,4749.6193 555.6247,4746.1973 C558.5287,4744.9653 561.3387,4743.5743 564.0347,4742.0473 C565.1117,4747.7893 562.5587,4753.3093 558.2597,4757.6013 M518.4177,4717.7743 C522.6737,4713.5263 528.1347,4710.9883 533.8247,4711.9863 C532.2577,4714.7483 530.8967,4717.5553 529.7357,4720.3553 C526.3317,4718.5223 522.4357,4717.6323 518.4177,4717.7743 M596.7527,4682.8583 C596.5877,4680.9053 595.0307,4679.3593 593.0757,4679.2083 C567.8217,4677.2433 549.6317,4689.4653 538.3937,4704.9023 C532.1827,4702.8673 525.5147,4703.5933 519.4337,4707.0193 C513.5767,4710.3183 508.5877,4715.8773 505.3867,4722.6723 C504.6527,4724.2283 504.9967,4726.0793 506.2407,4727.2683 C507.4837,4728.4573 509.3487,4728.7183 510.8697,4727.9153 C517.2737,4724.5383 524.4847,4725.1743 528.8147,4729.4983 L546.4467,4747.1113 C546.4787,4747.1453 546.5007,4747.1843 546.5337,4747.2183 C550.8597,4751.5393 551.4967,4758.7383 548.1177,4765.1313 C547.3147,4766.6523 547.5727,4768.5173 548.7607,4769.7613 C549.5337,4770.5713 550.5857,4771.0003 551.6557,4771.0003 C552.2307,4771.0003 552.8117,4770.8763 553.3567,4770.6203 C560.1577,4767.4223 565.7227,4762.4383 569.0257,4756.5873 C572.4757,4750.4753 573.1937,4743.7693 571.1107,4737.5303 C575.6457,4734.2753 579.7057,4730.6063 583.1157,4726.6263 C593.5857,4714.4063 598.1737,4699.6813 596.7527,4682.8583" id="rocket" fill="#000000"></path>
    </g>
</svg>