<?xml version="1.0" encoding="UTF-8"?>
<svg width="92px" height="78px" viewBox="0 0 92 78" version="1.1" xmlns="http://www.w3.org/2000/svg" xmlns:xlink="http://www.w3.org/1999/xlink">
    <!-- Generator: Sketch 48.1 (47250) - http://www.bohemiancoding.com/sketch -->
    <title>time-reverse</title>
    <desc>Created with Sketch.</desc>
    <defs></defs>
    <g id="dripicons-v2-by-amit-jakhu" stroke="none" stroke-width="1" fill="none" fill-rule="evenodd" transform="translate(-1615.000000, -4242.000000)">
        <path d="M1668.0027,4258.3034 C1665.7937,4258.3034 1664.0027,4260.0944 1664.0027,4262.3034 L1664.0027,4281.0004 C1664.0027,4282.0584 1664.5097,4283.0724 1665.2547,4283.8224 L1673.8507,4292.4154 C1674.6327,4293.2004 1675.6807,4293.5944 1676.7077,4293.5944 C1677.7287,4293.5944 1678.7597,4293.2054 1679.5407,4292.4294 C1681.1057,4290.8704 1681.0307,4288.3384 1679.4717,4286.7724 L1672.0027,4279.3494 L1672.0027,4262.3034 C1672.0027,4260.0944 1670.2117,4258.3034 1668.0027,4258.3034 M1707.0027,4281.0004 C1707.0027,4302.5054 1689.5857,4320.0004 1668.1767,4320.0004 C1660.2787,4320.0004 1652.6797,4317.6334 1646.2007,4313.1554 C1644.3827,4311.8994 1643.9277,4309.4084 1645.1837,4307.5914 C1646.4407,4305.7724 1648.9327,4305.3184 1650.7487,4306.5744 C1655.8847,4310.1234 1661.9117,4312.0004 1668.1767,4312.0004 C1685.1747,4312.0004 1699.0027,4298.0944 1699.0027,4281.0004 C1699.0027,4263.9074 1685.1747,4250.0004 1668.1767,4250.0004 C1651.5537,4250.0004 1637.9707,4263.3044 1637.3807,4279.8804 L1646.7087,4270.5044 C1648.2667,4268.9384 1650.7987,4268.9314 1652.3657,4270.4904 C1653.9317,4272.0484 1653.9377,4274.5804 1652.3797,4276.1474 L1637.1087,4291.4964 C1636.3587,4292.2504 1635.3377,4292.6754 1634.2737,4292.6754 C1633.2087,4292.6754 1632.1887,4292.2504 1631.4377,4291.4964 L1616.1667,4276.1474 C1614.6087,4274.5814 1614.6157,4272.0484 1616.1817,4270.4904 C1617.7477,4268.9314 1620.2797,4268.9394 1621.8377,4270.5044 L1629.4657,4278.1714 C1630.9157,4257.9834 1647.7177,4242.0004 1668.1767,4242.0004 C1689.5857,4242.0004 1707.0027,4259.4954 1707.0027,4281.0004" id="time-reverse" fill="#000000"></path>
    </g>
</svg>