<?xml version="1.0" encoding="UTF-8"?>
<svg width="91px" height="68px" viewBox="0 0 91 68" version="1.1" xmlns="http://www.w3.org/2000/svg" xmlns:xlink="http://www.w3.org/1999/xlink">
    <!-- Generator: Sketch 48.1 (47250) - http://www.bohemiancoding.com/sketch -->
    <title>user-group</title>
    <desc>Created with Sketch.</desc>
    <defs></defs>
    <g id="dripicons-v2-by-amit-jakhu" stroke="none" stroke-width="1" fill="none" fill-rule="evenodd" transform="translate(-949.000000, -2915.000000)">
        <path d="M1023.1775,2945.5665 C1023.1775,2941.1925 1019.6145,2937.6345 1015.2355,2937.6345 C1014.1615,2937.6345 1013.1205,2937.8445 1012.1415,2938.2585 C1010.6145,2938.9045 1008.8545,2938.1895 1008.2105,2936.6635 C1007.5655,2935.1365 1008.2795,2933.3775 1009.8055,2932.7325 C1011.5275,2932.0035 1013.3545,2931.6345 1015.2355,2931.6345 C1022.9235,2931.6345 1029.1775,2937.8845 1029.1775,2945.5665 C1029.1775,2953.2485 1022.9235,2959.4985 1015.2355,2959.4985 C1011.2445,2959.4985 1007.4375,2957.7835 1004.7905,2954.7945 C1003.6925,2953.5535 1003.8075,2951.6575 1005.0485,2950.5595 C1006.2875,2949.4615 1008.1845,2949.5765 1009.2825,2950.8175 C1010.7915,2952.5215 1012.9615,2953.4985 1015.2355,2953.4985 C1019.6145,2953.4985 1023.1775,2949.9405 1023.1775,2945.5665 L1023.1775,2945.5665 Z M1040.0025,2972.0415 C1040.0025,2973.6985 1038.6595,2975.0005 1037.0025,2975.0005 L1023.6355,2975.0005 C1021.9785,2975.0005 1020.6355,2973.6565 1020.6355,2972.0005 C1020.6355,2970.3435 1021.9785,2969.0005 1023.6355,2969.0005 L1032.5395,2969.0005 C1031.0885,2967.0005 1028.6545,2965.4225 1025.6735,2963.7845 C1024.2215,2962.9865 1023.6915,2961.2045 1024.4895,2959.7525 C1025.2865,2958.2985 1027.1115,2957.7705 1028.5635,2958.5685 C1032.8355,2960.9155 1040.0025,2965.7525 1040.0025,2972.0415 L1040.0025,2972.0415 Z M960.2505,2975.0005 C963.6445,2972.4485 969.3305,2969.5665 975.5105,2967.4315 L982.3445,2971.5765 C983.6205,2972.3495 985.2195,2972.3495 986.4935,2971.5765 L993.3285,2967.4315 C999.5095,2969.5665 1005.1945,2972.4485 1008.5895,2975.0005 L960.2505,2975.0005 Z M994.0435,2959.2405 C992.9445,2958.8935 991.7475,2959.0345 990.7605,2959.6325 L984.4195,2963.4785 L978.0785,2959.6325 C977.0905,2959.0345 975.8935,2958.8925 974.7955,2959.2405 C968.7445,2961.1595 949.0025,2968.2555 949.0025,2979.0005 C949.0025,2981.2095 950.7935,2983.0005 953.0025,2983.0005 L1015.8365,2983.0005 C1018.0455,2983.0005 1019.8365,2981.2095 1019.8365,2979.0005 C1019.8365,2968.2555 1000.0945,2961.1595 994.0435,2959.2405 L994.0435,2959.2405 Z M984.4195,2923.0005 C991.6705,2923.0005 997.5695,2928.8925 997.5695,2936.1345 C997.5695,2943.3775 991.6705,2949.2695 984.4195,2949.2695 C977.1685,2949.2695 971.2685,2943.3775 971.2685,2936.1345 C971.2685,2928.8925 977.1685,2923.0005 984.4195,2923.0005 L984.4195,2923.0005 Z M984.4195,2957.2695 C996.0815,2957.2695 1005.5695,2947.7885 1005.5695,2936.1345 C1005.5695,2924.4815 996.0815,2915.0005 984.4195,2915.0005 C972.7565,2915.0005 963.2685,2924.4815 963.2685,2936.1345 C963.2685,2947.7885 972.7565,2957.2695 984.4195,2957.2695 L984.4195,2957.2695 Z" id="user-group" fill="#000000"></path>
    </g>
</svg>