<?xml version="1.0" encoding="UTF-8"?>
<svg width="60px" height="60px" viewBox="0 0 60 60" version="1.1" xmlns="http://www.w3.org/2000/svg" xmlns:xlink="http://www.w3.org/1999/xlink">
    <!-- Generator: Sketch 48.1 (47250) - http://www.bohemiancoding.com/sketch -->
    <title>Shape</title>
    <desc>Created with Sketch.</desc>
    <defs></defs>
    <g id="Desktop-HD" stroke="none" stroke-width="1" fill="none" fill-rule="evenodd" transform="translate(-110.000000, -2416.000000)">
        <g id="user-(1)" transform="translate(110.000000, 2416.000000)" fill="#252525" fill-rule="nonzero">
            <path d="M60,30 C60,13.4585455 46.5414545,0 30,0 C13.4585455,0 0,13.4585455 0,30 C0,38.7370909 3.75709091,46.6123636 9.73745455,52.0996364 L9.70909091,52.1247273 L10.6821818,52.9450909 C10.7454545,52.9985455 10.8141818,53.0421818 10.8774545,53.0945455 C11.3945455,53.5232727 11.9301818,53.9301818 12.4756364,54.324 C12.6523636,54.4516364 12.8290909,54.5792727 13.0090909,54.7036364 C13.5916364,55.1050909 14.1894545,55.4858182 14.8003636,55.8469091 C14.9334545,55.9254545 15.0676364,56.0018182 15.2018182,56.0781818 C15.8705455,56.4589091 16.5534545,56.8178182 17.2527273,57.1472727 C17.304,57.1712727 17.3563636,57.1930909 17.4076364,57.2170909 C19.6865455,58.2763636 22.1192727,59.0541818 24.6632727,59.5134545 C24.7298182,59.5254545 24.7963636,59.5374545 24.864,59.5494545 C25.6538182,59.6858182 26.4523636,59.7949091 27.2607273,59.868 C27.3589091,59.8767273 27.4570909,59.8821818 27.5563636,59.8909091 C28.3614545,59.9574545 29.1752727,60 30,60 C30.8170909,60 31.6232727,59.9574545 32.424,59.8930909 C32.5254545,59.8843636 32.6269091,59.8789091 32.7283636,59.8701818 C33.5301818,59.7970909 34.3221818,59.6912727 35.1043636,59.5570909 C35.172,59.5450909 35.2407273,59.5330909 35.3083636,59.52 C37.8141818,59.0705455 40.212,58.3101818 42.4614545,57.2781818 C42.5443636,57.24 42.6283636,57.204 42.7112727,57.1647273 C43.3843636,56.8483636 44.0421818,56.5069091 44.6869091,56.1436364 C44.8472727,56.0530909 45.0065455,55.9614545 45.1658182,55.8676364 C45.7527273,55.5218182 46.3298182,55.1607273 46.8905455,54.7767273 C47.0923636,54.6392727 47.2898182,54.4941818 47.4894545,54.3501818 C47.9683636,54.0054545 48.4385455,53.6498182 48.8956364,53.2778182 C48.9970909,53.196 49.1061818,53.1250909 49.2054545,53.0410909 L50.2036364,52.2076364 L50.1741818,52.1825455 C56.2069091,46.6930909 60,38.7818182 60,30 Z M2.18181818,30 C2.18181818,14.6607273 14.6607273,2.18181818 30,2.18181818 C45.3392727,2.18181818 57.8181818,14.6607273 57.8181818,30 C57.8181818,38.2658182 54.1909091,45.6970909 48.4483636,50.796 C48.1276364,50.5745455 47.8047273,50.376 47.4741818,50.2101818 L38.2374545,45.5923636 C37.4083636,45.1778182 36.8934545,44.3443636 36.8934545,43.4181818 L36.8934545,40.1923636 C37.1072727,39.9283636 37.3330909,39.6294545 37.5665455,39.3010909 C38.7621818,37.6123636 39.7210909,35.7338182 40.4203636,33.7123636 C41.8025455,33.0556364 42.6949091,31.6789091 42.6949091,30.1243636 L42.6949091,26.2570909 C42.6949091,25.3112727 42.348,24.3938182 41.7272727,23.6727273 L41.7272727,18.5814545 C41.784,18.0152727 41.9847273,14.82 39.6730909,12.1843636 C37.6625455,9.88909091 34.4083636,8.72727273 30,8.72727273 C25.5916364,8.72727273 22.3374545,9.88909091 20.3269091,12.1832727 C18.0152727,14.8189091 18.216,18.0141818 18.2727273,18.5803636 L18.2727273,23.6716364 C17.6530909,24.3927273 17.3050909,25.3101818 17.3050909,26.256 L17.3050909,30.1232727 C17.3050909,31.3243636 17.844,32.4447273 18.7669091,33.2007273 C19.6505455,36.6621818 21.4690909,39.2825455 22.1410909,40.1705455 L22.1410909,43.3276364 C22.1410909,44.2178182 21.6556364,45.036 20.8734545,45.4636364 L12.2476364,50.1687273 C11.9727273,50.3181818 11.7,50.4927273 11.4272727,50.688 C5.75563636,45.5912727 2.18181818,38.2058182 2.18181818,30 Z M46.3189091,52.5076364 C45.9370909,52.7847273 45.5487273,53.0530909 45.1549091,53.3094545 C44.9738182,53.4272727 44.7938182,53.5450909 44.6094545,53.6596364 C44.0945455,53.9781818 43.5709091,54.2814545 43.0363636,54.5650909 C42.9185455,54.6272727 42.7996364,54.6861818 42.6807273,54.7472727 C41.4523636,55.3767273 40.1814545,55.9178182 38.8756364,56.3574545 C38.8298182,56.3727273 38.784,56.3890909 38.7370909,56.4043636 C38.0530909,56.6312727 37.3603636,56.8330909 36.66,57.0065455 C36.6578182,57.0065455 36.6556364,57.0076364 36.6534545,57.0076364 C35.9465455,57.1821818 35.2309091,57.3272727 34.5109091,57.4461818 C34.4912727,57.4494545 34.4716364,57.4538182 34.452,57.4570909 C33.7745455,57.5672727 33.0916364,57.6469091 32.4065455,57.7069091 C32.2854545,57.7178182 32.1643636,57.7254545 32.0421818,57.7341818 C31.3647273,57.7854545 30.684,57.8181818 30,57.8181818 C29.3083636,57.8181818 28.6189091,57.7843636 27.9327273,57.7330909 C27.8138182,57.7243636 27.6949091,57.7167273 27.5770909,57.7058182 C26.8854545,57.6447273 26.1970909,57.5629091 25.5152727,57.4516364 C25.4847273,57.4461818 25.4541818,57.4407273 25.4236364,57.4352727 C23.9814545,57.1941818 22.5621818,56.8396364 21.18,56.376 C21.1374545,56.3618182 21.0938182,56.3465455 21.0512727,56.3323636 C20.3650909,56.0989091 19.6865455,55.8403636 19.02,55.5545455 C19.0156364,55.5523636 19.0101818,55.5501818 19.0058182,55.548 C18.3752727,55.2763636 17.7567273,54.9752727 17.1458182,54.6578182 C17.0661818,54.6163636 16.9854545,54.5770909 16.9069091,54.5345455 C16.3494545,54.2367273 15.804,53.9149091 15.2661818,53.5789091 C15.1069091,53.4785455 14.9487273,53.3770909 14.7916364,53.2745455 C14.2963636,52.9505455 13.8076364,52.6134545 13.332,52.2567273 C13.2829091,52.2196364 13.236,52.1803636 13.1869091,52.1432727 C13.2218182,52.1236364 13.2567273,52.104 13.2916364,52.0843636 L21.9174545,47.3792727 C23.4010909,46.5698182 24.3229091,45.0174545 24.3229091,43.3276364 L24.3218182,39.3981818 L24.0709091,39.0949091 C24.0469091,39.0676364 21.6883636,36.1985455 20.7970909,32.3138182 L20.6978182,31.8818182 L20.3258182,31.6407273 C19.8010909,31.3014545 19.4869091,30.7341818 19.4869091,30.1221818 L19.4869091,26.2549091 C19.4869091,25.7476364 19.7018182,25.2752727 20.0945455,24.9207273 L20.4545455,24.5956364 L20.4545455,18.5192727 L20.4447273,18.3763636 C20.4414545,18.3501818 20.1196364,15.7265455 21.9676364,13.62 C23.5450909,11.8221818 26.2483636,10.9090909 30,10.9090909 C33.7374545,10.9090909 36.432,11.8145455 38.0138182,13.5992727 C39.8596364,15.684 39.5574545,18.3567273 39.5552727,18.3785455 L39.5454545,24.5978182 L39.9054545,24.9229091 C40.2970909,25.2763636 40.5130909,25.7498182 40.5130909,26.2570909 L40.5130909,30.1243636 C40.5130909,30.9021818 39.984,31.608 39.2247273,31.8425455 L38.6825455,32.0094545 L38.508,32.5494545 C37.8643636,34.5490909 36.948,36.396 35.7850909,38.0389091 C35.4992727,38.4425455 35.2210909,38.8003636 34.9821818,39.0741818 L34.7116364,39.3829091 L34.7116364,43.4181818 C34.7116364,45.1767273 35.6890909,46.7585455 37.2621818,47.544 L46.4989091,52.1618182 C46.5578182,52.1912727 46.6156364,52.2218182 46.6734545,52.2523636 C46.5567273,52.3407273 46.4367273,52.4225455 46.3189091,52.5076364 Z" id="Shape"></path>
        </g>
    </g>
</svg>